<?xml version="1.0" encoding="UTF-8" standalone="no"?>
<!-- Created with Inkscape (http://www.inkscape.org/) -->

<svg
   xmlns:dc="http://purl.org/dc/elements/1.1/"
   xmlns:cc="http://creativecommons.org/ns#"
   xmlns:rdf="http://www.w3.org/1999/02/22-rdf-syntax-ns#"
   xmlns:svg="http://www.w3.org/2000/svg"
   xmlns="http://www.w3.org/2000/svg"
   xmlns:sodipodi="http://sodipodi.sourceforge.net/DTD/sodipodi-0.dtd"
   xmlns:inkscape="http://www.inkscape.org/namespaces/inkscape"
   width="3in"
   height="5in"
   viewBox="0 0 270 450.00001"
   id="svg4284"
   version="1.1"
   inkscape:version="0.91 r13725"
   sodipodi:docname="kid0.svg">
  <defs
     id="defs4286">
    <inkscape:path-effect
       effect="spiro"
       id="path-effect4834"
       is_visible="true" />
  </defs>
  <sodipodi:namedview
     id="base"
     pagecolor="#ffffff"
     bordercolor="#666666"
     borderopacity="1.0"
     inkscape:pageopacity="0.0"
     inkscape:pageshadow="2"
     inkscape:zoom="1.7488889"
     inkscape:cx="135"
     inkscape:cy="225"
     inkscape:document-units="px"
     inkscape:current-layer="layer1"
     showgrid="false"
     inkscape:window-width="1920"
     inkscape:window-height="982"
     inkscape:window-x="0"
     inkscape:window-y="28"
     inkscape:window-maximized="1"
     units="in" />
  <metadata
     id="metadata4289">
    <rdf:RDF>
      <cc:Work
         rdf:about="">
        <dc:format>image/svg+xml</dc:format>
        <dc:type
           rdf:resource="http://purl.org/dc/dcmitype/StillImage" />
        <dc:title></dc:title>
      </cc:Work>
    </rdf:RDF>
  </metadata>
  <g
     inkscape:label="Layer 1"
     inkscape:groupmode="layer"
     id="layer1"
     transform="translate(0,-602.36215)">
    <path
       style="fill:#ff0000;fill-rule:evenodd;stroke:#000000;stroke-width:1;stroke-linecap:butt;stroke-linejoin:miter;stroke-miterlimit:4;stroke-dasharray:none;stroke-opacity:1"
       d="m 107.49682,766.46634 c -3.46432,2.21969 -2.37919,7.92127 -2.85895,12.00763 -0.46672,3.97524 0.79228,8.08428 0,12.00762 -0.77778,3.85151 -3.61746,7.05307 -4.57434,10.86404 -1.491806,5.94143 -0.827589,12.23615 -1.715372,18.29733 -0.845074,5.76959 -6.937035,12.49453 -3.43075,17.15375 4.140135,5.50149 13.699652,1.79292 20.584502,1.71538 12.64917,-0.14246 28.86072,5.0092 37.73824,-4.00254 4.43221,-4.49922 2.14495,-12.56811 1.71538,-18.86913 -0.34592,-5.07399 -3.35598,-9.78136 -3.43075,-14.86658 -0.0714,-4.85877 2.38014,-9.45914 2.85896,-14.29479 0.37562,-3.79339 0.56682,-7.66626 0,-11.43583 -0.38548,-2.56358 -0.11627,-6.01635 -2.28717,-7.43329 -6.90939,-4.50974 -16.34301,3.19564 -24.58704,2.85895 -6.79735,-0.27761 -14.28462,-7.67269 -20.01271,-4.00254 z"
       id="path4168"
       inkscape:connector-curvature="0"
       sodipodi:nodetypes="sssssssssssssss" />
    <path
       style="fill:none;fill-rule:evenodd;stroke:#000000;stroke-width:0.60000002px;stroke-linecap:butt;stroke-linejoin:miter;stroke-opacity:1"
       d="m 77.628224,966.18495 c 18.82224,-12.64648 33.412056,-31.4806 40.952776,-52.86629 8.26273,-23.43333 8.06441,-48.86791 8.19056,-73.715 0.11974,-23.58479 0.61622,-47.16767 1.48918,-70.73661"
       id="path4832"
       inkscape:path-effect="#path-effect4834"
       inkscape:original-d="m 77.628224,966.18495 c 0,0 32.583816,-32.20603 40.952776,-52.86629 9.282,-22.9143 6.60112,-49.61387 8.19056,-73.715 1.58943,-24.10113 1.48918,-70.73661 1.48918,-70.73661"
       inkscape:connector-curvature="0"
       sodipodi:nodetypes="cszc" />
    <path
       style="fill:none;fill-rule:evenodd;stroke:#000000;stroke-width:0.60000002px;stroke-linecap:butt;stroke-linejoin:miter;stroke-opacity:1"
       d="m 163.25675,969.90795 c 0,0 -41.1055,-75.76855 -36.48519,-113.17858 4.6203,-37.41004 1.48918,-88.60692 1.48918,-88.60692"
       id="path4836"
       inkscape:connector-curvature="0"
       sodipodi:nodetypes="czc" />
    <path
       style="fill:none;fill-rule:evenodd;stroke:#000000;stroke-width:0.60000002px;stroke-linecap:butt;stroke-linejoin:miter;stroke-opacity:1"
       d="m 75.394436,818.75498 c 0,0 11.51139,-37.40011 26.805454,-46.90954 17.31582,-10.76652 42.15181,3.91605 61.05686,-3.72299 16.64849,-6.72722 34.10816,-35.35734 34.10816,-35.35734"
       id="path4838"
       inkscape:connector-curvature="0"
       sodipodi:nodetypes="casc" />
    <ellipse
       style="fill:none;fill-opacity:1;stroke:#000000;stroke-width:0.72000003;stroke-opacity:1"
       id="path4840"
       cx="130.12224"
       cy="740.57239"
       rx="29.039242"
       ry="30.379513" />
    <path
       style="fill:none;fill-rule:evenodd;stroke:#000000;stroke-width:0.72000003px;stroke-linecap:butt;stroke-linejoin:miter;stroke-opacity:1"
       d="m 121.88173,753.83999 c 0,0 3.35914,1.62118 5.3704,1.73746 2.01125,0.11628 6.31809,-1.26361 6.31809,-1.26361"
       id="path4138"
       inkscape:connector-curvature="0"
       sodipodi:nodetypes="czc" />
    <ellipse
       style="fill:none;fill-opacity:1;stroke:#000000;stroke-width:0.35856;stroke-miterlimit:4;stroke-dasharray:none;stroke-opacity:1"
       id="path4140"
       cx="122.19763"
       cy="734.8067"
       rx="2.3692899"
       ry="2.448266" />
    <ellipse
       ry="2.448266"
       rx="2.3692899"
       cy="734.6488"
       cx="137.04518"
       id="ellipse4142"
       style="fill:none;fill-opacity:1;stroke:#000000;stroke-width:0.35856;stroke-miterlimit:4;stroke-dasharray:none;stroke-opacity:1" />
    <path
       style="fill:none;fill-rule:evenodd;stroke:#000000;stroke-width:3;stroke-linecap:butt;stroke-linejoin:miter;stroke-opacity:1;stroke-miterlimit:4;stroke-dasharray:none"
       d="m 141.80432,769.3253 c 0,0 -3.59053,11.70328 -4.57433,17.72554 -0.8626,5.28033 -1.49576,10.67145 -1.14359,16.01017 0.43549,6.60187 1.22313,13.43681 4.00255,19.44091 2.33848,5.0516 9.54508,7.63497 10.29224,13.15121 0.33257,2.45534 -2.37302,4.43185 -2.85895,6.8615 -0.33641,1.68206 -1.21295,3.93317 0,5.14612 1.21295,1.21295 3.81955,-1.08753 5.14612,0 0.75158,0.61615 0.57179,2.85896 0.57179,2.85896 l 0,0"
       id="path4170"
       inkscape:connector-curvature="0"
       sodipodi:nodetypes="cssssssssc" />
    <path
       style="fill:none;fill-rule:evenodd;stroke:#000000;stroke-width:3;stroke-linecap:butt;stroke-linejoin:miter;stroke-opacity:1;stroke-miterlimit:4;stroke-dasharray:none"
       d="m 113.78653,768.75351 c 0,0 -3.15604,15.93356 -3.43075,24.01525 -0.17531,5.15724 1.22626,10.27881 1.14358,15.43837 -0.14434,9.00746 2.27642,19.47264 -2.85895,26.87421 -0.9718,1.40064 -3.15672,1.3403 -4.57434,2.28716 -3.14603,2.10129 -4.89722,6.55402 -8.576871,7.43329 -2.293001,0.54792 -6.232187,0.55664 -6.861499,-1.71537 -0.359754,-1.29882 1.686167,-2.19494 2.858958,-2.85896 0.683849,-0.38719 2.287167,-0.57179 2.287167,-0.57179"
       id="path4172"
       inkscape:connector-curvature="0"
       sodipodi:nodetypes="csssssssc" />
  </g>
</svg>
