<?xml version="1.0" encoding="UTF-8" standalone="no"?>
<!-- Created with Inkscape (http://www.inkscape.org/) -->

<svg
   xmlns:dc="http://purl.org/dc/elements/1.1/"
   xmlns:cc="http://creativecommons.org/ns#"
   xmlns:rdf="http://www.w3.org/1999/02/22-rdf-syntax-ns#"
   xmlns:svg="http://www.w3.org/2000/svg"
   xmlns="http://www.w3.org/2000/svg"
   xmlns:sodipodi="http://sodipodi.sourceforge.net/DTD/sodipodi-0.dtd"
   xmlns:inkscape="http://www.inkscape.org/namespaces/inkscape"
   width="5in"
   height="3in"
   viewBox="0 0 450 270.00001"
   id="svg4284"
   version="1.1"
   inkscape:version="0.91 r13725"
   sodipodi:docname="AliceDesk.svg">
  <defs
     id="defs4286">
    <inkscape:path-effect
       effect="spiro"
       id="path-effect4834"
       is_visible="true" />
  </defs>
  <sodipodi:namedview
     id="base"
     pagecolor="#ffffff"
     bordercolor="#666666"
     borderopacity="1.0"
     inkscape:pageopacity="0.0"
     inkscape:pageshadow="2"
     inkscape:zoom="2.9148148"
     inkscape:cx="225"
     inkscape:cy="135"
     inkscape:document-units="px"
     inkscape:current-layer="layer1"
     showgrid="true"
     inkscape:window-width="1920"
     inkscape:window-height="982"
     inkscape:window-x="0"
     inkscape:window-y="28"
     inkscape:window-maximized="1"
     units="in">
    <inkscape:grid
       type="xygrid"
       id="grid4142"
       snapvisiblegridlinesonly="false" />
  </sodipodi:namedview>
  <metadata
     id="metadata4289">
    <rdf:RDF>
      <cc:Work
         rdf:about="">
        <dc:format>image/svg+xml</dc:format>
        <dc:type
           rdf:resource="http://purl.org/dc/dcmitype/StillImage" />
        <dc:title></dc:title>
      </cc:Work>
    </rdf:RDF>
  </metadata>
  <g
     inkscape:label="Layer 1"
     inkscape:groupmode="layer"
     id="layer1"
     transform="translate(0,-782.36215)">
    <path
       style="fill:none;fill-rule:evenodd;stroke:#000000;stroke-width:1.14196038;stroke-linecap:butt;stroke-linejoin:miter;stroke-miterlimit:4;stroke-dasharray:none;stroke-opacity:1"
       d="m 274.81498,1015.2595 c 18.65072,-10.3034 33.47003,-27.36801 41.05788,-47.27865 7.93022,-20.80903 7.97121,-43.65609 8.21157,-65.92369 0.22767,-21.09192 0.7254,-42.18093 1.49303,-63.26011"
       id="path4832"
       inkscape:path-effect="#path-effect4834"
       inkscape:original-d="m 274.81498,1015.2595 c 0,0 32.66745,-28.80206 41.05788,-47.27865 9.30583,-20.49237 6.61807,-44.36992 8.21157,-65.92369 1.59353,-21.55377 1.49303,-63.26011 1.49303,-63.26011"
       inkscape:connector-curvature="0"
       sodipodi:nodetypes="cszc" />
    <path
       style="fill:none;fill-rule:evenodd;stroke:#000000;stroke-width:1.14196038;stroke-linecap:butt;stroke-linejoin:miter;stroke-miterlimit:4;stroke-dasharray:none;stroke-opacity:1"
       d="m 360.66328,1018.589 c 0,0 -41.211,-67.76025 -36.57885,-101.21623 4.63218,-33.456 1.49303,-79.24162 1.49303,-79.24162"
       id="path4836"
       inkscape:connector-curvature="0"
       sodipodi:nodetypes="czc" />
    <path
       style="fill:none;fill-rule:evenodd;stroke:#000000;stroke-width:1.14196038;stroke-linecap:butt;stroke-linejoin:miter;stroke-miterlimit:4;stroke-dasharray:none;stroke-opacity:1"
       d="m 272.57546,883.41208 c 0,0 11.54094,-33.44712 26.87425,-41.95144 17.36027,-9.62856 43.23035,-12.00072 61.21357,-3.32949 15.12088,7.29105 -22.73877,48.1698 -22.73877,48.1698"
       id="path4838"
       inkscape:connector-curvature="0"
       sodipodi:nodetypes="casc" />
    <ellipse
       style="fill:none;fill-opacity:1;stroke:#000000;stroke-width:1.14196038;stroke-miterlimit:4;stroke-dasharray:none;stroke-opacity:1"
       id="path4840"
       cx="327.44373"
       cy="813.49298"
       rx="24.261475"
       ry="22.640461" />
    <path
       style="fill:#f5d300;fill-opacity:1;stroke:#000000;stroke-width:1.14196038;stroke-miterlimit:4;stroke-dasharray:none;stroke-opacity:1"
       id="path4140"
       d="m 296.75507,832.22476 c 0.34275,-1.22831 0.7868,-2.43193 1.14677,-3.65593 0.34572,-0.96924 0.59003,-1.96249 0.90013,-2.94033 0.31212,-0.87086 0.35796,-1.78799 0.59333,-2.67296 0.26339,-0.79956 0.35895,-1.62573 0.41494,-2.45394 0.0465,-0.92494 0.0432,-1.85112 0.0435,-2.77678 -8.5e-4,-0.94259 -0.003,-1.88518 -0.003,-2.82777 -6e-4,-0.94201 -6e-4,-1.88404 -8.5e-4,-2.82606 -0.0582,-0.85732 0.20461,-1.68659 0.35378,-2.52523 0.0848,-0.91141 0.19419,-1.8116 0.381,-2.71133 0.12632,-0.95276 0.38835,-1.88199 0.59331,-2.82197 0.19679,-0.85027 0.55715,-1.65961 0.86941,-2.47903 0.30652,-0.80413 0.73257,-1.57284 1.23317,-2.29435 0.36515,-0.70066 0.87021,-1.27889 1.52085,-1.78326 2.85337,-2.02813 6.31865,-3.4773 9.41201,-5.05825 1.01676,-0.36206 2.02783,-0.71229 3.03259,-1.09451 0.95863,-0.24544 1.88809,-0.54264 2.87412,-0.6981 1.05077,-0.13693 2.11476,-0.14575 3.17446,-0.1547 1.05818,-0.004 2.11639,3.4e-4 3.17458,0.002 1.07607,0.0263 1.93063,0.0435 2.97695,-0.18976 0.93528,-0.19633 1.89766,-0.23402 2.85403,-0.26316 1.04615,-0.0228 2.09273,-0.0196 3.13912,-0.0188 1.05679,0.002 2.11357,0.002 3.17036,0.002 1.05593,4.6e-4 2.11187,4.7e-4 3.16781,4.9e-4 1.05467,-0.11188 1.97164,0.18835 2.9321,0.51702 0.82828,0.46142 1.62329,0.98938 2.31952,1.60197 0.55736,0.5765 0.9776,1.22786 1.3933,1.88874 0.46545,0.55058 0.83167,1.15933 1.24413,1.74261 0.37536,0.71084 0.79737,1.38721 1.27456,2.04657 0.41653,0.68856 0.75867,1.41319 1.29425,2.03723 0.45824,0.64039 0.93401,1.27401 1.35121,1.93801 0.48569,0.63793 0.94996,1.30029 1.31626,2.00009 0.35321,0.77311 0.37234,1.61266 0.59261,2.4159 0.25453,0.83871 0.3362,1.70407 0.38766,2.56819 0.0418,0.93653 0.0388,1.87405 0.0391,2.81114 -8.4e-4,0.94282 -0.003,1.88563 -0.003,2.82844 0.11415,0.80612 0.31455,1.59751 0.41626,2.40634 0.0968,0.9205 0.10436,1.84584 0.11218,2.7696 0.004,0.94266 0.002,1.88532 4.4e-4,2.82798 -0.0382,0.82653 0.22627,1.62804 0.36029,2.44003 0.15762,0.87277 0.0872,1.76213 0.20564,2.63644 0.0961,0.74916 0.47443,1.42215 0.70665,2.13871 0.24497,0.57983 0.5175,1.18411 1.10929,1.54237 0.10076,0.0345 0.20153,0.0689 0.3023,0.10329 0,0 -6.56897,3.8387 -6.56897,3.8387 l 0,0 c -0.12994,-0.0736 -0.25991,-0.14729 -0.38987,-0.22094 -0.64197,-0.52709 -1.05392,-1.18707 -1.34538,-1.91833 -0.22167,-0.74937 -0.6384,-1.43843 -0.74629,-2.21557 -0.17147,-0.87228 -0.0708,-1.7653 -0.20924,-2.64381 -0.12392,-0.84608 -0.41368,-1.67484 -0.40162,-2.53063 8.5e-4,-0.9411 0.003,-1.88221 0.002,-2.82332 -0.004,-0.90231 -0.008,-1.80584 -0.0836,-2.7061 -0.0889,-0.83485 -0.27554,-1.65074 -0.44668,-2.47426 6e-4,-0.94271 0.002,-1.88543 0.003,-2.82815 6e-4,-0.92673 0.004,-1.85371 -0.0255,-2.78014 -0.0375,-0.81961 -0.0904,-1.64352 -0.32515,-2.44072 -0.21947,-0.76484 -0.26501,-1.54681 -0.5251,-2.30126 -0.34626,-0.68675 -0.81484,-1.32481 -1.2782,-1.95218 -0.40598,-0.6365 -0.87133,-1.24331 -1.30753,-1.86228 -0.52122,-0.64996 -0.90971,-1.36637 -1.32168,-2.07393 -0.47641,-0.66048 -0.89321,-1.34144 -1.27281,-2.04952 -0.43035,-0.58999 -0.80436,-1.2089 -1.2724,-1.77589 -0.37666,-0.60025 -0.74787,-1.19867 -1.26754,-1.71325 -0.64421,-0.5287 -1.33846,-1.04109 -2.14024,-1.36523 -0.90342,-0.28689 -1.80601,-0.37762 -2.7663,-0.31839 -1.05602,-8e-5 -2.11203,-1.9e-4 -3.16807,-7.7e-4 -1.05663,-5.3e-4 -2.11326,-0.002 -3.1699,-0.002 -1.03993,0.002 -2.08055,7.7e-4 -3.11941,0.0489 -0.9406,0.0559 -1.87401,0.15751 -2.79346,0.349 -1.01242,0.13347 -2.03804,0.0549 -3.0583,0.0723 -1.05518,-0.002 -2.11047,-0.007 -3.16556,0.009 -1.03343,0.024 -2.07343,0.0575 -3.08523,0.26489 -0.94495,0.21601 -1.88078,0.48402 -2.78589,0.80764 -0.9908,0.38109 -2.02961,0.66596 -2.9799,1.13102 11.65442,-6.02847 6.38763,-3.49709 3.96487,-1.9255 -0.64647,0.43672 -1.34702,0.85292 -1.62988,1.56293 -0.46644,0.70298 -0.96198,1.38336 -1.31969,2.1425 -0.25833,0.81567 -0.62271,1.59801 -0.91646,2.4039 -0.17592,0.94732 -0.49335,1.86464 -0.59169,2.82271 -0.17835,0.893 -0.38086,1.76895 -0.38587,2.68137 -0.11144,0.82132 -0.39594,1.61831 -0.41131,2.44265 4e-5,0.94189 4e-5,1.88377 6e-4,2.82564 6.1e-4,0.94265 0.002,1.88529 0.003,2.82794 8.4e-4,0.9353 0.006,1.87083 -0.0224,2.80589 -0.0369,0.86577 -0.0871,1.73759 -0.33691,2.57935 -0.28151,0.88851 -0.35893,1.79404 -0.60007,2.69319 -0.31062,0.97553 -0.54605,1.96628 -0.92224,2.92518 -0.32846,1.23508 -0.87046,2.41193 -1.11047,3.66669 0,0 -7.08334,3.00094 -7.08334,3.00094 z"
       inkscape:connector-curvature="0" />
    <path
       style="fill:none;fill-rule:evenodd;stroke:#000000;stroke-width:1.14196038;stroke-linecap:butt;stroke-linejoin:miter;stroke-miterlimit:4;stroke-dasharray:none;stroke-opacity:1"
       d="m 319.23157,823.44745 c 0,0 4.93922,2.11365 7.45027,2.21525 2.51105,0.10156 7.03636,-1.47683 7.03636,-1.47683 l 0,0"
       id="path4139"
       inkscape:connector-curvature="0"
       sodipodi:nodetypes="czcc" />
    <ellipse
       style="fill:none;fill-opacity:1;stroke:#000000;stroke-width:0.56869626;stroke-miterlimit:4;stroke-dasharray:none;stroke-opacity:1"
       id="path4141"
       cx="319.85242"
       cy="809.23291"
       rx="1.4486625"
       ry="1.6614382" />
    <ellipse
       ry="1.6614382"
       rx="1.4486625"
       cy="809.23291"
       cx="332.89035"
       id="ellipse4143"
       style="fill:none;fill-opacity:1;stroke:#000000;stroke-width:0.56869626;stroke-miterlimit:4;stroke-dasharray:none;stroke-opacity:1" />
    <path
       style="fill:none;fill-rule:evenodd;stroke:#000000;stroke-width:1px;stroke-linecap:butt;stroke-linejoin:miter;stroke-opacity:1"
       d="m 76.757236,936.90176 0,90.00014 10,0 0,-90.00014 z"
       id="path4286"
       inkscape:connector-curvature="0" />
    <path
       style="fill:none;fill-rule:evenodd;stroke:#000000;stroke-width:1px;stroke-linecap:butt;stroke-linejoin:miter;stroke-opacity:1"
       d="m 186.75723,936.90176 -10,0 0,90.00014 10,0 z"
       id="path4288"
       inkscape:connector-curvature="0" />
    <path
       style="fill:none;fill-rule:evenodd;stroke:#000000;stroke-width:1px;stroke-linecap:butt;stroke-linejoin:miter;stroke-opacity:1"
       d="m 286.75723,816.90176 0,70 -10,0 0,-70 10,0 0,0 z"
       id="path4290"
       inkscape:connector-curvature="0" />
    <path
       style="fill:#ffffff;fill-opacity:1;fill-rule:evenodd;stroke:#000000;stroke-width:1px;stroke-linecap:butt;stroke-linejoin:miter;stroke-opacity:1"
       d="m 76.757236,936.90176 109.999994,0 100,-120 -90,0 z"
       id="path4284"
       inkscape:connector-curvature="0" />
    <g
       id="g4238"
       transform="matrix(0.20279899,-0.17009771,0,0.18185951,169.395,725.96232)">
      <rect
         y="732.36212"
         x="60"
         height="90"
         width="220"
         id="rect4144"
         style="fill:#e3e3e3;fill-opacity:1;stroke:#0004d6;stroke-width:0.40000001;stroke-miterlimit:4;stroke-dasharray:none;stroke-opacity:1" />
      <text
         sodipodi:linespacing="125%"
         id="text4146"
         y="742.7851"
         x="63.698338"
         style="font-style:normal;font-weight:normal;font-size:9px;line-height:125%;font-family:sans-serif;letter-spacing:0px;word-spacing:0px;fill:#000000;fill-opacity:1;stroke:none;stroke-width:1px;stroke-linecap:butt;stroke-linejoin:miter;stroke-opacity:1"
         xml:space="preserve"><tspan
           y="742.7851"
           x="63.698338"
           id="tspan4148"
           sodipodi:role="line">RIGOL DS1054Z Oscilloscope</tspan></text>
      <rect
         y="752.36212"
         x="70"
         height="60"
         width="90"
         id="rect4150"
         style="fill:#000000;fill-opacity:1;stroke:#0004d6;stroke-width:0.40000001;stroke-miterlimit:4;stroke-dasharray:none;stroke-opacity:1" />
      <path
         sodipodi:nodetypes="cssccccccccscssscscsssssssscscccccccccssssscccscccsssccssssccccccccccccccccssssssccccccccccsccccccsccccccsssssscssscccsccccccccccccccccccsssscsscccscc"
         inkscape:connector-curvature="0"
         id="path4152"
         d="m 76.438519,775.88673 c -1.214069,-2.45602 0.876145,1.67454 -0.08073,-0.89263 -0.09769,-0.26209 1.037844,-0.77043 1.305261,-1.30526 0.09729,-0.19458 -0.09729,-0.45806 0,-0.65263 0.391579,-0.78316 1.566314,-1.17474 1.957893,-1.9579 0.09729,-0.19457 -0.153827,-0.4988 0,-0.65263 0.153826,-0.15382 0.498804,0.15383 0.65263,0 0.153827,-0.15382 -0.153826,-0.4988 0,-0.65263 0.153827,-0.15382 0.498804,0.15383 0.652631,0 0.153826,-0.15382 -0.153827,-0.4988 0,-0.65263 0.153826,-0.15382 0.498804,0.15383 0.652631,0 0.153826,-0.15382 -0.153827,-0.4988 0,-0.65263 0.153826,-0.15383 0.498804,0.15383 0.65263,0 0.435375,-0.43537 -0.435374,-0.86989 0,-1.30526 0.307653,-0.30765 0.916108,0.19458 1.305262,0 1.612914,-0.80646 -0.225274,-0.65263 1.305261,-0.65263 1.530535,0 -0.307653,0.15383 1.305262,-0.65263 0.194577,-0.0973 0.435087,0 0.65263,0 l 0.652631,0 c -0.435087,0 -1.305261,-0.43509 -1.305261,0 0,1.79712 1.489567,0.1843 1.957892,0.65263 0.153826,0.15383 -0.153827,0.4988 0,0.65263 0.153826,0.15383 0.498804,-0.15383 0.65263,0 0.153827,0.15383 -0.153826,0.4988 0,0.65263 0.153827,0.15383 0.498805,-0.15383 0.652631,0 0.153827,0.15383 -0.153826,0.4988 0,0.65263 0.153827,0.15383 0.498804,-0.15383 0.652631,0 0.153826,0.15383 -0.09729,0.45806 0,0.65263 0.137587,0.27518 0.515044,0.37746 0.652631,0.65263 0.09729,0.19458 -0.153827,0.49881 0,0.65263 0.153826,0.15383 0.498804,-0.15382 0.65263,0 0.153827,0.15383 -0.09729,0.45806 0,0.65263 0.137587,0.27518 0.515044,0.37746 0.652631,0.65264 0.09729,0.19457 0,0.43508 0,0.65263 0.217544,0.21754 0.515044,0.37745 0.652631,0.65263 0.09729,0.19457 -0.153827,0.4988 0,0.65263 0.153826,0.15382 0.498804,-0.15383 0.65263,0 0.307653,0.30765 -0.307653,0.99761 0,1.30526 0.153827,0.15383 0.498805,-0.15383 0.652631,0 0.153827,0.15383 -0.09729,0.45805 0,0.65263 0.137587,0.27517 0.515044,0.37746 0.652631,0.65263 0.194577,0.38915 -0.194577,0.91611 0,1.30526 0.137586,0.27517 0.515044,0.37746 0.652631,0.65263 0.09729,0.19458 -0.153827,0.49881 0,0.65263 0.153826,0.15383 0.498804,-0.15382 0.65263,0 0.153827,0.15383 -0.09729,0.45806 0,0.65263 0.137587,0.27518 0.515044,0.37746 0.652631,0.65263 0.09729,0.19458 -0.153827,0.49881 0,0.65263 0.153827,0.15383 0.498804,-0.15382 0.652631,0 0.153826,0.15383 -0.153827,0.49881 0,0.65264 0.02958,0.0296 2.955448,0 3.263158,0 l 3.91578,0 c 0.21755,0 0.49881,0.15382 0.65263,0 0.15383,-0.15383 -0.15382,-0.49881 0,-0.65264 1.35032,-1.35031 -0.0528,2.06347 1.30527,-0.65263 0.0973,-0.19457 -0.15383,-0.4988 0,-0.65263 0.15382,-0.15382 0.4988,0.15383 0.65263,0 0.43537,-0.43537 -0.43538,-0.86988 0,-1.30526 0.15382,-0.15382 0.4988,0.15383 0.65263,0 0.30765,-0.30765 -0.19458,-0.91611 0,-1.30526 0.13758,-0.27517 0.51504,-0.37746 0.65263,-0.65263 0.0973,-0.19458 -0.15383,-0.4988 0,-0.65263 0.15382,-0.15383 0.4988,0.15383 0.65263,0 0.15382,-0.15383 -0.0973,-0.45805 0,-0.65263 0.13759,-0.27517 0.51504,-0.37746 0.65263,-0.65263 0.0973,-0.19458 -0.15383,-0.49881 0,-0.65263 0.15383,-0.15383 0.4988,0.15382 0.65263,0 0.15383,-0.15383 -0.15383,-0.49881 0,-0.65263 0.15383,-0.15383 0.4988,0.15382 0.65263,0 0.15383,-0.15383 -0.15383,-0.49881 0,-0.65263 0.15383,-0.15383 0.4988,0.15382 0.65263,0 1.35032,-1.35032 -2.06346,0.0528 0.65263,-1.30527 1.74035,0 -0.21754,0.21755 0.65263,-0.65263 0.30766,-0.30765 0.99761,0.30766 1.30526,0 0.15383,-0.15382 -0.15382,-0.4988 0,-0.65263 0.42858,-0.42857 0.87669,0.42857 1.30527,0 0.15382,-0.15382 -0.15383,-0.4988 0,-0.65263 0.30765,-0.30765 0.9976,0.30766 1.30526,0 0.87017,-0.87017 -1.08772,-0.65263 0.65263,-0.65263 l 0.65263,0 c 0.21754,0 0.4988,-0.15383 0.65263,0 0.15383,0.15383 -0.0973,0.45806 0,0.65263 0.27517,0.55035 1.03009,0.75492 1.30526,1.30526 0.0973,0.19458 -0.15383,0.49881 0,0.65263 0.15383,0.15383 0.4988,-0.15382 0.65263,0 0.15383,0.15383 -0.15383,0.49881 0,0.65264 0.15383,0.15382 0.49881,-0.15383 0.65263,0 0.30765,0.30765 -0.30765,0.9976 0,1.30526 0.15383,0.15382 0.49881,-0.15383 0.65263,0 0.15383,0.15382 -0.15382,0.4988 0,0.65263 0.15383,0.15382 0.49881,-0.15383 0.65263,0 0.30766,0.30765 -0.30765,0.99761 0,1.30526 0.15383,0.15383 0.49881,-0.15383 0.65263,0 0.15383,0.15383 -0.0973,0.45805 0,0.65263 0.13759,0.27517 0.51505,0.37746 0.65263,0.65263 0.0973,0.19458 -0.15382,0.4988 0,0.65263 0.15383,0.15383 0.49881,-0.15383 0.65264,0 0.15382,0.15383 -0.15383,0.4988 0,0.65263 0.15382,0.15383 0.4988,-0.15383 0.65263,0 0.43537,0.43538 -0.43538,0.86989 0,1.30526 0.15382,0.15383 0.4988,-0.15382 0.65263,0 0.15382,0.15383 -0.15383,0.49881 0,0.65263 0.15382,0.15383 0.4988,-0.15382 0.65263,0 0.15382,0.15383 -0.0973,0.45806 0,0.65263 0.27517,0.55035 1.03009,0.75492 1.30526,1.30527 0.0973,0.19457 -0.15383,0.4988 0,0.65263 0.30765,0.30765 1.30526,-0.43509 1.30526,0 0,0.21754 -0.87017,0 -0.65263,0 l 3.26315,0 c 0.21755,0 0.49881,0.15382 0.65263,0 0.15383,-0.15383 -0.15382,-0.49881 0,-0.65263 0.32632,-0.32632 1.63158,0.32631 1.9579,0 0.15382,-0.15383 -0.15383,-0.49881 0,-0.65264 0.43636,-0.43636 0.86889,0.43637 1.30526,0 0.15382,-0.15382 -0.15383,-0.4988 0,-0.65263 0.15382,-0.15382 0.45805,0.0973 0.65263,0 0.27517,-0.13758 0.37746,-0.51504 0.65263,-0.65263 0.19458,-0.0973 0.4988,0.15383 0.65263,0 0.15383,-0.15382 -0.15383,-0.4988 0,-0.65263 0.43636,-0.43636 0.8689,0.43637 1.30526,0 0.15383,-0.15382 -0.15383,-0.4988 0,-0.65263 0.15383,-0.15382 0.49881,0.15383 0.65263,0 0.15383,-0.15382 -0.15382,-0.4988 0,-0.65263 1.35032,-1.35031 -0.0528,2.06346 1.30526,-0.65263 0.0973,-0.19458 -0.15382,-0.4988 0,-0.65263 0.15383,-0.15383 0.45806,0.0973 0.65263,0 0.64221,-0.3211 1.96832,-2.28942 2.61053,-2.61052 0.19457,-0.0973 0.4988,0.15382 0.65263,0 0.15382,-0.15383 -0.15383,-0.49881 0,-0.65263 0.15382,-0.15383 0.45805,0.0973 0.65263,0 0.27517,-0.13759 0.37746,-0.51505 0.65263,-0.65263 0.19458,-0.0973 0.4988,0.15382 0.65263,0 0.15383,-0.15383 -0.15383,-0.49881 0,-0.65263 0.15383,-0.15383 0.45805,0.0973 0.65263,0 0.27517,-0.13759 0.37746,-0.51505 0.65263,-0.65264 0.38915,-0.19457 0.99761,0.30766 1.30526,0 0.15383,-0.15382 -0.15382,-0.4988 0,-0.65263 0.0296,-0.0296 2.95544,0 3.26316,0 0.34127,0 2.43892,-0.0858 2.61052,0 2.71609,1.35805 -0.69769,-0.045 0.65263,1.30527 0.15383,0.15382 0.4988,-0.15383 0.65263,0 0.13342,0.13342 -0.12938,1.69912 0,1.95789 0.13759,0.27517 0.51504,0.37745 0.65263,0.65263 0.19458,0.38915 -0.19458,0.91611 0,1.30526 0.13759,0.27517 0.51505,0.37746 0.65263,0.65263 0.0973,0.19458 -0.15382,0.4988 0,0.65263 0.15383,0.15383 0.49881,-0.15383 0.65263,0 0.30766,0.30765 -0.30765,0.99761 0,1.30526 0.15383,0.15383 0.43509,0 0.65263,0 L 160,782.36215"
         style="fill:none;fill-rule:evenodd;stroke:#00f900;stroke-width:1px;stroke-linecap:butt;stroke-linejoin:miter;stroke-opacity:1" />
      <path
         inkscape:connector-curvature="0"
         id="path4154"
         d="m 75,802.36215 5,-10 15,0 5,10 15,0 5,-10 20,0 5,10 15,0 0,0 0,0 0,0"
         style="fill:none;fill-rule:evenodd;stroke:#c10000;stroke-width:1px;stroke-linecap:butt;stroke-linejoin:miter;stroke-opacity:1" />
      <circle
         r="5"
         cy="796.67767"
         cx="193.66801"
         id="path4156"
         style="fill:#b3b3b3;fill-opacity:1;stroke:#c10000;stroke-width:0.40000001;stroke-miterlimit:4;stroke-dasharray:none;stroke-opacity:1" />
      <circle
         r="2.5"
         cy="785.18585"
         cx="205.23361"
         id="path4158"
         style="fill:#b3b3b3;fill-opacity:1;stroke:#c10000;stroke-width:0.40000001;stroke-miterlimit:4;stroke-dasharray:none;stroke-opacity:1" />
      <g
         id="g4186">
        <rect
           style="fill:#b3b3b3;fill-opacity:1;stroke:#c10000;stroke-width:0.40000001;stroke-miterlimit:4;stroke-dasharray:none;stroke-opacity:1"
           id="rect4160"
           width="5"
           height="5"
           x="190"
           y="752.36212" />
        <rect
           style="fill:#b3b3b3;fill-opacity:1;stroke:#c10000;stroke-width:0.40000001;stroke-miterlimit:4;stroke-dasharray:none;stroke-opacity:1"
           id="rect4162"
           width="5"
           height="5"
           x="200"
           y="752.36212" />
        <rect
           style="fill:#b3b3b3;fill-opacity:1;stroke:#c10000;stroke-width:0.40000001;stroke-miterlimit:4;stroke-dasharray:none;stroke-opacity:1"
           id="rect4164"
           width="5"
           height="5"
           x="210"
           y="752.36212" />
      </g>
      <g
         id="g4207">
        <rect
           style="fill:#b3b3b3;fill-opacity:1;stroke:#c10000;stroke-width:0.40000001;stroke-miterlimit:4;stroke-dasharray:none;stroke-opacity:1"
           id="rect4166"
           width="10"
           height="10"
           x="225"
           y="752.36212" />
        <rect
           style="fill:#b3b3b3;fill-opacity:1;stroke:#c10000;stroke-width:0.40000001;stroke-miterlimit:4;stroke-dasharray:none;stroke-opacity:1"
           id="rect4168"
           width="10"
           height="10"
           x="240"
           y="752.36212" />
        <rect
           style="fill:#b3b3b3;fill-opacity:1;stroke:#c10000;stroke-width:0.40000001;stroke-miterlimit:4;stroke-dasharray:none;stroke-opacity:1"
           id="rect4170"
           width="10"
           height="10"
           x="255"
           y="752.36212" />
      </g>
      <rect
         y="752.36212"
         x="165"
         height="5"
         width="5"
         id="rect4172"
         style="fill:#b3b3b3;fill-opacity:1;stroke:#c10000;stroke-width:0.40000001;stroke-miterlimit:4;stroke-dasharray:none;stroke-opacity:1" />
      <rect
         y="762.36212"
         x="165"
         height="5"
         width="5"
         id="rect4174"
         style="fill:#b3b3b3;fill-opacity:1;stroke:#c10000;stroke-width:0.40000001;stroke-miterlimit:4;stroke-dasharray:none;stroke-opacity:1" />
      <rect
         y="772.36212"
         x="165"
         height="5"
         width="5"
         id="rect4176"
         style="fill:#b3b3b3;fill-opacity:1;stroke:#c10000;stroke-width:0.40000001;stroke-miterlimit:4;stroke-dasharray:none;stroke-opacity:1" />
      <rect
         y="782.36212"
         x="165"
         height="5"
         width="5"
         id="rect4178"
         style="fill:#b3b3b3;fill-opacity:1;stroke:#c10000;stroke-width:0.40000001;stroke-miterlimit:4;stroke-dasharray:none;stroke-opacity:1" />
      <rect
         y="792.36212"
         x="165"
         height="5"
         width="5"
         id="rect4180"
         style="fill:#b3b3b3;fill-opacity:1;stroke:#c10000;stroke-width:0.40000001;stroke-miterlimit:4;stroke-dasharray:none;stroke-opacity:1" />
      <rect
         y="802.36212"
         x="165"
         height="5"
         width="5"
         id="rect4182"
         style="fill:#b3b3b3;fill-opacity:1;stroke:#c10000;stroke-width:0.40000001;stroke-miterlimit:4;stroke-dasharray:none;stroke-opacity:1" />
      <rect
         y="812.36212"
         x="60"
         height="10"
         width="15"
         id="rect4184"
         style="fill:#b3b3b3;fill-opacity:1;stroke:#c10000;stroke-width:0.40000001;stroke-miterlimit:4;stroke-dasharray:none;stroke-opacity:1" />
      <g
         transform="translate(0,10.036901)"
         id="g4191">
        <rect
           y="752.36212"
           x="190"
           height="5"
           width="5"
           id="rect4193"
           style="fill:#b3b3b3;fill-opacity:1;stroke:#c10000;stroke-width:0.40000001;stroke-miterlimit:4;stroke-dasharray:none;stroke-opacity:1" />
        <rect
           y="752.36212"
           x="200"
           height="5"
           width="5"
           id="rect4195"
           style="fill:#b3b3b3;fill-opacity:1;stroke:#c10000;stroke-width:0.40000001;stroke-miterlimit:4;stroke-dasharray:none;stroke-opacity:1" />
        <rect
           y="752.36212"
           x="210"
           height="5"
           width="5"
           id="rect4197"
           style="fill:#b3b3b3;fill-opacity:1;stroke:#c10000;stroke-width:0.40000001;stroke-miterlimit:4;stroke-dasharray:none;stroke-opacity:1" />
      </g>
      <g
         id="g4199"
         transform="matrix(0.999513,0,0,1.0623192,0.09861811,-26.806702)">
        <rect
           style="fill:#b3b3b3;fill-opacity:1;stroke:#c10000;stroke-width:0.40000001;stroke-miterlimit:4;stroke-dasharray:none;stroke-opacity:1"
           id="rect4201"
           width="5"
           height="5"
           x="190"
           y="752.36212" />
        <rect
           style="fill:#b3b3b3;fill-opacity:1;stroke:#c10000;stroke-width:0.40000001;stroke-miterlimit:4;stroke-dasharray:none;stroke-opacity:1"
           id="rect4203"
           width="5"
           height="5"
           x="200"
           y="752.36212" />
        <rect
           style="fill:#b3b3b3;fill-opacity:1;stroke:#c10000;stroke-width:0.40000001;stroke-miterlimit:4;stroke-dasharray:none;stroke-opacity:1"
           id="rect4205"
           width="5"
           height="5"
           x="210"
           y="752.36212" />
      </g>
      <g
         transform="translate(0,20.073801)"
         id="g4212">
        <rect
           y="752.36212"
           x="225"
           height="10"
           width="10"
           id="rect4214"
           style="fill:#b3b3b3;fill-opacity:1;stroke:#c10000;stroke-width:0.40000001;stroke-miterlimit:4;stroke-dasharray:none;stroke-opacity:1" />
        <rect
           y="752.36212"
           x="240"
           height="10"
           width="10"
           id="rect4216"
           style="fill:#b3b3b3;fill-opacity:1;stroke:#c10000;stroke-width:0.40000001;stroke-miterlimit:4;stroke-dasharray:none;stroke-opacity:1" />
        <rect
           y="752.36212"
           x="255"
           height="10"
           width="10"
           id="rect4218"
           style="fill:#b3b3b3;fill-opacity:1;stroke:#c10000;stroke-width:0.40000001;stroke-miterlimit:4;stroke-dasharray:none;stroke-opacity:1" />
      </g>
      <g
         id="g4220"
         transform="translate(0.32377099,40.147602)">
        <rect
           style="fill:#b3b3b3;fill-opacity:1;stroke:#c10000;stroke-width:0.40000001;stroke-miterlimit:4;stroke-dasharray:none;stroke-opacity:1"
           id="rect4222"
           width="10"
           height="10"
           x="225"
           y="752.36212" />
        <rect
           style="fill:#b3b3b3;fill-opacity:1;stroke:#c10000;stroke-width:0.40000001;stroke-miterlimit:4;stroke-dasharray:none;stroke-opacity:1"
           id="rect4224"
           width="10"
           height="10"
           x="240"
           y="752.36212" />
        <rect
           style="fill:#b3b3b3;fill-opacity:1;stroke:#c10000;stroke-width:0.40000001;stroke-miterlimit:4;stroke-dasharray:none;stroke-opacity:1"
           id="rect4226"
           width="10"
           height="10"
           x="255"
           y="752.36212" />
      </g>
      <ellipse
         ry="3.7578745"
         rx="3.595989"
         style="fill:#b37b49;fill-opacity:1;stroke:#e9e300;stroke-width:0.29408327;stroke-miterlimit:4;stroke-dasharray:none;stroke-opacity:1"
         id="circle4228"
         cx="188.97333"
         cy="817.72278" />
      <ellipse
         cy="817.72278"
         cx="208.39958"
         id="ellipse4230"
         style="fill:#b37b49;fill-opacity:1;stroke:#e9e300;stroke-width:0.29408327;stroke-miterlimit:4;stroke-dasharray:none;stroke-opacity:1"
         rx="3.595989"
         ry="3.7578745" />
      <ellipse
         ry="3.7578745"
         rx="3.595989"
         style="fill:#b37b49;fill-opacity:1;stroke:#e9e300;stroke-width:0.29408327;stroke-miterlimit:4;stroke-dasharray:none;stroke-opacity:1"
         id="ellipse4232"
         cx="227.82584"
         cy="817.72278" />
      <ellipse
         cy="817.39899"
         cx="247.25209"
         id="ellipse4234"
         style="fill:#b37b49;fill-opacity:1;stroke:#e9e300;stroke-width:0.29408327;stroke-miterlimit:4;stroke-dasharray:none;stroke-opacity:1"
         rx="3.595989"
         ry="3.7578745" />
      <ellipse
         ry="3.7578745"
         rx="3.595989"
         style="fill:#b37b49;fill-opacity:1;stroke:#e9e300;stroke-width:0.29408327;stroke-miterlimit:4;stroke-dasharray:none;stroke-opacity:1"
         id="ellipse4236"
         cx="247.25209"
         cy="817.72278" />
    </g>
    <path
       style="fill:#999999;fill-rule:evenodd;stroke:#000000;stroke-width:0.30000001;stroke-linecap:butt;stroke-linejoin:miter;stroke-miterlimit:4;stroke-dasharray:none;stroke-opacity:1"
       d="m 181.42226,849.03477 -16.66503,-7.93104 0,16.79803 17,8 0,-17 z"
       id="path4292"
       inkscape:connector-curvature="0"
       sodipodi:nodetypes="cccccc" />
    <path
       style="fill:#b3b3b3;fill-opacity:1;fill-rule:evenodd;stroke:#000000;stroke-width:0.30000001;stroke-linecap:butt;stroke-linejoin:miter;stroke-miterlimit:4;stroke-dasharray:none;stroke-opacity:1"
       d="m 164.89024,841.03477 46.86699,-33.13301 14,4 -44,37 z"
       id="path4294"
       inkscape:connector-curvature="0"
       sodipodi:nodetypes="ccccc" />
    <path
       style="fill:none;fill-rule:evenodd;stroke:#000000;stroke-width:1px;stroke-linecap:butt;stroke-linejoin:miter;stroke-opacity:1"
       d="m 198.75723,876.90176 -13,15 19,0 12,-15 z"
       id="path4296"
       inkscape:connector-curvature="0" />
    <path
       style="fill:none;fill-rule:evenodd;stroke:#000000;stroke-width:1px;stroke-linecap:butt;stroke-linejoin:miter;stroke-opacity:1"
       d="m 203.75723,891.90176 0,7 -17,-2 0,-5 z"
       id="path4298"
       inkscape:connector-curvature="0" />
    <path
       style="fill:none;fill-rule:evenodd;stroke:#000000;stroke-width:1px;stroke-linecap:butt;stroke-linejoin:miter;stroke-opacity:1"
       d="m 203.75723,897.90176 12,-13 1,-7 -13,14 z"
       id="path4300"
       inkscape:connector-curvature="0" />
    <circle
       style="fill:#333333;fill-opacity:1;stroke:#e9e300;stroke-width:0.30000001;stroke-miterlimit:4;stroke-dasharray:none;stroke-opacity:1"
       id="path4302"
       cx="173.25723"
       cy="909.40173"
       r="5.5" />
    <circle
       style="fill:#333333;fill-opacity:1;stroke:#e9e300;stroke-width:0.30000001;stroke-miterlimit:4;stroke-dasharray:none;stroke-opacity:1"
       id="path4304"
       cx="197.25723"
       cy="911.40173"
       r="4.5" />
    <path
       style="fill:#008000;fill-rule:evenodd;stroke:#000000;stroke-width:1px;stroke-linecap:butt;stroke-linejoin:miter;stroke-opacity:1"
       d="m 224.75723,855.90176 -13,9 14,5 13,-10 z"
       id="path4306"
       inkscape:connector-curvature="0" />
    <path
       style="fill:none;fill-rule:evenodd;stroke:#000000;stroke-width:1px;stroke-linecap:butt;stroke-linejoin:miter;stroke-opacity:1"
       d="m 218.75723,863.90176 6,0"
       id="path4308"
       inkscape:connector-curvature="0" />
    <path
       style="fill:none;fill-rule:evenodd;stroke:#000000;stroke-width:1px;stroke-linecap:butt;stroke-linejoin:miter;stroke-opacity:1"
       d="m 224.75723,866.90176 4,-7"
       id="path4310"
       inkscape:connector-curvature="0" />
    <path
       style="fill:none;fill-rule:evenodd;stroke:#000000;stroke-width:1px;stroke-linecap:butt;stroke-linejoin:miter;stroke-opacity:1"
       d="m 235.75723,861.90176 -12,-2"
       id="path4312"
       inkscape:connector-curvature="0" />
    <path
       style="fill:none;fill-rule:evenodd;stroke:#000000;stroke-width:1px;stroke-linecap:butt;stroke-linejoin:miter;stroke-opacity:1"
       d="m 106.79027,922.1813 0,11 16,0 1,-11 z"
       id="path4314"
       inkscape:connector-curvature="0" />
    <path
       style="fill:none;fill-rule:evenodd;stroke:#000000;stroke-width:1px;stroke-linecap:butt;stroke-linejoin:miter;stroke-opacity:1"
       d="m 105.79027,922.1813 16,-15 14,0 -12,14 z"
       id="path4316"
       inkscape:connector-curvature="0" />
    <path
       style="fill:none;fill-rule:evenodd;stroke:#000000;stroke-width:1px;stroke-linecap:butt;stroke-linejoin:miter;stroke-opacity:1"
       d="m 123.79027,933.1813 11,-14 0,-10 -12,12 z"
       id="path4318"
       inkscape:connector-curvature="0" />
    <path
       style="fill:none;fill-rule:evenodd;stroke:#000000;stroke-width:1px;stroke-linecap:butt;stroke-linejoin:miter;stroke-opacity:1"
       d="m 127.97153,903.87427 9.46486,-6.81874 2.27496,-3.26018 9.07892,-4.61405 2.18126,4.87423 -9.20468,4.38595 -3.69298,0.22811 z"
       id="path4320"
       inkscape:connector-curvature="0"
       sodipodi:nodetypes="cccccccc" />
    <path
       style="fill:none;fill-rule:evenodd;stroke:#000000;stroke-width:1px;stroke-linecap:butt;stroke-linejoin:miter;stroke-opacity:1"
       d="m 149.79027,892.1813 c 1.69945,0.0421 3.39936,0.0318 5.09911,0.0318 0.1906,0 0.43702,-0.13478 0.57179,0 0.26955,0.26954 -0.17047,0.80263 0,1.14358 0.12055,0.24109 0.45125,0.3307 0.57179,0.57179 0.0391,0.0781 0.0391,3.35266 0,3.43075 -0.12054,0.24109 -0.45124,0.3307 -0.57179,0.57179 -0.19748,0.39496 0.20071,2.65825 0,2.85896 -0.13477,0.13477 -0.43702,-0.13477 -0.57179,0 -0.2859,0.2859 0.2859,1.42948 0,1.71538 -0.13477,0.13477 -0.43702,-0.13478 -0.57179,0 -0.0259,0.0259 0,2.58935 0,2.85895 0,0.20999 -0.023,2.26416 0,2.28717 0.13477,0.13477 0.40132,-0.0852 0.57179,0 0.24109,0.12054 0.38119,0.38119 0.57179,0.57179 0.1906,0.1906 0.45125,0.3307 0.57179,0.57179 0.0852,0.17048 -0.13477,0.43702 0,0.57179 0.13478,0.13478 0.43702,-0.13477 0.5718,0 0.13477,0.13478 -0.0852,0.40132 0,0.5718 0.12054,0.24108 0.38119,0.38119 0.57179,0.57179 0.19059,0.1906 0.3307,0.45125 0.57179,0.57179 0.17047,0.0852 0.48655,-0.17048 0.57179,0 0.17048,0.34095 -0.17048,0.80263 0,1.14358 0.0852,0.17048 0.40132,-0.0852 0.57179,0 0.24109,0.12055 0.45125,0.33071 0.57179,0.57179 0.0852,0.17048 -0.0852,0.40132 0,0.5718 0.12055,0.24108 0.45125,0.3307 0.5718,0.57179 0.0852,0.17047 -0.13478,0.43702 0,0.57179 0.13477,0.13477 0.43701,-0.13477 0.57179,0 0,1.52478 -0.1906,-0.1906 0.57179,0.57179 0.13477,0.13477 -0.13477,0.43702 0,0.57179 0.13477,0.13477 0.43702,-0.13477 0.57179,0 0.26955,0.26955 -0.26955,0.87404 0,1.14359 0.13477,0.13477 0.43702,-0.13478 0.57179,0 0.26955,0.26954 -0.17047,0.80263 0,1.14358 0.12055,0.24109 0.45125,0.3307 0.57179,0.57179 0.10339,0.20678 0,2.46125 0,2.85896 0,0.2696 0.0259,2.83304 0,2.85896 -0.13477,0.13477 -0.43702,-0.13478 -0.57179,0 -0.13477,0.13477 0.13477,0.43702 0,0.57179 -0.13477,0.13477 -0.43702,-0.13477 -0.57179,0 -0.13477,0.13477 0.13477,0.43702 0,0.57179 -0.13477,0.13477 -0.38119,0 -0.57179,0 0,0.1906 0.13477,0.43702 0,0.57179 -0.26955,0.26955 -0.87404,-0.26954 -1.14358,0 -0.13478,0.13477 0.13477,0.43702 0,0.57179 -0.023,0.023 -2.07719,0 -2.28717,0 -0.1906,0 -0.3812,0 -0.57179,0 -0.1906,0 -0.43702,0.13478 -0.57179,0 -0.13478,-0.13477 0.13477,-0.43702 0,-0.57179 -0.26955,-0.26954 -0.80264,0.17048 -1.14359,0 -0.48217,-0.24109 -0.6614,-0.90249 -1.14358,-1.14358 -0.17048,-0.0852 -0.43702,0.13477 -0.57179,0 -0.13478,-0.13477 0.13477,-0.43702 0,-0.57179 -0.13478,-0.13478 -0.43702,0.13477 -0.57179,0 -0.13478,-0.13478 0.13477,-0.43702 0,-0.5718 -0.13478,-0.13477 -0.43702,0.13478 -0.5718,0 -0.76238,-0.76238 0.95299,-0.57179 -0.57179,-0.57179 -1.52478,0 0.1906,0.1906 -0.57179,-0.57179 -0.13477,-0.13477 -0.38119,0 -0.57179,0 -0.20998,0 -2.26416,-0.023 -2.28717,0 -0.13477,0.13477 0.13478,0.43702 0,0.57179 -0.13477,0.13478 -0.40131,-0.0852 -0.57179,0 -0.24109,0.12055 -0.3307,0.45125 -0.57179,0.57179 -0.17048,0.0852 -0.43702,-0.13477 -0.57179,0 -0.13477,0.13478 0.13477,0.43702 0,0.5718 -0.13477,0.13477 -0.40132,-0.0852 -0.57179,0 -0.48218,0.24109 -0.66141,0.90249 -1.14359,1.14358 -0.17047,0.0852 -0.43702,-0.13477 -0.57179,0 -0.13477,0.13477 0.0852,0.40132 0,0.57179 -0.12054,0.24109 -0.38119,0.3812 -0.57179,0.57179 -0.1906,0.1906 -0.45125,0.33071 -0.57179,0.57179 -0.17048,0.34096 0.26954,0.87404 0,1.14359 -0.13477,0.13477 -0.43702,-0.13477 -0.57179,0 -0.13478,0.13477 -0.13478,0.43702 0,0.57179 0.0259,0.0259 2.58936,0 2.85895,0 3.81195,0 7.62389,0 11.43584,0 0.13867,0 1.69698,-0.0184 1.71537,0 0.13477,0.13477 -0.13477,0.43702 0,0.57179 0.0184,0.0184 1.5767,0 1.71538,0 0.95298,0 1.90597,0 2.85895,0 0.1906,0 0.43702,-0.13477 0.5718,0 0.13477,0.13477 0,0.3812 0,0.57179 0,0.25751 0.087,1.54136 0,1.71538 -0.63213,1.26426 -0.35488,0.17744 -1.14359,0.57179 -0.48217,0.24109 -0.6614,0.90249 -1.14358,1.14358 -0.34095,0.17048 -0.80263,-0.17047 -1.14358,0 -0.24109,0.12055 -0.33071,0.45125 -0.57179,0.57179 -0.17048,0.0852 -0.3812,0 -0.5718,0 -0.19059,0 -0.38119,0 -0.57179,0 -0.95298,0 -1.90597,0 -2.85896,0 -2.47776,0 -4.95552,0 -7.43329,0 -0.40528,0 -3.28291,0.0739 -3.43075,0 -0.24109,-0.12054 -0.3307,-0.45124 -0.57179,-0.57179 -0.17047,-0.0852 -0.40131,0.0852 -0.57179,0 -0.24109,-0.12054 -0.3307,-0.45124 -0.57179,-0.57179 -0.34095,-0.17047 -0.87404,0.26955 -1.14358,0 -0.13478,-0.13477 0.13477,-0.43702 0,-0.57179 -0.26955,-0.26955 -0.87404,0.26954 -1.14359,0 -0.13477,-0.13477 0.13477,-0.43702 0,-0.57179 -0.26954,-0.26955 -0.87404,0.26954 -1.14358,0 -0.13477,-0.13478 0.13477,-0.43702 0,-0.57179 -0.2859,-0.2859 -1.42948,0.28589 -1.71538,0 -0.13477,-0.13478 0.13478,-0.43702 0,-0.5718 -0.13477,-0.13477 -0.38119,0 -0.57179,0 -0.3977,0 -2.65218,0.10339 -2.85896,0 -0.24108,-0.12054 -0.3307,-0.45124 -0.57179,-0.57179 -0.17047,-0.0852 -0.38119,0 -0.57179,0 -0.1906,0 -0.38119,0 -0.57179,0 -0.95299,0 -1.90597,0 -2.85896,0 -0.76239,0 -1.52478,0 -2.28717,0 -0.56362,0 -1.7072,0 -1.14358,0 0.3812,0 1.14358,0.3812 1.14358,0 0,-1.17851 -1.97152,-0.25615 -2.28716,-0.57179 -0.13477,-0.13477 0.13477,-0.43702 0,-0.57179 -0.13477,-0.13477 -0.3812,0 -0.57179,0 -0.1906,0 -0.43842,-0.13616 -0.57179,0 -0.0995,0.10156 0.13723,0.24905 0.20584,0.37357"
       id="path4322"
       inkscape:connector-curvature="0" />
  </g>
</svg>
