<?xml version="1.0" encoding="UTF-8" standalone="no"?>
<!-- Created with Inkscape (http://www.inkscape.org/) -->

<svg
   xmlns:dc="http://purl.org/dc/elements/1.1/"
   xmlns:cc="http://creativecommons.org/ns#"
   xmlns:rdf="http://www.w3.org/1999/02/22-rdf-syntax-ns#"
   xmlns:svg="http://www.w3.org/2000/svg"
   xmlns="http://www.w3.org/2000/svg"
   xmlns:xlink="http://www.w3.org/1999/xlink"
   xmlns:sodipodi="http://sodipodi.sourceforge.net/DTD/sodipodi-0.dtd"
   xmlns:inkscape="http://www.inkscape.org/namespaces/inkscape"
   width="3in"
   height="5in"
   viewBox="0 0 270 450.00001"
   id="svg4284"
   version="1.1"
   inkscape:version="0.91 r13725"
   sodipodi:docname="Artist.svg">
  <defs
     id="defs4286">
    <inkscape:path-effect
       effect="spiro"
       id="path-effect4834"
       is_visible="true" />
  </defs>
  <sodipodi:namedview
     id="base"
     pagecolor="#ffffff"
     bordercolor="#666666"
     borderopacity="1.0"
     inkscape:pageopacity="0.0"
     inkscape:pageshadow="2"
     inkscape:zoom="1.7488889"
     inkscape:cx="135"
     inkscape:cy="225"
     inkscape:document-units="px"
     inkscape:current-layer="layer1"
     showgrid="false"
     inkscape:window-width="1920"
     inkscape:window-height="982"
     inkscape:window-x="0"
     inkscape:window-y="28"
     inkscape:window-maximized="1"
     units="in" />
  <metadata
     id="metadata4289">
    <rdf:RDF>
      <cc:Work
         rdf:about="">
        <dc:format>image/svg+xml</dc:format>
        <dc:type
           rdf:resource="http://purl.org/dc/dcmitype/StillImage" />
        <dc:title></dc:title>
      </cc:Work>
    </rdf:RDF>
  </metadata>
  <g
     inkscape:label="Layer 1"
     inkscape:groupmode="layer"
     id="layer1"
     transform="translate(0,-602.36215)">
    <path
       style="fill:none;fill-rule:evenodd;stroke:#000000;stroke-width:1px;stroke-linecap:butt;stroke-linejoin:miter;stroke-opacity:1"
       d="m 38.470789,1048.6392 c 31.370399,-21.0775 55.686763,-52.46767 68.254621,-88.11049 13.77121,-39.05555 13.44068,-81.44651 13.65093,-122.85832 0.19957,-39.30799 1.02704,-78.6128 2.48198,-117.89436"
       id="path4832"
       inkscape:path-effect="#path-effect4834"
       inkscape:original-d="m 38.470789,1048.6392 c 0,0 54.30636,-53.67671 68.254621,-88.11049 15.47001,-38.19049 11.00187,-82.68977 13.65093,-122.85832 2.64906,-40.16855 2.48198,-117.89436 2.48198,-117.89436"
       inkscape:connector-curvature="0"
       sodipodi:nodetypes="cszc" />
    <path
       style="fill:none;fill-rule:evenodd;stroke:#000000;stroke-width:1px;stroke-linecap:butt;stroke-linejoin:miter;stroke-opacity:1"
       d="m 181.185,1054.8442 c 0,0 -68.50917,-126.28091 -60.80866,-188.63097 7.70051,-62.35006 2.48198,-147.67819 2.48198,-147.67819"
       id="path4836"
       inkscape:connector-curvature="0"
       sodipodi:nodetypes="czc" />
    <path
       style="fill:none;fill-rule:evenodd;stroke:#000000;stroke-width:1px;stroke-linecap:butt;stroke-linejoin:miter;stroke-opacity:1"
       d="m 34.747809,802.92258 c 0,0 19.210802,-62.29314 44.67575,-78.18257 22.355631,-13.9493 51.630391,-14.01462 78.889781,-5.06139 27.59552,9.06364 -69.519011,57.14479 -69.519011,57.14479"
       id="path4838"
       inkscape:connector-curvature="0"
       sodipodi:nodetypes="casc" />
    <ellipse
       style="fill:none;fill-opacity:1;stroke:#000000;stroke-opacity:1"
       id="path4840"
       cx="125.96082"
       cy="672.61829"
       rx="40.332279"
       ry="42.193768" />
    <path
       style="fill:none;fill-rule:evenodd;stroke:#000000;stroke-width:1px;stroke-linecap:butt;stroke-linejoin:miter;stroke-opacity:1"
       d="m 114.51567,691.04548 c 0,0 4.66546,2.25165 7.45887,2.41316 2.79341,0.16151 8.77515,-1.75502 8.77515,-1.75502"
       id="path4138"
       inkscape:connector-curvature="0"
       sodipodi:nodetypes="czc" />
    <ellipse
       style="fill:none;fill-opacity:1;stroke:#000000;stroke-width:0.498;stroke-miterlimit:4;stroke-dasharray:none;stroke-opacity:1"
       id="path4140"
       cx="114.95442"
       cy="664.61035"
       rx="3.2906802"
       ry="3.4003694" />
    <ellipse
       ry="3.4003694"
       rx="3.2906802"
       cy="664.39099"
       cx="135.57602"
       id="ellipse4142"
       style="fill:none;fill-opacity:1;stroke:#000000;stroke-width:0.498;stroke-miterlimit:4;stroke-dasharray:none;stroke-opacity:1" />
    <path
       style="fill:#008000;fill-opacity:1;stroke:none;stroke-width:3;stroke-miterlimit:4;stroke-dasharray:none;stroke-opacity:1"
       id="path5996"
       d="m 71.651747,760.53587 c -0.146166,-1.48118 -0.580383,-2.91211 -0.834638,-4.37704 -0.197703,-1.21544 -0.23877,-2.44716 -0.261226,-3.67589 0.02684,-1.07535 -0.175336,-2.13104 -0.5207,-3.14397 -0.201158,-0.56641 -0.59927,-0.64213 -1.09264,-0.83519 -0.273291,-0.10694 -0.531506,-0.25001 -0.804772,-0.35701 -0.924948,-0.32722 -1.919288,-0.21365 -2.856085,-0.45623 -1.074599,-0.49853 -1.35962,-1.55647 -1.520906,-2.63589 -0.09014,-1.06902 -0.153489,-2.15129 0.01038,-3.21548 0.388409,-3.07578 0.01941,-0.74931 7.760738,-3.92924 0.05165,-0.0212 0.361082,1.48188 0.410537,1.66948 0.256896,0.94958 0.298388,1.93078 0.540806,2.88253 0.159884,0.92654 0.520451,1.79344 0.752985,2.7007 0.237671,1.07016 0.268153,2.16956 0.293923,3.26098 0.01734,1.14411 0.01198,2.28841 0.0099,3.4326 -0.07267,0.97629 0.02351,1.87243 0.4277,2.75998 0.433736,0.56782 1.204824,0.8845 1.877715,1.10399 0.790933,0.19811 1.610058,0.21878 2.420628,0.24479 0,0 -6.888123,4.95198 -6.888123,4.95198 l 0,0 c -0.878266,-0.0594 -1.765163,-0.13267 -2.592108,-0.4604 -0.854824,-0.38529 -1.734782,-0.81712 -2.221497,-1.65829 -0.458218,-0.99466 -0.68178,-1.98824 -0.579577,-3.0942 0.0022,-1.13841 0.0073,-2.27686 -0.0034,-3.41524 -0.01664,-1.03186 -0.02885,-2.07107 -0.220131,-3.08862 -0.211234,-0.91023 -0.600443,-1.7627 -0.746998,-2.68921 -0.25372,-0.95031 -0.329354,-1.91363 -0.542466,-2.87253 -0.0359,-0.12891 -0.453936,-1.34884 -0.314074,-1.42917 6.798632,-3.90484 10.227689,-4.79708 7.304978,-4.02455 -0.416308,0.91258 -0.201833,1.94598 -0.187929,2.91914 0.0774,0.73417 0.113446,1.55562 0.972945,1.72747 1.001658,0.12146 2.024208,0.17615 2.960209,0.59502 0.932561,0.41417 1.853004,0.78642 2.261054,1.81036 0.374796,1.08878 0.645944,2.22842 0.635378,3.3869 0.01108,1.19303 0.02855,2.38931 0.187838,3.57372 0.221963,1.47446 0.623792,2.90718 0.872221,4.37533 0,0 -7.5127,3.96318 -7.5127,3.96318 z"
       inkscape:connector-curvature="0" />
    <path
       style="fill:none;fill-rule:evenodd;stroke:#997676;stroke-width:8;stroke-linecap:butt;stroke-linejoin:miter;stroke-opacity:1;stroke-miterlimit:4;stroke-dasharray:none"
       d="m 74.904701,758.46126 46.315119,75.47649 0,0 -1.14358,-0.57179"
       id="path5998"
       inkscape:connector-curvature="0" />
    <path
       style="fill:#000000;fill-rule:evenodd;stroke:#000000;stroke-width:1px;stroke-linecap:butt;stroke-linejoin:miter;stroke-opacity:1"
       d="m 119.50445,626.37739 c -14.03303,0.54323 -41.740791,5.71792 -41.740791,5.71792 0,0 -2.165457,4.06449 -1.143583,5.71792 2.284978,3.69717 8.304072,2.64868 12.579416,3.43075 13.749268,2.51509 27.775768,4.5912 41.740788,4.00254 12.77431,-0.53847 23.92834,0.8813 34.87929,-5.71792 2.90653,-1.75152 -2.28717,-6.86149 -2.28717,-6.86149 0,0 -9.76427,-3.6531 -14.86658,-4.57433 -9.58233,-1.73011 -19.4314,-2.09204 -29.16137,-1.71539 z"
       id="path6000"
       inkscape:connector-curvature="0"
       sodipodi:nodetypes="scsssscss" />
    <path
       style="fill:none;fill-rule:evenodd;stroke:#000000;stroke-width:1px;stroke-linecap:butt;stroke-linejoin:miter;stroke-opacity:1"
       d="m 121.79161,707.00002 -2.28716,6.86149 0,4.00255"
       id="path6002"
       inkscape:connector-curvature="0" />
    <use
       id="use6398"
       xlink:href="#path6002"
       x="0"
       y="0"
       width="100%"
       height="100%"
       transform="translate(-6.0023463,-5.3099343)" />
    <use
       id="use6400"
       xlink:href="#path6002"
       x="0"
       y="0"
       width="100%"
       height="100%"
       transform="translate(-4.1738897,-3.516496)" />
    <use
       id="use6568"
       xlink:href="#path6002"
       x="0"
       y="0"
       width="100%"
       height="100%"
       transform="translate(7.9929301,-3.3721356)" />
    <use
       id="use6570"
       xlink:href="#path6002"
       x="0"
       y="0"
       width="100%"
       height="100%"
       transform="translate(5.7011524,-0.02325684)" />
    <use
       id="use6572"
       xlink:href="#path6002"
       x="0"
       y="0"
       width="100%"
       height="100%"
       transform="translate(2.5196053,3.2174159)" />
    <use
       id="use6574"
       xlink:href="#path6002"
       x="0"
       y="0"
       width="100%"
       height="100%"
       transform="translate(3.3995021,-4.9793489)" />
    <use
       id="use6576"
       xlink:href="#path6002"
       x="0"
       y="0"
       width="100%"
       height="100%"
       transform="translate(-0.00753853,-7.6877582)" />
    <use
       id="use6578"
       xlink:href="#path6002"
       x="0"
       y="0"
       width="100%"
       height="100%"
       transform="translate(-2.9941219,-3.4348505)" />
    <use
       id="use6580"
       xlink:href="#path6002"
       x="0"
       y="0"
       width="100%"
       height="100%"
       transform="translate(-2.9523225,0.95320602)" />
    <path
       style="fill:none;fill-rule:evenodd;stroke:#000000;stroke-width:1px;stroke-linecap:butt;stroke-linejoin:miter;stroke-opacity:1"
       d="m 37.166455,787.62263 c -5.469493,-0.81989 -12.046259,-2.59286 -16.581957,0.57179 -9.11439,6.3593 -13.8156344,19.83209 -12.5794154,30.87675 1.8879589,16.86746 12.6850374,37.66576 29.1613724,41.74079 13.322887,3.2951 29.925344,-6.87424 36.594663,-18.86912 6.968731,-12.53338 5.353507,-31.54922 -3.43075,-42.88437 -7.162807,-9.24284 -21.599706,-9.70233 -33.163913,-11.43584 z"
       id="path6582"
       inkscape:connector-curvature="0"
       sodipodi:nodetypes="sssssss" />
    <path
       style="fill:#ffff00;fill-rule:evenodd;stroke:none;stroke-width:1px;stroke-linecap:butt;stroke-linejoin:miter;stroke-opacity:1"
       d="m 24.587039,797.34309 -5.146124,4.57433 8.005082,4.57434 4.002542,-4.57434 z"
       id="path6584"
       inkscape:connector-curvature="0" />
    <path
       style="fill:#d45500;fill-rule:evenodd;stroke:none;stroke-width:1px;stroke-linecap:butt;stroke-linejoin:miter;stroke-opacity:1"
       d="m 19.440915,820.78655 9.720457,4.57433 -4.002541,4.57433 -9.148666,-0.57179 z"
       id="path6586"
       inkscape:connector-curvature="0" />
    <path
       style="fill:#ff00ff;fill-rule:evenodd;stroke:none;stroke-width:1px;stroke-linecap:butt;stroke-linejoin:miter;stroke-opacity:1"
       d="m 36.594663,808.77892 -0.571791,10.29225 10.86404,1.71538 8.005083,-5.14613 z"
       id="path6588"
       inkscape:connector-curvature="0" />
    <path
       style="fill:#0000ff;fill-rule:evenodd;stroke:none;stroke-width:1px;stroke-linecap:butt;stroke-linejoin:miter;stroke-opacity:1"
       d="m 64.612452,813.35326 -4.002541,8.57687 5.717916,7.43329 9.148666,-8.57687 z"
       id="path6590"
       inkscape:connector-curvature="0" />
    <path
       style="fill:#ff0000;fill-rule:evenodd;stroke:none;stroke-width:1px;stroke-linecap:butt;stroke-linejoin:miter;stroke-opacity:1"
       d="m 38.88183,834.50955 -6.289708,8.00508 9.720457,6.8615 9.148666,-8.00509 z"
       id="path6592"
       inkscape:connector-curvature="0" />
    <path
       style="fill:#008080;fill-rule:evenodd;stroke:none;stroke-width:1px;stroke-linecap:butt;stroke-linejoin:miter;stroke-opacity:1"
       d="m 47.458704,796.7713 0.571792,10.86404 10.292249,0.57179 4.574333,-4.00254 z"
       id="path6594"
       inkscape:connector-curvature="0" />
  </g>
</svg>
