<?xml version="1.0" encoding="UTF-8" standalone="no"?>
<!-- Created with Inkscape (http://www.inkscape.org/) -->

<svg
   xmlns:dc="http://purl.org/dc/elements/1.1/"
   xmlns:cc="http://creativecommons.org/ns#"
   xmlns:rdf="http://www.w3.org/1999/02/22-rdf-syntax-ns#"
   xmlns:svg="http://www.w3.org/2000/svg"
   xmlns="http://www.w3.org/2000/svg"
   xmlns:xlink="http://www.w3.org/1999/xlink"
   xmlns:sodipodi="http://sodipodi.sourceforge.net/DTD/sodipodi-0.dtd"
   xmlns:inkscape="http://www.inkscape.org/namespaces/inkscape"
   width="3in"
   height="5in"
   viewBox="0 0 270 450.00001"
   id="svg4284"
   version="1.1"
   inkscape:version="0.91 r13725"
   sodipodi:docname="BizGuy.svg">
  <defs
     id="defs4286">
    <inkscape:path-effect
       effect="spiro"
       id="path-effect4834"
       is_visible="true" />
  </defs>
  <sodipodi:namedview
     id="base"
     pagecolor="#ffffff"
     bordercolor="#666666"
     borderopacity="1.0"
     inkscape:pageopacity="0.0"
     inkscape:pageshadow="2"
     inkscape:zoom="1.7488889"
     inkscape:cx="135"
     inkscape:cy="225"
     inkscape:document-units="px"
     inkscape:current-layer="layer1"
     showgrid="false"
     inkscape:window-width="1920"
     inkscape:window-height="982"
     inkscape:window-x="0"
     inkscape:window-y="28"
     inkscape:window-maximized="1"
     units="in" />
  <metadata
     id="metadata4289">
    <rdf:RDF>
      <cc:Work
         rdf:about="">
        <dc:format>image/svg+xml</dc:format>
        <dc:type
           rdf:resource="http://purl.org/dc/dcmitype/StillImage" />
        <dc:title></dc:title>
      </cc:Work>
    </rdf:RDF>
  </metadata>
  <g
     inkscape:label="Layer 1"
     inkscape:groupmode="layer"
     id="layer1"
     transform="translate(0,-602.36215)">
    <path
       style="fill:none;fill-rule:evenodd;stroke:#000000;stroke-width:1px;stroke-linecap:butt;stroke-linejoin:miter;stroke-opacity:1"
       d="m 38.470789,1048.6392 c 31.370399,-21.0775 55.686763,-52.46767 68.254621,-88.11049 13.77121,-39.05555 13.44068,-81.44651 13.65093,-122.85832 0.19957,-39.30799 1.02704,-78.6128 2.48198,-117.89436"
       id="path4832"
       inkscape:path-effect="#path-effect4834"
       inkscape:original-d="m 38.470789,1048.6392 c 0,0 54.30636,-53.67671 68.254621,-88.11049 15.47001,-38.19049 11.00187,-82.68977 13.65093,-122.85832 2.64906,-40.16855 2.48198,-117.89436 2.48198,-117.89436"
       inkscape:connector-curvature="0"
       sodipodi:nodetypes="cszc" />
    <path
       style="fill:none;fill-rule:evenodd;stroke:#000000;stroke-width:1px;stroke-linecap:butt;stroke-linejoin:miter;stroke-opacity:1"
       d="m 181.185,1054.8442 c 0,0 -68.50917,-126.28091 -60.80866,-188.63097 7.70051,-62.35006 2.48198,-147.67819 2.48198,-147.67819"
       id="path4836"
       inkscape:connector-curvature="0"
       sodipodi:nodetypes="czc" />
    <path
       style="fill:none;fill-rule:evenodd;stroke:#000000;stroke-width:1px;stroke-linecap:butt;stroke-linejoin:miter;stroke-opacity:1"
       d="m 34.747809,802.92258 c 0,0 15.754903,-60.04635 41.245,-75.8954 28.859711,-17.94419 61.122361,-11.23969 87.466651,-6.77677 21.40442,3.62608 -104.97009,98.88558 -104.97009,98.88558"
       id="path4838"
       inkscape:connector-curvature="0"
       sodipodi:nodetypes="cssc" />
    <ellipse
       style="fill:none;fill-opacity:1;stroke:#000000;stroke-opacity:1"
       id="path4840"
       cx="125.96082"
       cy="672.61829"
       rx="40.332279"
       ry="42.193768" />
    <path
       style="fill:none;fill-rule:evenodd;stroke:#000000;stroke-width:1px;stroke-linecap:butt;stroke-linejoin:miter;stroke-opacity:1"
       d="m 114.51567,691.04548 c 0,0 4.66546,2.25165 7.45887,2.41316 2.79341,0.16151 8.77515,-1.75502 8.77515,-1.75502"
       id="path4138"
       inkscape:connector-curvature="0"
       sodipodi:nodetypes="czc" />
    <ellipse
       style="fill:none;fill-opacity:1;stroke:#000000;stroke-width:0.498;stroke-miterlimit:4;stroke-dasharray:none;stroke-opacity:1"
       id="path4140"
       cx="114.95442"
       cy="664.61035"
       rx="3.2906802"
       ry="3.4003694" />
    <ellipse
       ry="3.4003694"
       rx="3.2906802"
       cy="664.39099"
       cx="135.57602"
       id="ellipse4142"
       style="fill:none;fill-opacity:1;stroke:#000000;stroke-width:0.498;stroke-miterlimit:4;stroke-dasharray:none;stroke-opacity:1" />
    <path
       style="fill:#ff0000;fill-rule:evenodd;stroke:#df2a2a;stroke-width:6;stroke-linecap:butt;stroke-linejoin:miter;stroke-opacity:1;stroke-miterlimit:4;stroke-dasharray:none"
       d="m 97.204574,719.00764 c 0,0 -3.686175,24.33364 -4.574333,36.59466 -2.038425,28.14045 -1.715374,84.62516 -1.715374,84.62516"
       id="path7214"
       inkscape:connector-curvature="0"
       sodipodi:nodetypes="csc" />
    <path
       style="fill:none;fill-rule:evenodd;stroke:#e41b1b;stroke-width:6;stroke-linecap:butt;stroke-linejoin:miter;stroke-opacity:1;stroke-miterlimit:4;stroke-dasharray:none"
       d="m 149.23761,718.43584 c 0,0 1.48449,26.3063 1.14358,36.59467 -0.96924,29.25039 -7.43329,87.48412 -7.43329,87.48412"
       id="path7216"
       inkscape:connector-curvature="0"
       sodipodi:nodetypes="csc" />
    <path
       style="fill:none;fill-rule:evenodd;stroke:#000000;stroke-width:1px;stroke-linecap:butt;stroke-linejoin:miter;stroke-opacity:1"
       d="m 34.307497,804.77638 24.015248,1.71538 8.576874,26.30241 -41.740788,-3.43075 -6.289708,-25.15883 z"
       id="path7218"
       inkscape:connector-curvature="0" />
    <path
       style="fill:none;fill-rule:evenodd;stroke:#000000;stroke-width:1px;stroke-linecap:butt;stroke-linejoin:miter;stroke-opacity:1"
       d="m 22.631904,807.29096 4.655706,19.5281 5.173007,0.64662 -5.173007,-20.5627 -4.914356,-0.38797 z"
       id="path7220"
       inkscape:connector-curvature="0" />
    <text
       xml:space="preserve"
       style="font-style:normal;font-weight:normal;font-size:2.25px;line-height:125%;font-family:sans-serif;letter-spacing:0px;word-spacing:0px;fill:#000000;fill-opacity:1;stroke:none;stroke-width:1px;stroke-linecap:butt;stroke-linejoin:miter;stroke-opacity:1"
       x="-795.271"
       y="-184.24463"
       id="text7224"
       sodipodi:linespacing="125%"
       transform="matrix(-0.25881904,-0.96592583,0.96592583,-0.25881904,0,0)"><tspan
         sodipodi:role="line"
         x="-795.271"
         y="-184.24463"
         id="tspan7228">372.22</tspan></text>
    <g
       id="g7242">
      <path
         inkscape:connector-curvature="0"
         id="path7232"
         d="m 37.504299,825.52581 0.25865,2.0692 1.681227,0.25865 -0.646626,-2.19853 z"
         style="fill:none;fill-rule:evenodd;stroke:#000000;stroke-width:1px;stroke-linecap:butt;stroke-linejoin:miter;stroke-opacity:1" />
      <path
         style="fill:none;fill-rule:evenodd;stroke:#000000;stroke-width:1px;stroke-linecap:butt;stroke-linejoin:miter;stroke-opacity:1"
         d="m 36.211047,820.8701 0.25865,2.0692 1.681227,0.25865 -0.646626,-2.19853 z"
         id="path7234"
         inkscape:connector-curvature="0" />
      <path
         inkscape:connector-curvature="0"
         id="path7236"
         d="m 35.176446,816.73169 0.25865,2.0692 1.681227,0.25865 -0.646626,-2.19853 z"
         style="fill:none;fill-rule:evenodd;stroke:#000000;stroke-width:1px;stroke-linecap:butt;stroke-linejoin:miter;stroke-opacity:1" />
      <path
         style="fill:none;fill-rule:evenodd;stroke:#000000;stroke-width:1px;stroke-linecap:butt;stroke-linejoin:miter;stroke-opacity:1"
         d="m 34.012519,812.72261 0.25865,2.0692 1.681227,0.25865 -0.646626,-2.19853 z"
         id="path7238"
         inkscape:connector-curvature="0" />
      <path
         inkscape:connector-curvature="0"
         id="path7240"
         d="m 32.848592,808.45488 0.25865,2.0692 1.681227,0.25865 -0.646626,-2.19853 z"
         style="fill:none;fill-rule:evenodd;stroke:#000000;stroke-width:1px;stroke-linecap:butt;stroke-linejoin:miter;stroke-opacity:1" />
    </g>
    <g
       id="g7249"
       transform="translate(4.7850312,0.51730067)">
      <path
         style="fill:none;fill-rule:evenodd;stroke:#000000;stroke-width:1px;stroke-linecap:butt;stroke-linejoin:miter;stroke-opacity:1"
         d="m 37.504299,825.52581 0.25865,2.0692 1.681227,0.25865 -0.646626,-2.19853 z"
         id="path7251"
         inkscape:connector-curvature="0" />
      <path
         inkscape:connector-curvature="0"
         id="path7253"
         d="m 36.211047,820.8701 0.25865,2.0692 1.681227,0.25865 -0.646626,-2.19853 z"
         style="fill:none;fill-rule:evenodd;stroke:#000000;stroke-width:1px;stroke-linecap:butt;stroke-linejoin:miter;stroke-opacity:1" />
      <path
         style="fill:none;fill-rule:evenodd;stroke:#000000;stroke-width:1px;stroke-linecap:butt;stroke-linejoin:miter;stroke-opacity:1"
         d="m 35.176446,816.73169 0.25865,2.0692 1.681227,0.25865 -0.646626,-2.19853 z"
         id="path7255"
         inkscape:connector-curvature="0" />
      <path
         inkscape:connector-curvature="0"
         id="path7257"
         d="m 34.012519,812.72261 0.25865,2.0692 1.681227,0.25865 -0.646626,-2.19853 z"
         style="fill:none;fill-rule:evenodd;stroke:#000000;stroke-width:1px;stroke-linecap:butt;stroke-linejoin:miter;stroke-opacity:1" />
      <path
         style="fill:none;fill-rule:evenodd;stroke:#000000;stroke-width:1px;stroke-linecap:butt;stroke-linejoin:miter;stroke-opacity:1"
         d="m 32.848592,808.45488 0.25865,2.0692 1.681227,0.25865 -0.646626,-2.19853 z"
         id="path7259"
         inkscape:connector-curvature="0" />
    </g>
    <g
       transform="translate(9.6993876,0.77595101)"
       id="g7261">
      <path
         inkscape:connector-curvature="0"
         id="path7263"
         d="m 37.504299,825.52581 0.25865,2.0692 1.681227,0.25865 -0.646626,-2.19853 z"
         style="fill:none;fill-rule:evenodd;stroke:#000000;stroke-width:1px;stroke-linecap:butt;stroke-linejoin:miter;stroke-opacity:1" />
      <path
         style="fill:none;fill-rule:evenodd;stroke:#000000;stroke-width:1px;stroke-linecap:butt;stroke-linejoin:miter;stroke-opacity:1"
         d="m 36.211047,820.8701 0.25865,2.0692 1.681227,0.25865 -0.646626,-2.19853 z"
         id="path7265"
         inkscape:connector-curvature="0" />
      <path
         inkscape:connector-curvature="0"
         id="path7267"
         d="m 35.176446,816.73169 0.25865,2.0692 1.681227,0.25865 -0.646626,-2.19853 z"
         style="fill:none;fill-rule:evenodd;stroke:#000000;stroke-width:1px;stroke-linecap:butt;stroke-linejoin:miter;stroke-opacity:1" />
      <path
         style="fill:none;fill-rule:evenodd;stroke:#000000;stroke-width:1px;stroke-linecap:butt;stroke-linejoin:miter;stroke-opacity:1"
         d="m 34.012519,812.72261 0.25865,2.0692 1.681227,0.25865 -0.646626,-2.19853 z"
         id="path7269"
         inkscape:connector-curvature="0" />
      <path
         inkscape:connector-curvature="0"
         id="path7271"
         d="m 32.848592,808.45488 0.25865,2.0692 1.681227,0.25865 -0.646626,-2.19853 z"
         style="fill:none;fill-rule:evenodd;stroke:#000000;stroke-width:1px;stroke-linecap:butt;stroke-linejoin:miter;stroke-opacity:1" />
    </g>
    <g
       id="g7273"
       transform="translate(14.613744,1.0346013)">
      <path
         style="fill:none;fill-rule:evenodd;stroke:#000000;stroke-width:1px;stroke-linecap:butt;stroke-linejoin:miter;stroke-opacity:1"
         d="m 37.504299,825.52581 0.25865,2.0692 1.681227,0.25865 -0.646626,-2.19853 z"
         id="path7275"
         inkscape:connector-curvature="0" />
      <path
         inkscape:connector-curvature="0"
         id="path7277"
         d="m 36.211047,820.8701 0.25865,2.0692 1.681227,0.25865 -0.646626,-2.19853 z"
         style="fill:none;fill-rule:evenodd;stroke:#000000;stroke-width:1px;stroke-linecap:butt;stroke-linejoin:miter;stroke-opacity:1" />
      <path
         style="fill:none;fill-rule:evenodd;stroke:#000000;stroke-width:1px;stroke-linecap:butt;stroke-linejoin:miter;stroke-opacity:1"
         d="m 35.176446,816.73169 0.25865,2.0692 1.681227,0.25865 -0.646626,-2.19853 z"
         id="path7279"
         inkscape:connector-curvature="0" />
      <path
         inkscape:connector-curvature="0"
         id="path7281"
         d="m 34.012519,812.72261 0.25865,2.0692 1.681227,0.25865 -0.646626,-2.19853 z"
         style="fill:none;fill-rule:evenodd;stroke:#000000;stroke-width:1px;stroke-linecap:butt;stroke-linejoin:miter;stroke-opacity:1" />
      <path
         style="fill:none;fill-rule:evenodd;stroke:#000000;stroke-width:1px;stroke-linecap:butt;stroke-linejoin:miter;stroke-opacity:1"
         d="m 32.848592,808.45488 0.25865,2.0692 1.681227,0.25865 -0.646626,-2.19853 z"
         id="path7283"
         inkscape:connector-curvature="0" />
    </g>
    <g
       transform="translate(19.5281,1.4225768)"
       id="g7285">
      <path
         inkscape:connector-curvature="0"
         id="path7287"
         d="m 37.504299,825.52581 0.25865,2.0692 1.681227,0.25865 -0.646626,-2.19853 z"
         style="fill:none;fill-rule:evenodd;stroke:#000000;stroke-width:1px;stroke-linecap:butt;stroke-linejoin:miter;stroke-opacity:1" />
      <path
         style="fill:none;fill-rule:evenodd;stroke:#000000;stroke-width:1px;stroke-linecap:butt;stroke-linejoin:miter;stroke-opacity:1"
         d="m 36.211047,820.8701 0.25865,2.0692 1.681227,0.25865 -0.646626,-2.19853 z"
         id="path7289"
         inkscape:connector-curvature="0" />
      <path
         inkscape:connector-curvature="0"
         id="path7291"
         d="m 35.176446,816.73169 0.25865,2.0692 1.681227,0.25865 -0.646626,-2.19853 z"
         style="fill:none;fill-rule:evenodd;stroke:#000000;stroke-width:1px;stroke-linecap:butt;stroke-linejoin:miter;stroke-opacity:1" />
      <path
         style="fill:none;fill-rule:evenodd;stroke:#000000;stroke-width:1px;stroke-linecap:butt;stroke-linejoin:miter;stroke-opacity:1"
         d="m 34.012519,812.72261 0.25865,2.0692 1.681227,0.25865 -0.646626,-2.19853 z"
         id="path7293"
         inkscape:connector-curvature="0" />
      <path
         inkscape:connector-curvature="0"
         id="path7295"
         d="m 32.848592,808.45488 0.25865,2.0692 1.681227,0.25865 -0.646626,-2.19853 z"
         style="fill:none;fill-rule:evenodd;stroke:#000000;stroke-width:1px;stroke-linecap:butt;stroke-linejoin:miter;stroke-opacity:1" />
    </g>
    <path
       style="fill:none;fill-rule:evenodd;stroke:#000000;stroke-width:1px;stroke-linecap:butt;stroke-linejoin:miter;stroke-opacity:1"
       d="m 96.060991,646.9619 0.571792,-8.57688"
       id="path7297"
       inkscape:connector-curvature="0" />
    <use
       id="use7299"
       xlink:href="#path7297"
       x="0"
       y="0"
       width="100%"
       height="100%"
       transform="translate(2.4331976,-1.7617013)" />
    <use
       id="use7301"
       xlink:href="#path7297"
       x="0"
       y="0"
       width="100%"
       height="100%"
       transform="translate(1.0350146,-0.21816399)" />
    <use
       id="use7303"
       xlink:href="#path7297"
       x="0"
       y="0"
       width="100%"
       height="100%"
       transform="translate(3.0339501,-1.2921196)" />
    <use
       id="use7305"
       xlink:href="#path7297"
       x="0"
       y="0"
       width="100%"
       height="100%"
       transform="translate(2.243263,-0.98937394)" />
    <use
       id="use7307"
       xlink:href="#path7297"
       x="0"
       y="0"
       width="100%"
       height="100%"
       transform="translate(1.5730777,-2.1701562)" />
    <use
       id="use7309"
       xlink:href="#path7297"
       x="0"
       y="0"
       width="100%"
       height="100%"
       transform="translate(4.690381,-0.97269537)" />
    <use
       id="use7311"
       xlink:href="#path7297"
       x="0"
       y="0"
       width="100%"
       height="100%"
       transform="translate(5.4251342,-0.93817169)" />
    <use
       id="use7313"
       xlink:href="#path7297"
       x="0"
       y="0"
       width="100%"
       height="100%"
       transform="translate(3.6835085,-0.30470551)" />
    <use
       id="use7315"
       xlink:href="#path7297"
       x="0"
       y="0"
       width="100%"
       height="100%"
       transform="translate(5.2374848,-3.8905017)" />
    <use
       id="use7317"
       xlink:href="#path7297"
       x="0"
       y="0"
       width="100%"
       height="100%"
       transform="translate(4.7593032,-2.1560857)" />
    <use
       id="use7319"
       xlink:href="#path7297"
       x="0"
       y="0"
       width="100%"
       height="100%"
       transform="translate(8.306702,-3.3292345)" />
    <use
       id="use7321"
       xlink:href="#path7297"
       x="0"
       y="0"
       width="100%"
       height="100%"
       transform="translate(5.4263595,-0.65420992)" />
    <use
       id="use7323"
       xlink:href="#path7297"
       x="0"
       y="0"
       width="100%"
       height="100%"
       transform="translate(7.9908272,-1.2765765)" />
    <use
       id="use7325"
       xlink:href="#path7297"
       x="0"
       y="0"
       width="100%"
       height="100%"
       transform="translate(9.6572095,-2.3119732)" />
    <use
       id="use7327"
       xlink:href="#path7297"
       x="0"
       y="0"
       width="100%"
       height="100%"
       transform="translate(9.0009336,-3.6447159)" />
    <use
       id="use7329"
       xlink:href="#path7297"
       x="0"
       y="0"
       width="100%"
       height="100%"
       transform="translate(7.5451625,-2.390629)" />
    <use
       id="use7331"
       xlink:href="#path7297"
       x="0"
       y="0"
       width="100%"
       height="100%"
       transform="translate(8.0573338,-3.5047871)" />
    <use
       id="use7333"
       xlink:href="#path7297"
       x="0"
       y="0"
       width="100%"
       height="100%"
       transform="translate(10.102389,-4.099896)" />
    <use
       id="use7335"
       xlink:href="#path7297"
       x="0"
       y="0"
       width="100%"
       height="100%"
       transform="translate(11.212028,-2.7609462)" />
    <use
       id="use7337"
       xlink:href="#path7297"
       x="0"
       y="0"
       width="100%"
       height="100%"
       transform="translate(12.862542,-4.6090747)" />
    <use
       id="use7339"
       xlink:href="#path7297"
       x="0"
       y="0"
       width="100%"
       height="100%"
       transform="translate(12.110881,-6.5634681)" />
    <use
       id="use7341"
       xlink:href="#path7297"
       x="0"
       y="0"
       width="100%"
       height="100%"
       transform="translate(15.144497,-6.340561)" />
    <use
       id="use7343"
       xlink:href="#path7297"
       x="0"
       y="0"
       width="100%"
       height="100%"
       transform="translate(15.531058,-3.6707574)" />
    <use
       id="use7345"
       xlink:href="#path7297"
       x="0"
       y="0"
       width="100%"
       height="100%"
       transform="translate(15.958357,-5.5004907)" />
    <use
       id="use7347"
       xlink:href="#path7297"
       x="0"
       y="0"
       width="100%"
       height="100%"
       transform="translate(16.140043,-6.1368006)" />
    <use
       id="use7349"
       xlink:href="#path7297"
       x="0"
       y="0"
       width="100%"
       height="100%"
       transform="translate(17.295693,-7.6907692)" />
    <use
       id="use7351"
       xlink:href="#path7297"
       x="0"
       y="0"
       width="100%"
       height="100%"
       transform="translate(14.771478,-7.4929422)" />
    <use
       id="use7353"
       xlink:href="#path7297"
       x="0"
       y="0"
       width="100%"
       height="100%"
       transform="translate(16.837728,-6.7151823)" />
    <use
       id="use7355"
       xlink:href="#path7297"
       x="0"
       y="0"
       width="100%"
       height="100%"
       transform="translate(16.075016,-8.5843353)" />
    <use
       id="use7357"
       xlink:href="#path7297"
       x="0"
       y="0"
       width="100%"
       height="100%"
       transform="translate(16.778187,-7.7882643)" />
    <use
       id="use7359"
       xlink:href="#path7297"
       x="0"
       y="0"
       width="100%"
       height="100%"
       transform="translate(16.538458,-8.688679)" />
    <use
       id="use7361"
       xlink:href="#path7297"
       x="0"
       y="0"
       width="100%"
       height="100%"
       transform="translate(18.036345,-8.0694107)" />
    <use
       id="use7363"
       xlink:href="#path7297"
       x="0"
       y="0"
       width="100%"
       height="100%"
       transform="translate(19.362155,-8.4648232)" />
    <use
       id="use7365"
       xlink:href="#path7297"
       x="0"
       y="0"
       width="100%"
       height="100%"
       transform="translate(20.138778,-10.018539)" />
    <use
       id="use7367"
       xlink:href="#path7297"
       x="0"
       y="0"
       width="100%"
       height="100%"
       transform="translate(20.014604,-8.2119254)" />
    <use
       id="use7369"
       xlink:href="#path7297"
       x="0"
       y="0"
       width="100%"
       height="100%"
       transform="translate(21.255565,-9.9915334)" />
    <use
       id="use7371"
       xlink:href="#path7297"
       x="0"
       y="0"
       width="100%"
       height="100%"
       transform="translate(21.065937,-9.1495919)" />
    <use
       id="use7373"
       xlink:href="#path7297"
       x="0"
       y="0"
       width="100%"
       height="100%"
       transform="translate(20.48114,-10.772673)" />
    <use
       id="use7375"
       xlink:href="#path7297"
       x="0"
       y="0"
       width="100%"
       height="100%"
       transform="translate(21.909076,-7.7009288)" />
    <use
       id="use7377"
       xlink:href="#path7297"
       x="0"
       y="0"
       width="100%"
       height="100%"
       transform="translate(23.216725,-10.225594)" />
    <use
       id="use7379"
       xlink:href="#path7297"
       x="0"
       y="0"
       width="100%"
       height="100%"
       transform="translate(22.080728,-8.2669516)" />
    <use
       id="use7381"
       xlink:href="#path7297"
       x="0"
       y="0"
       width="100%"
       height="100%"
       transform="translate(24.44539,-9.5710273)" />
    <use
       id="use7383"
       xlink:href="#path7297"
       x="0"
       y="0"
       width="100%"
       height="100%"
       transform="translate(24.767811,-10.677989)" />
    <use
       id="use7385"
       xlink:href="#path7297"
       x="0"
       y="0"
       width="100%"
       height="100%"
       transform="translate(22.589372,-9.1982156)" />
    <use
       id="use7387"
       xlink:href="#path7297"
       x="0"
       y="0"
       width="100%"
       height="100%"
       transform="translate(24.705132,-8.0911999)" />
    <use
       id="use7389"
       xlink:href="#path7297"
       x="0"
       y="0"
       width="100%"
       height="100%"
       transform="translate(24.362166,-10.234522)" />
    <use
       id="use7391"
       xlink:href="#path7297"
       x="0"
       y="0"
       width="100%"
       height="100%"
       transform="translate(24.310452,-10.467008)" />
    <use
       id="use7393"
       xlink:href="#path7297"
       x="0"
       y="0"
       width="100%"
       height="100%"
       transform="translate(26.116326,-9.2768087)" />
    <use
       id="use7395"
       xlink:href="#path7297"
       x="0"
       y="0"
       width="100%"
       height="100%"
       transform="translate(29.309721,-10.011331)" />
    <use
       id="use7397"
       xlink:href="#path7297"
       x="0"
       y="0"
       width="100%"
       height="100%"
       transform="translate(27.906587,-8.5692016)" />
    <use
       id="use7399"
       xlink:href="#path7297"
       x="0"
       y="0"
       width="100%"
       height="100%"
       transform="translate(26.858939,-9.0150151)" />
    <use
       id="use7401"
       xlink:href="#path7297"
       x="0"
       y="0"
       width="100%"
       height="100%"
       transform="translate(29.69552,-8.4062337)" />
    <use
       id="use7403"
       xlink:href="#path7297"
       x="0"
       y="0"
       width="100%"
       height="100%"
       transform="translate(30.314151,-11.134557)" />
    <use
       id="use7405"
       xlink:href="#path7297"
       x="0"
       y="0"
       width="100%"
       height="100%"
       transform="translate(28.785789,-10.403816)" />
    <use
       id="use7407"
       xlink:href="#path7297"
       x="0"
       y="0"
       width="100%"
       height="100%"
       transform="translate(31.229858,-10.304078)" />
    <use
       id="use7409"
       xlink:href="#path7297"
       x="0"
       y="0"
       width="100%"
       height="100%"
       transform="translate(31.845758,-11.16682)" />
    <use
       id="use7411"
       xlink:href="#path7297"
       x="0"
       y="0"
       width="100%"
       height="100%"
       transform="translate(30.187964,-12.036185)" />
    <use
       id="use7413"
       xlink:href="#path7297"
       x="0"
       y="0"
       width="100%"
       height="100%"
       transform="translate(30.911551,-9.8374431)" />
    <use
       id="use7415"
       xlink:href="#path7297"
       x="0"
       y="0"
       width="100%"
       height="100%"
       transform="translate(33.96243,-12.207683)" />
    <use
       id="use7417"
       xlink:href="#path7297"
       x="0"
       y="0"
       width="100%"
       height="100%"
       transform="translate(35.619929,-11.156404)" />
    <use
       id="use7419"
       xlink:href="#path7297"
       x="0"
       y="0"
       width="100%"
       height="100%"
       transform="translate(34.428753,-8.9809767)" />
    <use
       id="use7421"
       xlink:href="#path7297"
       x="0"
       y="0"
       width="100%"
       height="100%"
       transform="translate(37.437976,-10.605024)" />
    <use
       id="use7423"
       xlink:href="#path7297"
       x="0"
       y="0"
       width="100%"
       height="100%"
       transform="translate(38.580028,-10.688722)" />
    <use
       id="use7425"
       xlink:href="#path7297"
       x="0"
       y="0"
       width="100%"
       height="100%"
       transform="translate(37.020254,-11.737906)" />
    <use
       id="use7427"
       xlink:href="#path7297"
       x="0"
       y="0"
       width="100%"
       height="100%"
       transform="translate(36.581741,-8.3335146)" />
    <use
       id="use7429"
       xlink:href="#path7297"
       x="0"
       y="0"
       width="100%"
       height="100%"
       transform="translate(36.490988,-8.7937385)" />
    <use
       id="use7431"
       xlink:href="#path7297"
       x="0"
       y="0"
       width="100%"
       height="100%"
       transform="translate(37.225037,-11.977194)" />
    <use
       id="use7433"
       xlink:href="#path7297"
       x="0"
       y="0"
       width="100%"
       height="100%"
       transform="translate(37.204454,-9.8510713)" />
    <use
       id="use7435"
       xlink:href="#path7297"
       x="0"
       y="0"
       width="100%"
       height="100%"
       transform="translate(38.700153,-10.490443)" />
    <use
       id="use7437"
       xlink:href="#path7297"
       x="0"
       y="0"
       width="100%"
       height="100%"
       transform="translate(41.993189,-11.513936)" />
    <use
       id="use7439"
       xlink:href="#path7297"
       x="0"
       y="0"
       width="100%"
       height="100%"
       transform="translate(40.937955,-10.088047)" />
    <use
       id="use7441"
       xlink:href="#path7297"
       x="0"
       y="0"
       width="100%"
       height="100%"
       transform="translate(41.700311,-8.8262958)" />
    <use
       id="use7443"
       xlink:href="#path7297"
       x="0"
       y="0"
       width="100%"
       height="100%"
       transform="translate(43.60366,-10.909277)" />
    <use
       id="use7445"
       xlink:href="#path7297"
       x="0"
       y="0"
       width="100%"
       height="100%"
       transform="translate(44.128053,-7.1789985)" />
    <use
       id="use7447"
       xlink:href="#path7297"
       x="0"
       y="0"
       width="100%"
       height="100%"
       transform="translate(42.886774,-7.975519)" />
    <use
       id="use7449"
       xlink:href="#path7297"
       x="0"
       y="0"
       width="100%"
       height="100%"
       transform="translate(42.066104,-7.7676655)" />
    <use
       id="use7451"
       xlink:href="#path7297"
       x="0"
       y="0"
       width="100%"
       height="100%"
       transform="translate(41.823298,-7.7240115)" />
    <use
       id="use7453"
       xlink:href="#path7297"
       x="0"
       y="0"
       width="100%"
       height="100%"
       transform="translate(44.430188,-8.178566)" />
    <use
       id="use7455"
       xlink:href="#path7297"
       x="0"
       y="0"
       width="100%"
       height="100%"
       transform="translate(44.644074,-9.7288075)" />
    <use
       id="use7457"
       xlink:href="#path7297"
       x="0"
       y="0"
       width="100%"
       height="100%"
       transform="translate(44.13529,-9.3185802)" />
    <use
       id="use7459"
       xlink:href="#path7297"
       x="0"
       y="0"
       width="100%"
       height="100%"
       transform="translate(47.247508,-7.8036167)" />
    <use
       id="use7461"
       xlink:href="#path7297"
       x="0"
       y="0"
       width="100%"
       height="100%"
       transform="translate(44.073097,-8.9899804)" />
    <use
       id="use7463"
       xlink:href="#path7297"
       x="0"
       y="0"
       width="100%"
       height="100%"
       transform="translate(46.654291,-7.6810683)" />
    <use
       id="use7465"
       xlink:href="#path7297"
       x="0"
       y="0"
       width="100%"
       height="100%"
       transform="translate(45.318053,-6.3405572)" />
    <use
       id="use7467"
       xlink:href="#path7297"
       x="0"
       y="0"
       width="100%"
       height="100%"
       transform="translate(46.968508,-6.5182556)" />
    <use
       id="use7469"
       xlink:href="#path7297"
       x="0"
       y="0"
       width="100%"
       height="100%"
       transform="translate(49.238027,-8.034348)" />
    <use
       id="use7471"
       xlink:href="#path7297"
       x="0"
       y="0"
       width="100%"
       height="100%"
       transform="translate(49.768803,-4.6409033)" />
    <use
       id="use7473"
       xlink:href="#path7297"
       x="0"
       y="0"
       width="100%"
       height="100%"
       transform="translate(51.29084,-7.4154334)" />
    <use
       id="use7475"
       xlink:href="#path7297"
       x="0"
       y="0"
       width="100%"
       height="100%"
       transform="translate(53.184504,-6.3722251)" />
    <use
       id="use7477"
       xlink:href="#path7297"
       x="0"
       y="0"
       width="100%"
       height="100%"
       transform="translate(53.704843,-3.784486)" />
    <use
       id="use7479"
       xlink:href="#path7297"
       x="0"
       y="0"
       width="100%"
       height="100%"
       transform="translate(50.618015,-4.0520707)" />
    <use
       id="use7481"
       xlink:href="#path7297"
       x="0"
       y="0"
       width="100%"
       height="100%"
       transform="translate(54.300418,-5.2762153)" />
    <use
       id="use7483"
       xlink:href="#path7297"
       x="0"
       y="0"
       width="100%"
       height="100%"
       transform="translate(54.215713,-6.0733517)" />
    <use
       id="use7485"
       xlink:href="#path7297"
       x="0"
       y="0"
       width="100%"
       height="100%"
       transform="translate(53.470317,-5.9897954)" />
    <use
       id="use7487"
       xlink:href="#path7297"
       x="0"
       y="0"
       width="100%"
       height="100%"
       transform="translate(53.979938,-2.9047091)" />
    <use
       id="use7489"
       xlink:href="#path7297"
       x="0"
       y="0"
       width="100%"
       height="100%"
       transform="translate(55.694961,-2.0799168)" />
    <use
       id="use7491"
       xlink:href="#path7297"
       x="0"
       y="0"
       width="100%"
       height="100%"
       transform="translate(55.269218,-3.6469714)" />
    <use
       id="use7493"
       xlink:href="#path7297"
       x="0"
       y="0"
       width="100%"
       height="100%"
       transform="translate(55.221156,-3.1919398)" />
    <use
       id="use7495"
       xlink:href="#path7297"
       x="0"
       y="0"
       width="100%"
       height="100%"
       transform="translate(58.639088,-4.3587279)" />
    <use
       id="use7497"
       xlink:href="#path7297"
       x="0"
       y="0"
       width="100%"
       height="100%"
       transform="translate(57.416411,-2.9981512)" />
    <use
       id="use7499"
       xlink:href="#path7297"
       x="0"
       y="0"
       width="100%"
       height="100%"
       transform="translate(57.146778,-1.819232)" />
    <use
       id="use7501"
       xlink:href="#path7297"
       x="0"
       y="0"
       width="100%"
       height="100%"
       transform="translate(56.713415,-3.3070342)" />
    <use
       id="use7503"
       xlink:href="#path7297"
       x="0"
       y="0"
       width="100%"
       height="100%"
       transform="translate(59.347265,-3.3022627)" />
    <use
       id="use7505"
       xlink:href="#path7297"
       x="0"
       y="0"
       width="100%"
       height="100%"
       transform="translate(59.91284,-1.3867383)" />
    <use
       id="use7507"
       xlink:href="#path7297"
       x="0"
       y="0"
       width="100%"
       height="100%"
       transform="translate(59.526559,-0.29103814)" />
    <use
       id="use7509"
       xlink:href="#path7297"
       x="0"
       y="0"
       width="100%"
       height="100%"
       transform="translate(58.683212,-1.3707356)" />
    <use
       id="use7511"
       xlink:href="#path7297"
       x="0"
       y="0"
       width="100%"
       height="100%"
       transform="translate(60.894542,-3.5256793)" />
    <use
       id="use7513"
       xlink:href="#path7297"
       x="0"
       y="0"
       width="100%"
       height="100%"
       transform="translate(58.976719,-1.4357648)" />
    <use
       id="use7515"
       xlink:href="#path7297"
       x="0"
       y="0"
       width="100%"
       height="100%"
       transform="translate(59.56748,-0.35652904)" />
    <use
       id="use7517"
       xlink:href="#path7297"
       x="0"
       y="0"
       width="100%"
       height="100%"
       transform="translate(61.064991,-0.02423074)" />
    <use
       id="use7519"
       xlink:href="#path7297"
       x="0"
       y="0"
       width="100%"
       height="100%"
       transform="translate(62.456421,0.25786)" />
    <use
       id="use7521"
       xlink:href="#path7297"
       x="0"
       y="0"
       width="100%"
       height="100%"
       transform="translate(62.194529,-0.36559688)" />
    <use
       id="use7523"
       xlink:href="#path7297"
       x="0"
       y="0"
       width="100%"
       height="100%"
       transform="translate(60.44734,-1.6123915)" />
    <use
       id="use7525"
       xlink:href="#path7297"
       x="0"
       y="0"
       width="100%"
       height="100%"
       transform="translate(61.281643,-1.1751006)" />
    <use
       id="use7527"
       xlink:href="#path7297"
       x="0"
       y="0"
       width="100%"
       height="100%"
       transform="translate(64.158956,-1.0524555)" />
    <use
       id="use7529"
       xlink:href="#path7297"
       x="0"
       y="0"
       width="100%"
       height="100%"
       transform="translate(62.005852,-1.56416)" />
    <use
       id="use7531"
       xlink:href="#path7297"
       x="0"
       y="0"
       width="100%"
       height="100%"
       transform="translate(61.925086,-1.9357078)" />
    <use
       id="use7533"
       xlink:href="#path7297"
       x="0"
       y="0"
       width="100%"
       height="100%"
       transform="translate(64.993961,1.2187183)" />
    <use
       id="use7535"
       xlink:href="#path7297"
       x="0"
       y="0"
       width="100%"
       height="100%"
       transform="translate(64.541854,0.92594823)" />
    <use
       id="use7537"
       xlink:href="#path7297"
       x="0"
       y="0"
       width="100%"
       height="100%"
       transform="translate(61.622976,1.1413458)" />
    <use
       id="use7539"
       xlink:href="#path7297"
       x="0"
       y="0"
       width="100%"
       height="100%"
       transform="translate(63.250724,-0.58740091)" />
    <use
       id="use7541"
       xlink:href="#path7297"
       x="0"
       y="0"
       width="100%"
       height="100%"
       transform="translate(63.003682,1.3602544)" />
    <use
       id="use7543"
       xlink:href="#path7297"
       x="0"
       y="0"
       width="100%"
       height="100%"
       transform="translate(62.94379,3.4731137)" />
    <use
       id="use7545"
       xlink:href="#path7297"
       x="0"
       y="0"
       width="100%"
       height="100%"
       transform="translate(63.765173,3.3753587)" />
    <use
       id="use7547"
       xlink:href="#path7297"
       x="0"
       y="0"
       width="100%"
       height="100%"
       transform="translate(65.540597,2.453472)" />
    <use
       id="use7549"
       xlink:href="#path7297"
       x="0"
       y="0"
       width="100%"
       height="100%"
       transform="translate(63.073705,1.5066203)" />
    <use
       id="use7551"
       xlink:href="#path7297"
       x="0"
       y="0"
       width="100%"
       height="100%"
       transform="translate(65.192399,2.993358)" />
    <use
       id="use7553"
       xlink:href="#path7297"
       x="0"
       y="0"
       width="100%"
       height="100%"
       transform="translate(62.044579,4.1062104)" />
    <use
       id="use7555"
       xlink:href="#path7297"
       x="0"
       y="0"
       width="100%"
       height="100%"
       transform="translate(66.48345,3.8845104)" />
    <use
       id="use7557"
       xlink:href="#path7297"
       x="0"
       y="0"
       width="100%"
       height="100%"
       transform="translate(63.228026,3.4180373)" />
    <use
       id="use7559"
       xlink:href="#path7297"
       x="0"
       y="0"
       width="100%"
       height="100%"
       transform="translate(62.624495,5.0971572)" />
    <use
       id="use7561"
       xlink:href="#path7297"
       x="0"
       y="0"
       width="100%"
       height="100%"
       transform="translate(66.334288,3.5138709)" />
    <use
       id="use7563"
       xlink:href="#path7297"
       x="0"
       y="0"
       width="100%"
       height="100%"
       transform="translate(63.171408,6.2744673)" />
    <use
       id="use7565"
       xlink:href="#path7297"
       x="0"
       y="0"
       width="100%"
       height="100%"
       transform="translate(63.342765,5.7450801)" />
    <use
       id="use7567"
       xlink:href="#path7297"
       x="0"
       y="0"
       width="100%"
       height="100%"
       transform="translate(65.725716,4.6508661)" />
    <use
       id="use7569"
       xlink:href="#path7297"
       x="0"
       y="0"
       width="100%"
       height="100%"
       transform="translate(63.729661,8.1288223)" />
    <use
       id="use7571"
       xlink:href="#path7297"
       x="0"
       y="0"
       width="100%"
       height="100%"
       transform="translate(64.325,6.8169853)" />
    <use
       id="use7573"
       xlink:href="#path7297"
       x="0"
       y="0"
       width="100%"
       height="100%"
       transform="translate(66.351257,5.5017123)" />
    <use
       id="use7575"
       xlink:href="#path7297"
       x="0"
       y="0"
       width="100%"
       height="100%"
       transform="translate(64.850386,5.9127152)" />
    <use
       id="use7577"
       xlink:href="#path7297"
       x="0"
       y="0"
       width="100%"
       height="100%"
       transform="translate(64.487757,8.9184094)" />
    <use
       id="use7579"
       xlink:href="#path7297"
       x="0"
       y="0"
       width="100%"
       height="100%"
       transform="translate(66.934087,8.0587028)" />
    <use
       id="use7581"
       xlink:href="#path7297"
       x="0"
       y="0"
       width="100%"
       height="100%"
       transform="translate(66.012052,5.9672635)" />
    <use
       id="use7583"
       xlink:href="#path7297"
       x="0"
       y="0"
       width="100%"
       height="100%"
       transform="translate(64.07879,9.35693)" />
    <use
       id="use7585"
       xlink:href="#path7297"
       x="0"
       y="0"
       width="100%"
       height="100%"
       transform="translate(65.415559,9.3219799)" />
    <use
       id="use7587"
       xlink:href="#path7297"
       x="0"
       y="0"
       width="100%"
       height="100%"
       transform="translate(65.418613,6.3735979)" />
    <use
       id="use7589"
       xlink:href="#path7297"
       x="0"
       y="0"
       width="100%"
       height="100%"
       transform="translate(66.919927,8.8065415)" />
    <use
       id="use7591"
       xlink:href="#path7297"
       x="0"
       y="0"
       width="100%"
       height="100%"
       transform="translate(65.012633,6.9220373)" />
    <use
       id="use7593"
       xlink:href="#path7297"
       x="0"
       y="0"
       width="100%"
       height="100%"
       transform="translate(65.461158,10.833426)" />
  </g>
</svg>
