<?xml version="1.0" encoding="UTF-8" standalone="no"?>
<!-- Created with Inkscape (http://www.inkscape.org/) -->

<svg
   xmlns:dc="http://purl.org/dc/elements/1.1/"
   xmlns:cc="http://creativecommons.org/ns#"
   xmlns:rdf="http://www.w3.org/1999/02/22-rdf-syntax-ns#"
   xmlns:svg="http://www.w3.org/2000/svg"
   xmlns="http://www.w3.org/2000/svg"
   xmlns:sodipodi="http://sodipodi.sourceforge.net/DTD/sodipodi-0.dtd"
   xmlns:inkscape="http://www.inkscape.org/namespaces/inkscape"
   width="3in"
   height="5in"
   viewBox="0 0 270 450.00001"
   id="svg4284"
   version="1.1"
   inkscape:version="0.91 r13725"
   sodipodi:docname="HaroldTester.svg">
  <defs
     id="defs4286">
    <inkscape:path-effect
       effect="spiro"
       id="path-effect4834"
       is_visible="true" />
  </defs>
  <sodipodi:namedview
     id="base"
     pagecolor="#ffffff"
     bordercolor="#666666"
     borderopacity="1.0"
     inkscape:pageopacity="0.0"
     inkscape:pageshadow="2"
     inkscape:zoom="1.7488889"
     inkscape:cx="135"
     inkscape:cy="225"
     inkscape:document-units="px"
     inkscape:current-layer="layer1"
     showgrid="false"
     inkscape:window-width="1920"
     inkscape:window-height="982"
     inkscape:window-x="0"
     inkscape:window-y="28"
     inkscape:window-maximized="1"
     units="in" />
  <metadata
     id="metadata4289">
    <rdf:RDF>
      <cc:Work
         rdf:about="">
        <dc:format>image/svg+xml</dc:format>
        <dc:type
           rdf:resource="http://purl.org/dc/dcmitype/StillImage" />
        <dc:title></dc:title>
      </cc:Work>
    </rdf:RDF>
  </metadata>
  <g
     inkscape:label="Layer 1"
     inkscape:groupmode="layer"
     id="layer1"
     transform="translate(0,-602.36215)">
    <path
       style="fill:none;fill-rule:evenodd;stroke:#000000;stroke-width:1px;stroke-linecap:butt;stroke-linejoin:miter;stroke-opacity:1"
       d="m 38.470789,1048.6392 c 31.370399,-21.0775 55.686763,-52.46767 68.254621,-88.11049 13.77121,-39.05555 13.44068,-81.44651 13.65093,-122.85832 0.19957,-39.30799 1.02704,-78.6128 2.48198,-117.89436"
       id="path4832"
       inkscape:path-effect="#path-effect4834"
       inkscape:original-d="m 38.470789,1048.6392 c 0,0 54.30636,-53.67671 68.254621,-88.11049 15.47001,-38.19049 11.00187,-82.68977 13.65093,-122.85832 2.64906,-40.16855 2.48198,-117.89436 2.48198,-117.89436"
       inkscape:connector-curvature="0"
       sodipodi:nodetypes="cszc" />
    <path
       style="fill:none;fill-rule:evenodd;stroke:#000000;stroke-width:1px;stroke-linecap:butt;stroke-linejoin:miter;stroke-opacity:1"
       d="m 181.185,1054.8442 c 0,0 -68.50917,-126.28091 -60.80866,-188.63097 7.70051,-62.35006 2.48198,-147.67819 2.48198,-147.67819"
       id="path4836"
       inkscape:connector-curvature="0"
       sodipodi:nodetypes="czc" />
    <path
       style="fill:none;fill-rule:evenodd;stroke:#000000;stroke-width:1px;stroke-linecap:butt;stroke-linejoin:miter;stroke-opacity:1"
       d="m 34.747809,802.92258 c 0,0 19.222091,-62.27507 44.67575,-78.18257 21.861851,-13.66277 44.157671,-13.10953 77.174401,-5.06139 22.02957,5.36992 20.25228,96.02662 20.25228,96.02662"
       id="path4838"
       inkscape:connector-curvature="0"
       sodipodi:nodetypes="casc" />
    <ellipse
       style="fill:none;fill-opacity:1;stroke:#000000;stroke-opacity:1"
       id="path4840"
       cx="125.96082"
       cy="672.61829"
       rx="40.332279"
       ry="42.193768" />
    <path
       style="fill:none;fill-rule:evenodd;stroke:#000000;stroke-width:1px;stroke-linecap:butt;stroke-linejoin:miter;stroke-opacity:1"
       d="m 114.51567,691.04548 c 0,0 4.66546,2.25165 7.45887,2.41316 2.79341,0.16151 8.77515,-1.75502 8.77515,-1.75502"
       id="path4138"
       inkscape:connector-curvature="0"
       sodipodi:nodetypes="czc" />
    <ellipse
       style="fill:none;fill-opacity:1;stroke:#000000;stroke-width:0.498;stroke-miterlimit:4;stroke-dasharray:none;stroke-opacity:1"
       id="path4140"
       cx="114.95442"
       cy="664.61035"
       rx="3.2906802"
       ry="3.4003694" />
    <ellipse
       ry="3.4003694"
       rx="3.2906802"
       cy="664.39099"
       cx="135.57602"
       id="ellipse4142"
       style="fill:none;fill-opacity:1;stroke:#000000;stroke-width:0.498;stroke-miterlimit:4;stroke-dasharray:none;stroke-opacity:1" />
    <path
       style="fill:#c87137;fill-rule:evenodd;stroke:#000000;stroke-width:1px;stroke-linecap:butt;stroke-linejoin:miter;stroke-opacity:1;fill-opacity:1"
       d="m 108.64041,632.66711 c 0,0 13.3314,6.74293 20.58449,8.00508 7.13794,1.24212 21.72809,-0.57179 21.72809,-0.57179 0,0 2.71937,20.25869 4.57433,30.30495 2.26723,12.27911 8.00508,36.59467 8.00508,36.59467 l 2.28717,-2.85896 0.57179,3.43075 c 0,0 4.33115,-29.19745 1.71537,-43.45617 -1.75666,-9.5756 -4.57017,-19.97198 -11.43583,-26.8742 -6.44208,-6.47638 -16.04621,-10.22848 -25.15883,-10.86404 -7.88775,-0.55013 -22.87166,6.28971 -22.87166,6.28971 z"
       id="path8389"
       inkscape:connector-curvature="0"
       sodipodi:nodetypes="cscscccsssc" />
    <path
       style="fill:#c87137;fill-rule:evenodd;stroke:#000000;stroke-width:1px;stroke-linecap:butt;stroke-linejoin:miter;stroke-opacity:1"
       d="m 108.64041,634.38248 c 0,0 -5.76054,17.87627 -10.292252,24.58704 -3.702689,5.48311 -13.722999,12.00762 -13.722999,12.00762 0,0 0.277875,-11.32246 2.858958,-17.72553 2.337445,-5.79867 5.988195,-11.79878 11.435833,-14.86659 3.00773,-1.69379 9.72046,-4.00254 9.72046,-4.00254 z"
       id="path8391"
       inkscape:connector-curvature="0"
       sodipodi:nodetypes="cscssc" />
    <path
       style="fill:#ff0000;fill-rule:evenodd;stroke:none;stroke-width:1px;stroke-linecap:butt;stroke-linejoin:miter;stroke-opacity:1"
       d="m 46.315121,803.6328 c 0,0 -5.337433,4.00852 -6.8615,6.8615 -11.536203,21.5952 -14.29479,72.04574 -14.29479,72.04574 0,0 3.872485,3.63754 6.289708,4.57433 4.82791,1.87105 15.438373,1.71538 15.438373,1.71538 0,0 14.492557,-48.59193 12.007624,-73.18933 -0.430509,-4.26145 -4.574333,-12.00762 -4.574333,-12.00762 z"
       id="path8393"
       inkscape:connector-curvature="0"
       sodipodi:nodetypes="cscscscc" />
    <path
       style="fill:#808080;fill-rule:evenodd;stroke:none;stroke-width:1px;stroke-linecap:butt;stroke-linejoin:miter;stroke-opacity:1"
       d="m 43.456163,801.34563 -13.722999,16.01017 10.292249,-17.72554 1.715375,-5.71792 35.45108,6.28971 -1.715375,4.57433 -17.72554,-2.28717 -3.43075,1.71538 -7.433291,-1.14358 z"
       id="path8395"
       inkscape:connector-curvature="0" />
    <g
       id="g8401"
       transform="matrix(-0.86602541,0.50000001,-0.50000001,-0.86602541,736.22162,1434.1847)">
      <g
         id="g8405">
        <path
           style="fill:#1a1a1a;fill-rule:evenodd;stroke:#000000;stroke-width:1px;stroke-linecap:butt;stroke-linejoin:miter;stroke-opacity:1"
           d="m 146.95044,791.62517 -6.86149,10.86404 -3.43075,14.86659 9.72045,4.00254 8.00509,-14.29479 2.28716,-14.29479 z"
           id="path8397"
           inkscape:connector-curvature="0" />
        <path
           style="fill:none;fill-rule:evenodd;stroke:#993e00;stroke-width:6;stroke-linecap:butt;stroke-linejoin:miter;stroke-miterlimit:4;stroke-dasharray:none;stroke-opacity:1"
           d="m 152.09657,808.20713 44.59975,17.15375 0,0 0.57179,-1.14358 0,0.57179"
           id="path8399"
           inkscape:connector-curvature="0" />
      </g>
    </g>
  </g>
</svg>
