<?xml version="1.0" encoding="UTF-8" standalone="no"?>
<!-- Created with Inkscape (http://www.inkscape.org/) -->

<svg
   xmlns:dc="http://purl.org/dc/elements/1.1/"
   xmlns:cc="http://creativecommons.org/ns#"
   xmlns:rdf="http://www.w3.org/1999/02/22-rdf-syntax-ns#"
   xmlns:svg="http://www.w3.org/2000/svg"
   xmlns="http://www.w3.org/2000/svg"
   xmlns:sodipodi="http://sodipodi.sourceforge.net/DTD/sodipodi-0.dtd"
   xmlns:inkscape="http://www.inkscape.org/namespaces/inkscape"
   width="3in"
   height="5in"
   viewBox="0 0 270 450.00001"
   id="svg4284"
   version="1.1"
   inkscape:version="0.91 r13725"
   sodipodi:docname="Teacher.svg">
  <defs
     id="defs4286">
    <inkscape:path-effect
       effect="spiro"
       id="path-effect4834"
       is_visible="true" />
  </defs>
  <sodipodi:namedview
     id="base"
     pagecolor="#ffffff"
     bordercolor="#666666"
     borderopacity="1.0"
     inkscape:pageopacity="0.0"
     inkscape:pageshadow="2"
     inkscape:zoom="1.7488889"
     inkscape:cx="135"
     inkscape:cy="225"
     inkscape:document-units="px"
     inkscape:current-layer="layer1"
     showgrid="false"
     inkscape:window-width="1920"
     inkscape:window-height="982"
     inkscape:window-x="0"
     inkscape:window-y="28"
     inkscape:window-maximized="1"
     units="in" />
  <metadata
     id="metadata4289">
    <rdf:RDF>
      <cc:Work
         rdf:about="">
        <dc:format>image/svg+xml</dc:format>
        <dc:type
           rdf:resource="http://purl.org/dc/dcmitype/StillImage" />
        <dc:title></dc:title>
      </cc:Work>
    </rdf:RDF>
  </metadata>
  <g
     inkscape:label="Layer 1"
     inkscape:groupmode="layer"
     id="layer1"
     transform="translate(0,-602.36215)">
    <path
       style="fill:none;fill-rule:evenodd;stroke:#000000;stroke-width:1px;stroke-linecap:butt;stroke-linejoin:miter;stroke-opacity:1"
       d="m 38.470789,1048.6392 c 31.370399,-21.0775 55.686763,-52.46767 68.254621,-88.11049 13.77121,-39.05555 13.44068,-81.44651 13.65093,-122.85832 0.19957,-39.30799 1.02704,-78.6128 2.48198,-117.89436"
       id="path4832"
       inkscape:path-effect="#path-effect4834"
       inkscape:original-d="m 38.470789,1048.6392 c 0,0 54.30636,-53.67671 68.254621,-88.11049 15.47001,-38.19049 11.00187,-82.68977 13.65093,-122.85832 2.64906,-40.16855 2.48198,-117.89436 2.48198,-117.89436"
       inkscape:connector-curvature="0"
       sodipodi:nodetypes="cszc" />
    <path
       style="fill:none;fill-rule:evenodd;stroke:#000000;stroke-width:1px;stroke-linecap:butt;stroke-linejoin:miter;stroke-opacity:1"
       d="m 181.185,1054.8442 c 0,0 -68.50917,-126.28091 -60.80866,-188.63097 7.70051,-62.35006 2.48198,-147.67819 2.48198,-147.67819"
       id="path4836"
       inkscape:connector-curvature="0"
       sodipodi:nodetypes="czc" />
    <ellipse
       style="fill:none;fill-opacity:1;stroke:#000000;stroke-opacity:1"
       id="path4840"
       cx="125.96082"
       cy="672.61829"
       rx="40.332279"
       ry="42.193768" />
    <path
       style="fill:none;fill-rule:evenodd;stroke:#000000;stroke-width:1px;stroke-linecap:butt;stroke-linejoin:miter;stroke-opacity:1"
       d="m 114.51567,691.04548 c 0,0 4.66546,2.25165 7.45887,2.41316 2.79341,0.16151 8.77515,-1.75502 8.77515,-1.75502"
       id="path4138"
       inkscape:connector-curvature="0"
       sodipodi:nodetypes="czc" />
    <ellipse
       style="fill:none;fill-opacity:1;stroke:#000000;stroke-width:0.498;stroke-miterlimit:4;stroke-dasharray:none;stroke-opacity:1"
       id="path4140"
       cx="114.95442"
       cy="664.61035"
       rx="3.2906802"
       ry="3.4003694" />
    <ellipse
       ry="3.4003694"
       rx="3.2906802"
       cy="664.39099"
       cx="135.57602"
       id="ellipse4142"
       style="fill:none;fill-opacity:1;stroke:#000000;stroke-width:0.498;stroke-miterlimit:4;stroke-dasharray:none;stroke-opacity:1" />
    <g
       id="g9037"
       transform="translate(-2.2871665,-20.584498)">
      <path
         style="fill:none;fill-rule:evenodd;stroke:#000000;stroke-width:1px;stroke-linecap:butt;stroke-linejoin:miter;stroke-opacity:1"
         d="m 137.22999,803.061 10.86404,50.88946 54.892,-18.29733 -10.29226,-49.17408 z"
         id="path9023"
         inkscape:connector-curvature="0"
         sodipodi:nodetypes="ccccc" />
      <g
         id="g9029">
        <path
           style="fill:#b3b3b3;fill-rule:evenodd;stroke:none;stroke-width:1px;stroke-linecap:butt;stroke-linejoin:miter;stroke-opacity:1"
           d="m 139.27885,803.51728 53.23547,-15.78494 9.90427,-0.15475 -56.02105,17.17772 z"
           id="path9027"
           inkscape:connector-curvature="0" />
        <path
           style="fill:#ffffff;fill-rule:evenodd;stroke:#000000;stroke-width:1px;stroke-linecap:butt;stroke-linejoin:miter;stroke-opacity:1"
           d="m 147.52224,803.63279 10.86404,50.88946 54.892,-18.29733 -10.29226,-49.17408 z"
           id="path9015"
           inkscape:connector-curvature="0"
           sodipodi:nodetypes="ccccc" />
        <text
           xml:space="preserve"
           style="font-style:normal;font-weight:normal;font-size:11.25px;line-height:125%;font-family:sans-serif;letter-spacing:0px;word-spacing:0px;fill:#000000;fill-opacity:1;stroke:none;stroke-width:1px;stroke-linecap:butt;stroke-linejoin:miter;stroke-opacity:1"
           x="-861.25055"
           y="-55.648491"
           id="text9017"
           sodipodi:linespacing="125%"
           transform="matrix(-0.25881903,-0.96592583,0.96592583,-0.25881903,0,0)"><tspan
             sodipodi:role="line"
             id="tspan9019"
             x="-861.25055"
             y="-55.648491">Training</tspan><tspan
             sodipodi:role="line"
             x="-861.25055"
             y="-41.585991"
             id="tspan9021">Manual</tspan></text>
        <path
           style="fill:#b3b3b3;fill-rule:evenodd;stroke:none;stroke-width:1px;stroke-linecap:butt;stroke-linejoin:miter;stroke-opacity:1"
           d="m 146.5523,804.75531 -7.58296,-1.08328 10.05903,50.14039 8.97574,0.46426 z"
           id="path9025"
           inkscape:connector-curvature="0" />
      </g>
    </g>
    <path
       style="fill:none;fill-rule:evenodd;stroke:#000000;stroke-width:1px;stroke-linecap:butt;stroke-linejoin:miter;stroke-opacity:1"
       d="m 34.747809,802.92258 c 0,0 18.148541,-64.13819 44.67575,-78.18257 24.155741,-12.78885 55.281681,-14.94155 81.748731,6.37445 18.02704,14.51858 23.11124,95.45482 23.11124,95.45482"
       id="path4838"
       inkscape:connector-curvature="0"
       sodipodi:nodetypes="casc" />
    <path
       style="fill:#000000;fill-rule:evenodd;stroke:#000000;stroke-width:1px;stroke-linecap:butt;stroke-linejoin:miter;stroke-opacity:1"
       d="m 129.2249,632.09531 c 1.29652,5.9992 -9.44765,7.98194 -14.86658,10.86405 -6.44085,3.42563 -15.97991,1.77491 -20.584495,7.43329 -11.909258,14.63479 -8.005083,56.03557 -8.005083,56.03557 0,0 -9.784834,-34.48295 -5.146124,-50.88945 2.478798,-8.76718 8.970823,-16.72024 16.581956,-21.72808 5.251956,-3.45559 12.011746,-4.44991 18.297336,-4.57433 4.67163,-0.0925 12.73597,-1.70816 13.72299,2.85895 z"
       id="path9047"
       inkscape:connector-curvature="0"
       sodipodi:nodetypes="ssscssss" />
    <path
       style="fill:#000000;fill-rule:evenodd;stroke:#000000;stroke-width:1px;stroke-linecap:butt;stroke-linejoin:miter;stroke-opacity:1"
       d="m 129.7967,628.66456 c 0,0 11.5328,15.5821 18.29733,20.01271 4.79651,3.1416 12.62163,1.66434 16.01016,6.28971 9.93521,13.56164 3.43075,50.31766 3.43075,50.31766 0,0 9.14193,-37.68081 2.85896,-54.89199 -2.77449,-7.60026 -9.24236,-14.32082 -16.58196,-17.72554 -6.92464,-3.21222 -24.01524,-4.00255 -24.01524,-4.00255 z"
       id="path9049"
       inkscape:connector-curvature="0"
       sodipodi:nodetypes="csacssc" />
  </g>
</svg>
