<?xml version="1.0" encoding="UTF-8" standalone="no"?>
<!-- Created with Inkscape (http://www.inkscape.org/) -->

<svg
   xmlns:dc="http://purl.org/dc/elements/1.1/"
   xmlns:cc="http://creativecommons.org/ns#"
   xmlns:rdf="http://www.w3.org/1999/02/22-rdf-syntax-ns#"
   xmlns:svg="http://www.w3.org/2000/svg"
   xmlns="http://www.w3.org/2000/svg"
   xmlns:xlink="http://www.w3.org/1999/xlink"
   xmlns:sodipodi="http://sodipodi.sourceforge.net/DTD/sodipodi-0.dtd"
   xmlns:inkscape="http://www.inkscape.org/namespaces/inkscape"
   width="3in"
   height="5in"
   viewBox="0 0 270 450.00001"
   id="svg4284"
   version="1.1"
   inkscape:version="0.91 r13725"
   sodipodi:docname="Writer.svg">
  <defs
     id="defs4286">
    <inkscape:path-effect
       effect="spiro"
       id="path-effect4834"
       is_visible="true" />
  </defs>
  <sodipodi:namedview
     id="base"
     pagecolor="#ffffff"
     bordercolor="#666666"
     borderopacity="1.0"
     inkscape:pageopacity="0.0"
     inkscape:pageshadow="2"
     inkscape:zoom="6.6491573"
     inkscape:cx="131.51207"
     inkscape:cy="367.37611"
     inkscape:document-units="px"
     inkscape:current-layer="layer1"
     showgrid="false"
     inkscape:window-width="1920"
     inkscape:window-height="982"
     inkscape:window-x="0"
     inkscape:window-y="28"
     inkscape:window-maximized="1"
     units="in" />
  <metadata
     id="metadata4289">
    <rdf:RDF>
      <cc:Work
         rdf:about="">
        <dc:format>image/svg+xml</dc:format>
        <dc:type
           rdf:resource="http://purl.org/dc/dcmitype/StillImage" />
        <dc:title></dc:title>
      </cc:Work>
    </rdf:RDF>
  </metadata>
  <g
     inkscape:label="Layer 1"
     inkscape:groupmode="layer"
     id="layer1"
     transform="translate(0,-602.36215)">
    <path
       style="fill:none;fill-rule:evenodd;stroke:#000000;stroke-width:1px;stroke-linecap:butt;stroke-linejoin:miter;stroke-opacity:1"
       d="m 38.470789,1048.6392 c 31.370399,-21.0775 55.686763,-52.46767 68.254621,-88.11049 13.77121,-39.05555 13.44068,-81.44651 13.65093,-122.85832 0.19957,-39.30799 1.02704,-78.6128 2.48198,-117.89436"
       id="path4832"
       inkscape:path-effect="#path-effect4834"
       inkscape:original-d="m 38.470789,1048.6392 c 0,0 54.30636,-53.67671 68.254621,-88.11049 15.47001,-38.19049 11.00187,-82.68977 13.65093,-122.85832 2.64906,-40.16855 2.48198,-117.89436 2.48198,-117.89436"
       inkscape:connector-curvature="0"
       sodipodi:nodetypes="cszc" />
    <path
       style="fill:none;fill-rule:evenodd;stroke:#000000;stroke-width:1px;stroke-linecap:butt;stroke-linejoin:miter;stroke-opacity:1"
       d="m 181.185,1054.8442 c 0,0 -68.50917,-126.28091 -60.80866,-188.63097 7.70051,-62.35006 2.48198,-147.67819 2.48198,-147.67819"
       id="path4836"
       inkscape:connector-curvature="0"
       sodipodi:nodetypes="czc" />
    <ellipse
       style="fill:none;fill-opacity:1;stroke:#000000;stroke-opacity:1"
       id="path4840"
       cx="125.96082"
       cy="672.61829"
       rx="40.332279"
       ry="42.193768" />
    <path
       style="fill:none;fill-rule:evenodd;stroke:#000000;stroke-width:1px;stroke-linecap:butt;stroke-linejoin:miter;stroke-opacity:1"
       d="m 114.51567,691.04548 c 0,0 4.66546,2.25165 7.45887,2.41316 2.79341,0.16151 8.77515,-1.75502 8.77515,-1.75502"
       id="path4138"
       inkscape:connector-curvature="0"
       sodipodi:nodetypes="czc" />
    <ellipse
       style="fill:none;fill-opacity:1;stroke:#000000;stroke-width:0.498;stroke-miterlimit:4;stroke-dasharray:none;stroke-opacity:1"
       id="path4140"
       cx="114.95442"
       cy="664.61035"
       rx="3.2906802"
       ry="3.4003694" />
    <ellipse
       ry="3.4003694"
       rx="3.2906802"
       cy="664.39099"
       cx="135.57602"
       id="ellipse4142"
       style="fill:none;fill-opacity:1;stroke:#000000;stroke-width:0.498;stroke-miterlimit:4;stroke-dasharray:none;stroke-opacity:1" />
    <g
       id="g9037"
       transform="translate(-2.2871665,-20.584498)">
      <path
         style="fill:none;fill-rule:evenodd;stroke:#000000;stroke-width:1px;stroke-linecap:butt;stroke-linejoin:miter;stroke-opacity:1"
         d="m 137.22999,803.061 10.86404,50.88946 54.892,-18.29733 -10.29226,-49.17408 z"
         id="path9023"
         inkscape:connector-curvature="0"
         sodipodi:nodetypes="ccccc" />
      <g
         id="g9029">
        <path
           style="fill:#b3b3b3;fill-rule:evenodd;stroke:none;stroke-width:1px;stroke-linecap:butt;stroke-linejoin:miter;stroke-opacity:1"
           d="m 139.27885,803.51728 53.23547,-15.78494 9.90427,-0.15475 -56.02105,17.17772 z"
           id="path9027"
           inkscape:connector-curvature="0" />
        <path
           style="fill:#ffffff;fill-rule:evenodd;stroke:#000000;stroke-width:1px;stroke-linecap:butt;stroke-linejoin:miter;stroke-opacity:1"
           d="m 147.52224,803.63279 10.86404,50.88946 54.892,-18.29733 -10.29226,-49.17408 z"
           id="path9015"
           inkscape:connector-curvature="0"
           sodipodi:nodetypes="ccccc" />
        <text
           xml:space="preserve"
           style="font-style:normal;font-weight:normal;font-size:11.25px;line-height:125%;font-family:sans-serif;letter-spacing:0px;word-spacing:0px;fill:#000000;fill-opacity:1;stroke:none;stroke-width:1px;stroke-linecap:butt;stroke-linejoin:miter;stroke-opacity:1"
           x="-861.25055"
           y="-55.648491"
           id="text9017"
           sodipodi:linespacing="125%"
           transform="matrix(-0.25881903,-0.96592583,0.96592583,-0.25881903,0,0)"><tspan
             sodipodi:role="line"
             id="tspan9019"
             x="-861.25055"
             y="-55.648491">Training</tspan><tspan
             sodipodi:role="line"
             x="-861.25055"
             y="-41.585991"
             id="tspan9021">Manual</tspan></text>
        <path
           style="fill:#b3b3b3;fill-rule:evenodd;stroke:none;stroke-width:1px;stroke-linecap:butt;stroke-linejoin:miter;stroke-opacity:1"
           d="m 146.5523,804.75531 -7.58296,-1.08328 10.05903,50.14039 8.97574,0.46426 z"
           id="path9025"
           inkscape:connector-curvature="0" />
      </g>
    </g>
    <path
       style="fill:none;fill-rule:evenodd;stroke:#000000;stroke-width:1px;stroke-linecap:butt;stroke-linejoin:miter;stroke-opacity:1"
       d="m 34.747809,802.92258 c 0,0 18.148541,-64.13819 44.67575,-78.18257 24.155741,-12.78885 55.281681,-14.94155 81.748731,6.37445 18.02704,14.51858 23.11124,95.45482 23.11124,95.45482"
       id="path4838"
       inkscape:connector-curvature="0"
       sodipodi:nodetypes="casc" />
    <path
       style="fill:#000000;fill-rule:evenodd;stroke:#000000;stroke-width:1px;stroke-linecap:butt;stroke-linejoin:miter;stroke-opacity:1"
       d="m 154.95552,638.38502 c 1.29652,5.9992 -35.17827,1.69223 -40.5972,4.57434 -6.44085,3.42563 -15.97991,1.77491 -20.584495,7.43329 -11.909258,14.63479 2.287166,-1.14359 2.287166,-1.14359 0,0 -16.074542,27.84233 -11.435832,11.43583 2.478798,-8.76718 4.968282,-21.86636 12.579415,-26.8742 5.251956,-3.45559 12.047126,-3.89687 18.297336,-4.57433 16.67925,-1.80787 38.46659,4.58155 39.45361,9.14866 z"
       id="path9047"
       inkscape:connector-curvature="0"
       sodipodi:nodetypes="ssscssss" />
    <path
       style="fill:none;fill-rule:evenodd;stroke:#000000;stroke-width:1px;stroke-linecap:butt;stroke-linejoin:miter;stroke-opacity:1"
       d="m 99.49174,694.4206 1.71537,4.57434 0,0 0,0"
       id="path5038"
       inkscape:connector-curvature="0" />
    <use
       id="use5040"
       xlink:href="#path5038"
       x="0"
       y="0"
       width="100%"
       height="100%"
       transform="translate(-0.42682791,1.9448687)" />
    <use
       id="use5042"
       xlink:href="#path5038"
       x="0"
       y="0"
       width="100%"
       height="100%"
       transform="translate(0.20885652,3.6543492)" />
    <use
       id="use5044"
       xlink:href="#path5038"
       x="0"
       y="0"
       width="100%"
       height="100%"
       transform="translate(-1.0983789,3.1932475)" />
    <use
       id="use5046"
       xlink:href="#path5038"
       x="0"
       y="0"
       width="100%"
       height="100%"
       transform="translate(-1.6687828,0.89838824)" />
    <use
       id="use5048"
       xlink:href="#path5038"
       x="0"
       y="0"
       width="100%"
       height="100%"
       transform="translate(1.8471772,3.9696062)" />
    <use
       id="use5050"
       xlink:href="#path5038"
       x="0"
       y="0"
       width="100%"
       height="100%"
       transform="translate(-0.11369425,3.2289732)" />
    <use
       id="use5052"
       xlink:href="#path5038"
       x="0"
       y="0"
       width="100%"
       height="100%"
       transform="translate(4.9080401,2.791919)" />
    <use
       id="use5054"
       xlink:href="#path5038"
       x="0"
       y="0"
       width="100%"
       height="100%"
       transform="translate(5.360268,2.2065502)" />
    <use
       id="use5056"
       xlink:href="#path5038"
       x="0"
       y="0"
       width="100%"
       height="100%"
       transform="translate(2.2830708,4.4005074)" />
    <use
       id="use5058"
       xlink:href="#path5038"
       x="0"
       y="0"
       width="100%"
       height="100%"
       transform="translate(5.9369809,3.8939737)" />
    <use
       id="use5060"
       xlink:href="#path5038"
       x="0"
       y="0"
       width="100%"
       height="100%"
       transform="translate(8.3661145,6.5729244)" />
    <use
       id="use5062"
       xlink:href="#path5038"
       x="0"
       y="0"
       width="100%"
       height="100%"
       transform="translate(8.5473089,2.559918)" />
    <use
       id="use5064"
       xlink:href="#path5038"
       x="0"
       y="0"
       width="100%"
       height="100%"
       transform="translate(8.9134564,4.6619632)" />
    <use
       id="use5066"
       xlink:href="#path5038"
       x="0"
       y="0"
       width="100%"
       height="100%"
       transform="translate(14.064982,6.6174662)" />
    <use
       id="use5068"
       xlink:href="#path5038"
       x="0"
       y="0"
       width="100%"
       height="100%"
       transform="translate(17.053093,4.735884)" />
    <use
       id="use5070"
       xlink:href="#path5038"
       x="0"
       y="0"
       width="100%"
       height="100%"
       transform="translate(14.480572,4.554276)" />
    <use
       id="use5072"
       xlink:href="#path5038"
       x="0"
       y="0"
       width="100%"
       height="100%"
       transform="translate(16.142936,4.9234569)" />
    <use
       id="use5074"
       xlink:href="#path5038"
       x="0"
       y="0"
       width="100%"
       height="100%"
       transform="translate(19.521794,7.9756578)" />
    <use
       id="use5076"
       xlink:href="#path5038"
       x="0"
       y="0"
       width="100%"
       height="100%"
       transform="translate(24.262774,6.6086358)" />
    <use
       id="use5078"
       xlink:href="#path5038"
       x="0"
       y="0"
       width="100%"
       height="100%"
       transform="translate(29.298348,4.5246873)" />
    <use
       id="use5080"
       xlink:href="#path5038"
       x="0"
       y="0"
       width="100%"
       height="100%"
       transform="translate(32.856523,4.3659079)" />
    <use
       id="use5082"
       xlink:href="#path5038"
       x="0"
       y="0"
       width="100%"
       height="100%"
       transform="translate(34.675994,3.8241296)" />
    <use
       id="use5084"
       xlink:href="#path5038"
       x="0"
       y="0"
       width="100%"
       height="100%"
       transform="translate(36.698655,2.6252618)" />
    <use
       id="use5086"
       xlink:href="#path5038"
       x="0"
       y="0"
       width="100%"
       height="100%"
       transform="translate(40.44277,5.995465)" />
    <use
       id="use5088"
       xlink:href="#path5038"
       x="0"
       y="0"
       width="100%"
       height="100%"
       transform="translate(40.663688,4.5198936)" />
    <use
       id="use5090"
       xlink:href="#path5038"
       x="0"
       y="0"
       width="100%"
       height="100%"
       transform="translate(46.92686,4.1007163)" />
    <use
       id="use5092"
       xlink:href="#path5038"
       x="0"
       y="0"
       width="100%"
       height="100%"
       transform="translate(45.363086,5.6060357)" />
    <use
       id="use5094"
       xlink:href="#path5038"
       x="0"
       y="0"
       width="100%"
       height="100%"
       transform="translate(45.695117,5.1679672)" />
    <use
       id="use5096"
       xlink:href="#path5038"
       x="0"
       y="0"
       width="100%"
       height="100%"
       transform="translate(49.724986,3.1206961)" />
    <use
       id="use5098"
       xlink:href="#path5038"
       x="0"
       y="0"
       width="100%"
       height="100%"
       transform="translate(50.696023,1.6644073)" />
    <use
       id="use5100"
       xlink:href="#path5038"
       x="0"
       y="0"
       width="100%"
       height="100%"
       transform="translate(51.195356,5.2282203)" />
    <use
       id="use5102"
       xlink:href="#path5038"
       x="0"
       y="0"
       width="100%"
       height="100%"
       transform="translate(13.169871,6.6015799)" />
    <use
       id="use5104"
       xlink:href="#path5038"
       x="0"
       y="0"
       width="100%"
       height="100%"
       transform="translate(12.215353,10.285919)" />
    <use
       id="use5106"
       xlink:href="#path5038"
       x="0"
       y="0"
       width="100%"
       height="100%"
       transform="translate(13.636713,11.245048)" />
    <use
       id="use5108"
       xlink:href="#path5038"
       x="0"
       y="0"
       width="100%"
       height="100%"
       transform="translate(16.038745,10.678934)" />
    <use
       id="use5110"
       xlink:href="#path5038"
       x="0"
       y="0"
       width="100%"
       height="100%"
       transform="translate(11.786278,12.172023)" />
    <use
       id="use5112"
       xlink:href="#path5038"
       x="0"
       y="0"
       width="100%"
       height="100%"
       transform="translate(13.895294,12.905123)" />
    <use
       id="use5114"
       xlink:href="#path5038"
       x="0"
       y="0"
       width="100%"
       height="100%"
       transform="translate(13.368865,12.013377)" />
    <use
       id="use5116"
       xlink:href="#path5038"
       x="0"
       y="0"
       width="100%"
       height="100%"
       transform="translate(13.66538,9.426158)" />
    <use
       id="use5118"
       xlink:href="#path5038"
       x="0"
       y="0"
       width="100%"
       height="100%"
       transform="translate(17.424615,12.915392)" />
    <use
       id="use5120"
       xlink:href="#path5038"
       x="0"
       y="0"
       width="100%"
       height="100%"
       transform="translate(17.787946,14.057117)" />
    <use
       id="use5122"
       xlink:href="#path5038"
       x="0"
       y="0"
       width="100%"
       height="100%"
       transform="translate(16.734528,11.608027)" />
    <use
       id="use5124"
       xlink:href="#path5038"
       x="0"
       y="0"
       width="100%"
       height="100%"
       transform="translate(19.150618,13.794434)" />
    <use
       id="use5126"
       xlink:href="#path5038"
       x="0"
       y="0"
       width="100%"
       height="100%"
       transform="translate(24.014933,11.172792)" />
    <use
       id="use5128"
       xlink:href="#path5038"
       x="0"
       y="0"
       width="100%"
       height="100%"
       transform="translate(26.452133,12.757874)" />
    <use
       id="use5130"
       xlink:href="#path5038"
       x="0"
       y="0"
       width="100%"
       height="100%"
       transform="translate(28.920632,11.086139)" />
    <use
       id="use5132"
       xlink:href="#path5038"
       x="0"
       y="0"
       width="100%"
       height="100%"
       transform="translate(34.809138,9.8173036)" />
    <use
       id="use5134"
       xlink:href="#path5038"
       x="0"
       y="0"
       width="100%"
       height="100%"
       transform="translate(32.808278,12.681909)" />
    <use
       id="use5136"
       xlink:href="#path5038"
       x="0"
       y="0"
       width="100%"
       height="100%"
       transform="translate(34.201463,11.521356)" />
    <use
       id="use5138"
       xlink:href="#path5038"
       x="0"
       y="0"
       width="100%"
       height="100%"
       transform="translate(40.609596,13.667814)" />
    <use
       id="use5140"
       xlink:href="#path5038"
       x="0"
       y="0"
       width="100%"
       height="100%"
       transform="translate(41.065371,10.779723)" />
    <use
       id="use5142"
       xlink:href="#path5038"
       x="0"
       y="0"
       width="100%"
       height="100%"
       transform="translate(43.816942,8.6156746)" />
    <use
       id="use5144"
       xlink:href="#path5038"
       x="0"
       y="0"
       width="100%"
       height="100%"
       transform="translate(46.443631,9.2240019)" />
    <use
       id="use5146"
       xlink:href="#path5038"
       x="0"
       y="0"
       width="100%"
       height="100%"
       transform="translate(44.84652,9.3367998)" />
    <use
       id="use5148"
       xlink:href="#path5038"
       x="0"
       y="0"
       width="100%"
       height="100%"
       transform="translate(44.660948,7.7422028)" />
    <use
       id="use5150"
       xlink:href="#path5038"
       x="0"
       y="0"
       width="100%"
       height="100%"
       transform="translate(49.44047,7.7843924)" />
    <use
       id="use5152"
       xlink:href="#path5038"
       x="0"
       y="0"
       width="100%"
       height="100%"
       transform="translate(49.170219,7.0527152)" />
    <use
       id="use5154"
       xlink:href="#path5038"
       x="0"
       y="0"
       width="100%"
       height="100%"
       transform="translate(47.892278,9.2624923)" />
    <use
       id="use5156"
       xlink:href="#path5038"
       x="0"
       y="0"
       width="100%"
       height="100%"
       transform="translate(50.2219,8.4903404)" />
    <use
       id="use5158"
       xlink:href="#path5038"
       x="0"
       y="0"
       width="100%"
       height="100%"
       transform="translate(49.129637,5.9022603)" />
    <use
       id="use5160"
       xlink:href="#path5038"
       x="0"
       y="0"
       width="100%"
       height="100%"
       transform="translate(56.021338,-14.413126)" />
    <use
       id="use5162"
       xlink:href="#path5038"
       x="0"
       y="0"
       width="100%"
       height="100%"
       transform="translate(54.527153,-13.973601)" />
    <use
       id="use5164"
       xlink:href="#path5038"
       x="0"
       y="0"
       width="100%"
       height="100%"
       transform="translate(58.490924,-12.328966)" />
    <use
       id="use5166"
       xlink:href="#path5038"
       x="0"
       y="0"
       width="100%"
       height="100%"
       transform="translate(56.940371,-15.166446)" />
    <use
       id="use5168"
       xlink:href="#path5038"
       x="0"
       y="0"
       width="100%"
       height="100%"
       transform="translate(59.115718,-13.611555)" />
    <use
       id="use5170"
       xlink:href="#path5038"
       x="0"
       y="0"
       width="100%"
       height="100%"
       transform="translate(57.34184,-10.906709)" />
    <use
       id="use5172"
       xlink:href="#path5038"
       x="0"
       y="0"
       width="100%"
       height="100%"
       transform="translate(56.336917,-9.0959184)" />
    <use
       id="use5174"
       xlink:href="#path5038"
       x="0"
       y="0"
       width="100%"
       height="100%"
       transform="translate(57.100529,-9.4298894)" />
    <use
       id="use5176"
       xlink:href="#path5038"
       x="0"
       y="0"
       width="100%"
       height="100%"
       transform="translate(56.306161,-11.857208)" />
    <use
       id="use5178"
       xlink:href="#path5038"
       x="0"
       y="0"
       width="100%"
       height="100%"
       transform="translate(59.218225,-7.3337141)" />
    <use
       id="use5180"
       xlink:href="#path5038"
       x="0"
       y="0"
       width="100%"
       height="100%"
       transform="translate(58.453337,-10.893926)" />
    <use
       id="use5182"
       xlink:href="#path5038"
       x="0"
       y="0"
       width="100%"
       height="100%"
       transform="translate(58.9563,-5.7545258)" />
    <use
       id="use5184"
       xlink:href="#path5038"
       x="0"
       y="0"
       width="100%"
       height="100%"
       transform="translate(54.840205,-7.5992844)" />
    <use
       id="use5186"
       xlink:href="#path5038"
       x="0"
       y="0"
       width="100%"
       height="100%"
       transform="translate(55.106824,-5.8873709)" />
    <use
       id="use5188"
       xlink:href="#path5038"
       x="0"
       y="0"
       width="100%"
       height="100%"
       transform="translate(59.171644,-4.3896916)" />
    <use
       id="use5190"
       xlink:href="#path5038"
       x="0"
       y="0"
       width="100%"
       height="100%"
       transform="translate(54.865198,-4.6111175)" />
    <use
       id="use5192"
       xlink:href="#path5038"
       x="0"
       y="0"
       width="100%"
       height="100%"
       transform="translate(55.517416,-3.7448199)" />
    <use
       id="use5194"
       xlink:href="#path5038"
       x="0"
       y="0"
       width="100%"
       height="100%"
       transform="translate(54.72461,-3.207226)" />
    <use
       id="use5196"
       xlink:href="#path5038"
       x="0"
       y="0"
       width="100%"
       height="100%"
       transform="translate(57.337237,-1.7477012)" />
    <use
       id="use5198"
       xlink:href="#path5038"
       x="0"
       y="0"
       width="100%"
       height="100%"
       transform="translate(56.327482,0.70987508)" />
    <use
       id="use5200"
       xlink:href="#path5038"
       x="0"
       y="0"
       width="100%"
       height="100%"
       transform="translate(55.570172,0.3598727)" />
    <use
       id="use5202"
       xlink:href="#path5038"
       x="0"
       y="0"
       width="100%"
       height="100%"
       transform="translate(54.856864,-2.9660702)" />
    <use
       id="use5204"
       xlink:href="#path5038"
       x="0"
       y="0"
       width="100%"
       height="100%"
       transform="translate(56.155985,-0.12792244)" />
    <use
       id="use5206"
       xlink:href="#path5038"
       x="0"
       y="0"
       width="100%"
       height="100%"
       transform="translate(57.273026,0.45295966)" />
    <use
       id="use5208"
       xlink:href="#path5038"
       x="0"
       y="0"
       width="100%"
       height="100%"
       transform="translate(53.754682,-1.5558795)" />
    <use
       id="use5210"
       xlink:href="#path5038"
       x="0"
       y="0"
       width="100%"
       height="100%"
       transform="translate(52.833892,-0.70483329)" />
    <use
       id="use5212"
       xlink:href="#path5038"
       x="0"
       y="0"
       width="100%"
       height="100%"
       transform="translate(55.83191,-0.32569276)" />
    <use
       id="use5214"
       xlink:href="#path5038"
       x="0"
       y="0"
       width="100%"
       height="100%"
       transform="translate(52.657597,0.53669057)" />
    <use
       id="use5216"
       xlink:href="#path5038"
       x="0"
       y="0"
       width="100%"
       height="100%"
       transform="translate(55.046462,3.4229367)" />
    <use
       id="use5218"
       xlink:href="#path5038"
       x="0"
       y="0"
       width="100%"
       height="100%"
       transform="translate(52.403724,1.5797472)" />
    <use
       id="use5220"
       xlink:href="#path5038"
       x="0"
       y="0"
       width="100%"
       height="100%"
       transform="translate(57.20707,3.3298204)" />
    <use
       id="use5222"
       xlink:href="#path5038"
       x="0"
       y="0"
       width="100%"
       height="100%"
       transform="translate(-7.283132,-13.090438)" />
    <use
       id="use5224"
       xlink:href="#path5038"
       x="0"
       y="0"
       width="100%"
       height="100%"
       transform="translate(-5.1354979,-12.882124)" />
    <use
       id="use5226"
       xlink:href="#path5038"
       x="0"
       y="0"
       width="100%"
       height="100%"
       transform="translate(-2.6929421,-13.043031)" />
    <use
       id="use5228"
       xlink:href="#path5038"
       x="0"
       y="0"
       width="100%"
       height="100%"
       transform="translate(-2.2290943,-12.250193)" />
    <use
       id="use5230"
       xlink:href="#path5038"
       x="0"
       y="0"
       width="100%"
       height="100%"
       transform="translate(-4.02885,-9.7517525)" />
    <use
       id="use5232"
       xlink:href="#path5038"
       x="0"
       y="0"
       width="100%"
       height="100%"
       transform="translate(-5.9176388,-11.582774)" />
    <use
       id="use5234"
       xlink:href="#path5038"
       x="0"
       y="0"
       width="100%"
       height="100%"
       transform="translate(-3.9849474,-12.706997)" />
    <use
       id="use5236"
       xlink:href="#path5038"
       x="0"
       y="0"
       width="100%"
       height="100%"
       transform="translate(-2.8220413,-11.313686)" />
    <use
       id="use5238"
       xlink:href="#path5038"
       x="0"
       y="0"
       width="100%"
       height="100%"
       transform="translate(-5.4060141,-8.5478915)" />
    <use
       id="use5240"
       xlink:href="#path5038"
       x="0"
       y="0"
       width="100%"
       height="100%"
       transform="translate(-2.6366283,-9.6723626)" />
    <use
       id="use5242"
       xlink:href="#path5038"
       x="0"
       y="0"
       width="100%"
       height="100%"
       transform="translate(-0.61029491,-5.2441507)" />
    <use
       id="use5244"
       xlink:href="#path5038"
       x="0"
       y="0"
       width="100%"
       height="100%"
       transform="translate(-2.0736795,-8.9648729)" />
    <use
       id="use5246"
       xlink:href="#path5038"
       x="0"
       y="0"
       width="100%"
       height="100%"
       transform="translate(-3.190981,-5.5323558)" />
    <use
       id="use5248"
       xlink:href="#path5038"
       x="0"
       y="0"
       width="100%"
       height="100%"
       transform="translate(0.9644744,-3.0169186)" />
    <use
       id="use5250"
       xlink:href="#path5038"
       x="0"
       y="0"
       width="100%"
       height="100%"
       transform="translate(-3.225085,-5.441751)" />
    <use
       id="use5252"
       xlink:href="#path5038"
       x="0"
       y="0"
       width="100%"
       height="100%"
       transform="translate(1.4351542,-0.13036762)" />
    <use
       id="use5254"
       xlink:href="#path5038"
       x="0"
       y="0"
       width="100%"
       height="100%"
       transform="translate(-0.23955996,-3.1005059)" />
    <use
       id="use5256"
       xlink:href="#path5038"
       x="0"
       y="0"
       width="100%"
       height="100%"
       transform="translate(2.2948485,3.9963359)" />
    <use
       id="use5258"
       xlink:href="#path5038"
       x="0"
       y="0"
       width="100%"
       height="100%"
       transform="translate(4.5986345,3.1886206)" />
    <use
       id="use5260"
       xlink:href="#path5038"
       x="0"
       y="0"
       width="100%"
       height="100%"
       transform="translate(5.9869532,0.65358637)" />
    <use
       id="use5262"
       xlink:href="#path5038"
       x="0"
       y="0"
       width="100%"
       height="100%"
       transform="translate(6.9164404,4.1336857)" />
    <use
       id="use5264"
       xlink:href="#path5038"
       x="0"
       y="0"
       width="100%"
       height="100%"
       transform="translate(5.0597519,2.5697108)" />
    <use
       id="use5266"
       xlink:href="#path5038"
       x="0"
       y="0"
       width="100%"
       height="100%"
       transform="translate(8.8132468,3.7347035)" />
    <use
       id="use5268"
       xlink:href="#path5038"
       x="0"
       y="0"
       width="100%"
       height="100%"
       transform="translate(10.107794,8.9198209)" />
    <use
       id="use5270"
       xlink:href="#path5038"
       x="0"
       y="0"
       width="100%"
       height="100%"
       transform="translate(7.722015,7.7259909)" />
    <use
       id="use5272"
       xlink:href="#path5038"
       x="0"
       y="0"
       width="100%"
       height="100%"
       transform="translate(8.3155497,7.9035135)" />
    <use
       id="use5274"
       xlink:href="#path5038"
       x="0"
       y="0"
       width="100%"
       height="100%"
       transform="translate(9.7548425,9.4019723)" />
    <use
       id="use5276"
       xlink:href="#path5038"
       x="0"
       y="0"
       width="100%"
       height="100%"
       transform="translate(13.383528,6.2942459)" />
    <use
       id="use5278"
       xlink:href="#path5038"
       x="0"
       y="0"
       width="100%"
       height="100%"
       transform="translate(11.201291,6.9172404)" />
    <use
       id="use5280"
       xlink:href="#path5038"
       x="0"
       y="0"
       width="100%"
       height="100%"
       transform="translate(11.721269,9.2253478)" />
    <use
       id="use5282"
       xlink:href="#path5038"
       x="0"
       y="0"
       width="100%"
       height="100%"
       transform="translate(12.682858,11.698373)" />
    <use
       id="use5284"
       xlink:href="#path5038"
       x="0"
       y="0"
       width="100%"
       height="100%"
       transform="translate(16.908413,9.2385554)" />
    <use
       id="use5286"
       xlink:href="#path5038"
       x="0"
       y="0"
       width="100%"
       height="100%"
       transform="translate(17.981645,10.871184)" />
    <use
       id="use5288"
       xlink:href="#path5038"
       x="0"
       y="0"
       width="100%"
       height="100%"
       transform="translate(18.91291,11.285773)" />
    <use
       id="use5290"
       xlink:href="#path5038"
       x="0"
       y="0"
       width="100%"
       height="100%"
       transform="translate(20.757798,12.018849)" />
    <use
       id="use5292"
       xlink:href="#path5038"
       x="0"
       y="0"
       width="100%"
       height="100%"
       transform="translate(23.644167,11.309831)" />
    <use
       id="use5294"
       xlink:href="#path5038"
       x="0"
       y="0"
       width="100%"
       height="100%"
       transform="translate(22.768877,12.89436)" />
    <use
       id="use5296"
       xlink:href="#path5038"
       x="0"
       y="0"
       width="100%"
       height="100%"
       transform="translate(30.944332,11.991024)" />
    <use
       id="use5298"
       xlink:href="#path5038"
       x="0"
       y="0"
       width="100%"
       height="100%"
       transform="translate(32.668102,9.0888278)" />
    <use
       id="use5300"
       xlink:href="#path5038"
       x="0"
       y="0"
       width="100%"
       height="100%"
       transform="translate(30.121509,9.545366)" />
    <use
       id="use5302"
       xlink:href="#path5038"
       x="0"
       y="0"
       width="100%"
       height="100%"
       transform="translate(34.75173,12.091582)" />
    <use
       id="use5304"
       xlink:href="#path5038"
       x="0"
       y="0"
       width="100%"
       height="100%"
       transform="translate(34.296917,13.106578)" />
    <use
       id="use5306"
       xlink:href="#path5038"
       x="0"
       y="0"
       width="100%"
       height="100%"
       transform="translate(37.947996,10.808914)" />
    <use
       id="use5308"
       xlink:href="#path5038"
       x="0"
       y="0"
       width="100%"
       height="100%"
       transform="translate(33.856426,9.5292549)" />
    <use
       id="use5310"
       xlink:href="#path5038"
       x="0"
       y="0"
       width="100%"
       height="100%"
       transform="translate(36.677877,11.927689)" />
    <use
       id="use5312"
       xlink:href="#path5038"
       x="0"
       y="0"
       width="100%"
       height="100%"
       transform="translate(36.73776,7.7373853)" />
    <use
       id="use5314"
       xlink:href="#path5038"
       x="0"
       y="0"
       width="100%"
       height="100%"
       transform="translate(35.576956,8.8250038)" />
    <use
       id="use5316"
       xlink:href="#path5038"
       x="0"
       y="0"
       width="100%"
       height="100%"
       transform="translate(36.912149,9.3511721)" />
    <use
       id="use5318"
       xlink:href="#path5038"
       x="0"
       y="0"
       width="100%"
       height="100%"
       transform="translate(35.584957,7.4921965)" />
    <use
       id="use5320"
       xlink:href="#path5038"
       x="0"
       y="0"
       width="100%"
       height="100%"
       transform="translate(34.40514,5.6559774)" />
    <use
       id="use5322"
       xlink:href="#path5038"
       x="0"
       y="0"
       width="100%"
       height="100%"
       transform="translate(37.033565,6.9108912)" />
    <use
       id="use5324"
       xlink:href="#path5038"
       x="0"
       y="0"
       width="100%"
       height="100%"
       transform="translate(37.789565,4.7578937)" />
    <use
       id="use5326"
       xlink:href="#path5038"
       x="0"
       y="0"
       width="100%"
       height="100%"
       transform="translate(34.478143,5.1089935)" />
    <use
       id="use5328"
       xlink:href="#path5038"
       x="0"
       y="0"
       width="100%"
       height="100%"
       transform="translate(35.686848,5.6327215)" />
    <use
       id="use5330"
       xlink:href="#path5038"
       x="0"
       y="0"
       width="100%"
       height="100%"
       transform="translate(34.101094,7.0883226)" />
    <use
       id="use5332"
       xlink:href="#path5038"
       x="0"
       y="0"
       width="100%"
       height="100%"
       transform="translate(32.984464,9.0402091)" />
    <use
       id="use5334"
       xlink:href="#path5038"
       x="0"
       y="0"
       width="100%"
       height="100%"
       transform="translate(33.42823,3.2777495)" />
    <use
       id="use5336"
       xlink:href="#path5038"
       x="0"
       y="0"
       width="100%"
       height="100%"
       transform="translate(32.461405,7.3311871)" />
    <use
       id="use5338"
       xlink:href="#path5038"
       x="0"
       y="0"
       width="100%"
       height="100%"
       transform="translate(28.455694,4.7741885)" />
    <use
       id="use5340"
       xlink:href="#path5038"
       x="0"
       y="0"
       width="100%"
       height="100%"
       transform="translate(25.860725,5.955325)" />
    <use
       id="use5342"
       xlink:href="#path5038"
       x="0"
       y="0"
       width="100%"
       height="100%"
       transform="translate(24.7814,9.7858231)" />
    <use
       id="use5344"
       xlink:href="#path5038"
       x="0"
       y="0"
       width="100%"
       height="100%"
       transform="translate(19.817088,9.0760541)" />
    <use
       id="use5346"
       xlink:href="#path5038"
       x="0"
       y="0"
       width="100%"
       height="100%"
       transform="translate(15.304847,5.8565665)" />
    <use
       id="use5348"
       xlink:href="#path5038"
       x="0"
       y="0"
       width="100%"
       height="100%"
       transform="translate(12.505397,6.5804858)" />
    <use
       id="use5350"
       xlink:href="#path5038"
       x="0"
       y="0"
       width="100%"
       height="100%"
       transform="translate(12.573666,5.019407)" />
    <use
       id="use5352"
       xlink:href="#path5038"
       x="0"
       y="0"
       width="100%"
       height="100%"
       transform="translate(9.4241049,7.9041908)" />
    <use
       id="use5354"
       xlink:href="#path5038"
       x="0"
       y="0"
       width="100%"
       height="100%"
       transform="translate(11.32697,9.8595383)" />
  </g>
</svg>
