<?xml version="1.0" encoding="UTF-8" standalone="no"?>
<!-- Created with Inkscape (http://www.inkscape.org/) -->

<svg
   xmlns:dc="http://purl.org/dc/elements/1.1/"
   xmlns:cc="http://creativecommons.org/ns#"
   xmlns:rdf="http://www.w3.org/1999/02/22-rdf-syntax-ns#"
   xmlns:svg="http://www.w3.org/2000/svg"
   xmlns="http://www.w3.org/2000/svg"
   xmlns:sodipodi="http://sodipodi.sourceforge.net/DTD/sodipodi-0.dtd"
   xmlns:inkscape="http://www.inkscape.org/namespaces/inkscape"
   width="3in"
   height="5in"
   viewBox="0 0 270 450.00001"
   id="svg4284"
   version="1.1"
   inkscape:version="0.91 r13725"
   sodipodi:docname="alice_sm001.svg">
  <defs
     id="defs4286">
    <inkscape:path-effect
       effect="spiro"
       id="path-effect4834"
       is_visible="true" />
  </defs>
  <sodipodi:namedview
     id="base"
     pagecolor="#ffffff"
     bordercolor="#666666"
     borderopacity="1.0"
     inkscape:pageopacity="0.0"
     inkscape:pageshadow="2"
     inkscape:zoom="8.2212948"
     inkscape:cx="116.60288"
     inkscape:cy="390.24415"
     inkscape:document-units="px"
     inkscape:current-layer="layer1"
     showgrid="false"
     inkscape:window-width="1566"
     inkscape:window-height="849"
     inkscape:window-x="89"
     inkscape:window-y="117"
     inkscape:window-maximized="0"
     units="in" />
  <metadata
     id="metadata4289">
    <rdf:RDF>
      <cc:Work
         rdf:about="">
        <dc:format>image/svg+xml</dc:format>
        <dc:type
           rdf:resource="http://purl.org/dc/dcmitype/StillImage" />
        <dc:title />
      </cc:Work>
    </rdf:RDF>
  </metadata>
  <g
     inkscape:label="Layer 1"
     inkscape:groupmode="layer"
     id="layer1"
     transform="translate(0,-602.36215)">
    <path
       style="fill:none;fill-rule:evenodd;stroke:#000000;stroke-width:1px;stroke-linecap:butt;stroke-linejoin:miter;stroke-opacity:1"
       d="m 39.005897,1035.5196 c 31.3704,-21.0775 55.686765,-52.46769 68.254623,-88.11051 13.77121,-39.05556 13.44068,-81.44651 13.65093,-122.85832 0.19957,-39.30799 1.02704,-78.6128 2.48198,-117.89436"
       id="path4832"
       inkscape:path-effect="#path-effect4834"
       inkscape:original-d="m 39.005897,1035.5196 c 0,0 54.30636,-53.67673 68.254623,-88.11051 15.47001,-38.19049 11.00187,-82.68977 13.65093,-122.85832 2.64906,-40.16855 2.48198,-117.89436 2.48198,-117.89436"
       inkscape:connector-curvature="0"
       sodipodi:nodetypes="cszc" />
    <path
       style="fill:none;fill-rule:evenodd;stroke:#000000;stroke-width:1px;stroke-linecap:butt;stroke-linejoin:miter;stroke-opacity:1"
       d="m 181.72011,1041.7246 c 0,0 -68.50917,-126.28093 -60.80866,-188.63099 7.70051,-62.35006 2.48198,-147.67819 2.48198,-147.67819"
       id="path4836"
       inkscape:connector-curvature="0"
       sodipodi:nodetypes="czc" />
    <path
       style="fill:none;fill-rule:evenodd;stroke:#000000;stroke-width:1px;stroke-linecap:butt;stroke-linejoin:miter;stroke-opacity:1"
       d="m 35.282917,789.80296 c 0,0 19.18565,-62.33352 44.67575,-78.18257 28.859713,-17.94419 70.253033,6.52676 101.761443,-6.20497 27.74749,-11.21204 68.25463,-48.39873 68.25463,-48.39873"
       id="path4838"
       inkscape:connector-curvature="0"
       sodipodi:nodetypes="casc" />
    <ellipse
       style="fill:none;fill-opacity:1;stroke:#000000;stroke-opacity:1"
       id="path4840"
       cx="126.49593"
       cy="659.49866"
       rx="40.332279"
       ry="42.193768" />
    <path
       style="fill:#f5d300;fill-opacity:1;stroke:#000000;stroke-opacity:1"
       id="path4140"
       d="m 75.479137,694.408 c 0.56976,-2.28912 1.30796,-4.53224 1.90637,-6.81336 0.57471,-1.8063 0.98087,-3.65736 1.49638,-5.47972 0.51886,-1.62297 0.59506,-3.33218 0.98635,-4.98144 0.43787,-1.49009 0.59671,-3.02978 0.6898,-4.57326 0.0772,-1.72377 0.0718,-3.44986 0.0723,-5.17495 -0.002,-1.75665 -0.005,-3.51329 -0.006,-5.26994 -10e-4,-1.75559 -10e-4,-3.51118 -0.002,-5.26678 -0.0968,-1.59774 0.34013,-3.1432 0.58812,-4.70613 0.141,-1.69855 0.32281,-3.37617 0.63337,-5.05295 0.21008,-1.77562 0.64559,-3.50737 0.98632,-5.25915 0.32711,-1.58459 0.9262,-3.09293 1.44529,-4.62003 0.50954,-1.49863 1.21782,-2.93121 2.05003,-4.27586 0.60701,-1.30578 1.44662,-2.38342 2.52824,-3.32337 4.74346,-3.77972 10.50412,-6.48045 15.646543,-9.42677 1.69026,-0.67475 3.37107,-1.32746 5.0414,-2.03976 1.59361,-0.45743 3.13873,-1.0113 4.77792,-1.30103 1.74679,-0.25517 3.51558,-0.27164 5.27721,-0.2883 1.75914,-0.007 3.5183,6.3e-4 5.27744,0.004 1.78885,0.0489 3.20948,0.0809 4.94888,-0.35364 1.55482,-0.3659 3.15466,-0.43613 4.74453,-0.49045 1.73913,-0.0425 3.47897,-0.0364 5.21848,-0.0349 1.7568,0.003 3.5136,0.005 5.2704,0.006 1.75539,8.5e-4 3.51078,8.8e-4 5.26617,9.2e-4 1.75328,-0.2086 3.27766,0.35102 4.87434,0.96355 1.37693,0.85992 2.69855,1.84384 3.85594,2.98549 0.92657,1.07439 1.62519,2.2883 2.31622,3.51996 0.77379,1.02606 1.38259,2.16056 2.06825,3.2476 0.62401,1.32474 1.32557,2.58523 2.11883,3.81407 0.69245,1.28321 1.26123,2.63368 2.15159,3.79667 0.76176,1.19345 1.5527,2.37429 2.24623,3.61176 0.80742,1.18888 1.57922,2.42328 2.18817,3.72746 0.58717,1.4408 0.61896,3.00544 0.98515,4.50239 0.42311,1.56304 0.5589,3.17576 0.64444,4.78616 0.0694,1.74537 0.0646,3.49257 0.0649,5.23899 -0.002,1.75707 -0.004,3.51414 -0.006,5.27121 0.18972,1.50231 0.5229,2.97718 0.69198,4.48456 0.16105,1.71548 0.17358,3.44 0.18644,5.16155 0.007,1.75677 0.003,3.51357 7.2e-4,5.27035 -0.0634,1.54035 0.37616,3.03407 0.59897,4.54735 0.26202,1.62653 0.14501,3.28397 0.34184,4.91336 0.15963,1.39618 0.7887,2.6504 1.17474,3.9858 0.40724,1.08061 0.86029,2.20679 1.84409,2.87443 0.16751,0.0642 0.33503,0.12841 0.50255,0.19261 0,0 -10.92027,7.15396 -10.92027,7.15396 l 0,0 c -0.21604,-0.13725 -0.43209,-0.27449 -0.64813,-0.41174 -1.0672,-0.9823 -1.75204,-2.21228 -2.23656,-3.57509 -0.3685,-1.39656 -1.06128,-2.68074 -1.24062,-4.12903 -0.28506,-1.62562 -0.11778,-3.28991 -0.34785,-4.92712 -0.20595,-1.57681 -0.68769,-3.12131 -0.66765,-4.7162 0.002,-1.75388 0.006,-3.50777 0.003,-5.26166 -0.008,-1.68161 -0.0114,-3.36546 -0.13896,-5.04322 -0.14783,-1.55585 -0.45804,-3.07639 -0.74256,-4.61112 0.001,-1.75689 0.003,-3.51379 0.006,-5.27068 0.001,-1.7271 0.008,-3.45466 -0.0426,-5.1812 -0.0623,-1.52746 -0.15033,-3.06294 -0.54054,-4.54863 -0.36485,-1.42538 -0.44055,-2.8827 -0.87291,-4.28873 -0.57562,-1.27988 -1.35461,-2.46898 -2.12488,-3.63818 -0.6749,-1.18619 -1.44849,-2.31706 -2.17364,-3.47061 -0.86648,-1.21131 -1.5123,-2.54643 -2.19715,-3.86509 -0.79201,-1.23088 -1.48489,-2.49994 -2.11594,-3.81956 -0.71542,-1.09953 -1.33717,-2.25295 -2.11525,-3.30962 -0.62615,-1.11865 -1.24324,-2.23392 -2.10714,-3.19288 -1.07092,-0.98534 -2.22506,-1.94022 -3.55793,-2.54434 -1.50184,-0.53465 -3.00232,-0.70375 -4.59869,-0.59334 -1.75553,-1.4e-4 -3.51107,-3.4e-4 -5.2666,-0.002 -1.75655,-10e-4 -3.5131,-0.005 -5.26965,-0.004 -1.72878,0.003 -3.45872,0.002 -5.1857,0.0912 -1.56367,0.10414 -3.11537,0.29352 -4.64387,0.65041 -1.68303,0.24865 -3.38805,0.10224 -5.08412,0.13464 -1.75413,-0.004 -3.50845,-0.0129 -5.26241,0.0165 -1.71799,0.0447 -3.44688,0.10732 -5.12888,0.49366 -1.57091,0.40257 -3.12663,0.90203 -4.631283,1.50515 -1.64711,0.71022 -3.37403,1.24111 -4.9538,2.10782 19.374323,-11.23494 10.618813,-6.51732 6.591203,-3.58846 -1.074673,0.81391 -2.239273,1.58955 -2.709503,2.91275 -0.77539,1.31011 -1.59919,2.5781 -2.19386,3.99286 -0.42945,1.52012 -1.03519,2.97813 -1.52351,4.48002 -0.29246,1.76546 -0.82016,3.47502 -0.98362,5.26053 -0.2965,1.66421 -0.63317,3.2967 -0.64149,4.99713 -0.18531,1.53064 -0.6582,3.01594 -0.68375,4.55222 5e-5,1.75534 6e-5,3.51067 0.001,5.266 10e-4,1.75675 0.003,3.51349 0.006,5.27024 0.002,1.74308 0.009,3.48658 -0.0373,5.22921 -0.0613,1.61347 -0.14471,3.23824 -0.56007,4.80698 -0.468,1.65586 -0.59671,3.34344 -0.99757,5.01913 -0.51637,1.81805 -0.90776,3.66447 -1.53312,5.45152 -0.54604,2.30174 -1.44705,4.49496 -1.84607,6.83338 0,0 -11.77532,5.59271 -11.77532,5.59271 z"
       inkscape:connector-curvature="0" />
    <path
       style="fill:none;fill-rule:evenodd;stroke:#000000;stroke-width:1px;stroke-linecap:butt;stroke-linejoin:miter;stroke-opacity:1"
       d="m 112.84404,678.05022 c 0,0 8.21095,3.93909 12.38532,4.12844 4.17437,0.18935 11.69725,-2.75229 11.69725,-2.75229 l 0,0"
       id="path4139"
       inkscape:connector-curvature="0"
       sodipodi:nodetypes="czcc" />
    <ellipse
       style="fill:none;fill-opacity:1;stroke:#000000;stroke-width:0.498;stroke-miterlimit:4;stroke-dasharray:none;stroke-opacity:1"
       id="path4141"
       cx="113.87614"
       cy="651.55939"
       rx="2.4082568"
       ry="3.0963302" />
    <ellipse
       ry="0.88674831"
       rx="2.5209227"
       cy="651.47339"
       cx="135.55045"
       id="ellipse4143"
       style="fill:none;fill-opacity:1;stroke:#000000;stroke-width:0.27266806;stroke-miterlimit:4;stroke-dasharray:none;stroke-opacity:1" />
    <path
       style="fill:none;fill-rule:evenodd;stroke:#000000;stroke-width:1px;stroke-linecap:butt;stroke-linejoin:miter;stroke-opacity:1"
       d="m 132.79817,646.05481 c 3.44036,-0.34404 2.24964,-0.53994 3.61238,-0.34404 1.36274,0.1959 4.30046,1.72019 4.30046,1.72019 l 0,0"
       id="path4142"
       inkscape:connector-curvature="0"
       sodipodi:nodetypes="czcc" />
  </g>
</svg>
