<?xml version="1.0" encoding="UTF-8" standalone="no"?>
<!-- Created with Inkscape (http://www.inkscape.org/) -->

<svg
   xmlns:dc="http://purl.org/dc/elements/1.1/"
   xmlns:cc="http://creativecommons.org/ns#"
   xmlns:rdf="http://www.w3.org/1999/02/22-rdf-syntax-ns#"
   xmlns:svg="http://www.w3.org/2000/svg"
   xmlns="http://www.w3.org/2000/svg"
   xmlns:sodipodi="http://sodipodi.sourceforge.net/DTD/sodipodi-0.dtd"
   xmlns:inkscape="http://www.inkscape.org/namespaces/inkscape"
   width="8in"
   height="5in"
   viewBox="0 0 720.00001 450.00001"
   id="svg2"
   version="1.1"
   inkscape:version="0.91 r13725"
   sodipodi:docname="WB_rocket3.svg">
  <defs
     id="defs4">
    <inkscape:perspective
       sodipodi:type="inkscape:persp3d"
       inkscape:vp_x="0 : 225 : 1"
       inkscape:vp_y="0 : 1000 : 0"
       inkscape:vp_z="720.00001 : 225 : 1"
       inkscape:persp3d-origin="360 : 150 : 1"
       id="perspective4153" />
  </defs>
  <sodipodi:namedview
     id="base"
     pagecolor="#ffffff"
     bordercolor="#666666"
     borderopacity="1.0"
     inkscape:pageopacity="0.0"
     inkscape:pageshadow="2"
     inkscape:zoom="3.4003979"
     inkscape:cx="191.55021"
     inkscape:cy="288.51491"
     inkscape:document-units="px"
     inkscape:current-layer="layer1"
     showgrid="true"
     units="in"
     inkscape:snap-grids="true"
     showguides="false"
     inkscape:snap-to-guides="false"
     inkscape:window-width="1532"
     inkscape:window-height="736"
     inkscape:window-x="163"
     inkscape:window-y="163"
     inkscape:window-maximized="0">
    <inkscape:grid
       type="xygrid"
       id="grid4136" />
  </sodipodi:namedview>
  <metadata
     id="metadata7">
    <rdf:RDF>
      <cc:Work
         rdf:about="">
        <dc:format>image/svg+xml</dc:format>
        <dc:type
           rdf:resource="http://purl.org/dc/dcmitype/StillImage" />
        <dc:title></dc:title>
      </cc:Work>
    </rdf:RDF>
  </metadata>
  <g
     inkscape:label="Layer 1"
     inkscape:groupmode="layer"
     id="layer1"
     transform="translate(0,-602.36215)">
    <rect
       style="fill:#7d7d7e;fill-opacity:1;stroke:#000000;stroke-width:1.098;stroke-miterlimit:4;stroke-dasharray:none;stroke-opacity:1"
       id="rect4138"
       width="610"
       height="360"
       x="50"
       y="642.36212" />
    <rect
       style="fill:#ffffff;fill-opacity:1;stroke:#000000;stroke-width:1.09800005;stroke-miterlimit:4;stroke-dasharray:none;stroke-opacity:1"
       id="rect4151"
       width="590"
       height="340.00003"
       x="60"
       y="652.36212" />
    <rect
       style="fill:#001a12;fill-opacity:1;stroke:#000000;stroke-width:1.09800005;stroke-miterlimit:4;stroke-dasharray:none;stroke-opacity:1"
       id="rect4193"
       width="80"
       height="20"
       x="70"
       y="982.36212" />
    <rect
       style="fill:#ff1a12;fill-opacity:1;stroke:#000000;stroke-width:1.09800005;stroke-miterlimit:4;stroke-dasharray:none;stroke-opacity:1"
       id="rect4195"
       width="40"
       height="10"
       x="180"
       y="982.36212" />
    <rect
       y="981.53033"
       x="243.21626"
       height="10"
       width="40"
       id="rect4197"
       style="fill:#00ff00;fill-opacity:1;stroke:#f60000;stroke-width:1.09800005;stroke-miterlimit:4;stroke-dasharray:none;stroke-opacity:1" />
    <rect
       style="fill:#ffff00;fill-opacity:1;stroke:#000000;stroke-width:1.09800005;stroke-miterlimit:4;stroke-dasharray:none;stroke-opacity:1"
       id="rect4199"
       width="40"
       height="10"
       x="297.28281"
       y="981.53033" />
    <rect
       style="fill:#000080;fill-opacity:1;stroke:#000000;stroke-width:1.09800005;stroke-miterlimit:4;stroke-dasharray:none;stroke-opacity:1"
       id="rect4203"
       width="40"
       height="10"
       x="467.80035"
       y="983.19391" />
    <path
       style="fill:#0000ff;fill-opacity:1;stroke:#1700ea;stroke-width:1.09800005;stroke-miterlimit:4;stroke-dasharray:none;stroke-opacity:1"
       id="path4243"
       d="m 158.51702,749.7659 c 2.70566,-0.64479 5.47326,-0.90289 8.24057,-1.09949 2.98055,-0.15842 5.96667,-0.14814 8.95045,-0.16951 2.16401,-0.021 4.32803,-0.0167 6.49208,-0.0137 2.3246,0.08 4.61837,0.0201 6.92314,-0.27689 2.60661,-0.34951 5.2347,-0.42019 7.8599,-0.48909 2.38188,-0.0514 4.7646,-0.0593 7.14697,-0.0692 1.77672,-0.006 3.55346,-0.007 5.33019,-0.007 1.88748,0.0109 3.77505,0.004 5.66254,0.0137 1.95443,0.003 3.90885,-0.005 5.86327,-0.009 1.74754,-0.13816 3.43522,0.33216 5.15278,0.57134 1.55218,0.0215 2.99734,0.57126 4.51127,0.83728 1.46134,0.65619 3.08968,0.67225 4.591,1.15106 1.34032,0.29862 2.51145,0.99142 3.84616,1.30812 1.42696,0.64359 2.96189,0.88129 4.50637,1.02278 1.40341,0.38176 2.79167,0.68536 4.15509,1.18344 1.15916,0.66132 2.21847,1.41826 2.9883,2.5192 0.68077,1.21743 0.78434,2.5685 -0.0647,3.71196 -0.78997,0.8936 -1.70524,1.69052 -2.62767,2.44892 -4.42278,2.96214 -9.03529,5.71895 -13.9336,7.7219 -1.43644,0.35489 -2.88492,0.51743 -4.32616,0.85571 -1.65948,0.27767 -3.30331,0.4458 -4.94383,0.81634 -1.6628,0.36359 -3.3638,0.45753 -5.05957,0.51475 -1.63345,0.41036 -3.29849,0.63106 -4.97501,0.7575 -1.68847,-0.0296 -3.30599,0.44621 -4.96812,0.6785 -1.67213,0.20569 -3.35849,0.23216 -5.04089,0.25168 -1.90712,-0.0614 -3.77707,0.34622 -5.67009,0.54227 -1.96241,0.19778 -3.93433,0.25483 -5.90519,0.28342 -1.69266,0.0163 -3.38543,0.0113 -5.07814,0.009 -1.66061,-0.002 -3.32122,-0.003 -4.98184,-0.004 -1.78425,0.004 -3.56843,-0.009 -5.35268,-0.01 -1.8096,0.002 -3.61921,0.006 -5.42881,0.008 -1.67537,0.002 -3.35074,0.002 -5.02611,0.002 -1.66205,6e-5 -3.3241,10e-6 -4.98615,-1e-5 -1.6633,-2e-5 -3.32661,-3e-5 -4.98991,-3e-5 -1.66359,0 -3.32718,0 -4.99078,0 -1.10906,0 -2.21812,0 -3.32718,0 0,0 9.94151,-7.22293 9.94151,-7.22293 l 0,0 c 1.10906,0 2.21812,0 3.32719,0 1.66359,0 3.32718,0 4.99078,0 1.66333,-10e-6 3.32666,-10e-6 4.98999,-3e-5 1.66205,-2e-5 3.32411,-7e-5 4.98616,-10e-6 1.67373,1.2e-4 3.34745,2.7e-4 5.02118,0.002 1.80267,0.002 3.60534,0.005 5.40802,0.008 1.79293,-2.9e-4 3.5858,-0.0142 5.37874,-0.009 1.66076,7.3e-4 3.32153,0.002 4.98229,0.004 1.6846,0.002 3.36934,0.006 5.05378,-0.0208 1.93625,-0.0424 3.87326,-0.12052 5.79807,-0.34775 1.92436,-0.23492 3.83959,-0.56761 5.78718,-0.48591 1.65201,-0.0425 3.30748,-0.11098 4.94057,-0.38357 1.66449,-0.2829 3.31965,-0.57856 5.0133,-0.62026 1.6787,-0.1891 3.32772,-0.55815 5.00907,-0.71208 1.66135,-0.1017 3.31569,-0.28405 4.93819,-0.67061 1.6399,-0.32251 3.31812,-0.41179 4.9401,-0.83677 1.41785,-0.31087 2.89917,-0.40186 4.22054,-1.05671 7.96949,-3.57199 -13.17196,8.24953 -7.24881,4.38078 1.10003,-0.47862 1.77495,-1.43262 2.76659,-2.06768 0.74991,-0.81555 1.47325,-0.93958 0.80627,-2.27046 -0.65074,-0.86442 -1.59132,-1.46824 -2.57719,-1.89477 -1.2879,-0.44111 -2.63682,-0.70639 -3.96808,-0.97847 -1.5917,-0.22635 -3.13197,-0.62143 -4.64557,-1.16618 -1.28142,-0.41997 -2.49731,-1.02009 -3.8248,-1.30277 -1.52541,-0.3276 -3.04873,-0.64289 -4.54796,-1.08048 -1.47732,-0.32788 -2.93595,-0.70662 -4.45443,-0.80423 -1.67217,-0.26626 -3.33347,-0.5501 -5.03655,-0.4307 -1.94634,-0.004 -3.89269,-0.0117 -5.83905,-0.009 -1.8994,0.009 -3.79887,0.003 -5.69827,0.0112 -1.76543,-0.003 -3.53086,-0.008 -5.29627,-0.0162 -2.354,-0.008 -4.70822,-0.0123 -7.06164,0.0503 -2.61724,0.0832 -5.23018,0.25129 -7.82788,0.59298 -2.34291,0.23155 -4.68886,0.19596 -7.04122,0.18967 -2.1416,-0.003 -4.28311,-0.0122 -6.42467,-0.0285 -2.95995,-0.004 -5.9228,0.0142 -8.87659,0.22692 -2.77271,0.23137 -5.56979,0.54394 -8.21445,1.45537 0,0 9.74026,-7.56716 9.74026,-7.56716 z"
       inkscape:connector-curvature="0" />
    <g
       id="g4250"
       transform="matrix(0.73196258,-0.68134483,0.68134483,0.73196258,-532.35016,334.3744)">
      <rect
         style="fill:#0033ff;fill-opacity:1;stroke:#0000e7;stroke-width:1.09800005;stroke-miterlimit:4;stroke-dasharray:none;stroke-opacity:1"
         id="rect4201"
         width="40"
         height="10"
         x="115.95193"
         y="795.20868" />
      <rect
         y="797.36212"
         x="155"
         height="5.0000286"
         width="5"
         id="rect4248"
         style="fill:#0033ff;fill-opacity:1;stroke:#0000e7;stroke-width:1.09800005;stroke-miterlimit:4;stroke-dasharray:none;stroke-opacity:1" />
    </g>
    <path
       style="fill:#0033ff;fill-opacity:1;stroke:#0000e7;stroke-width:1.09800005;stroke-miterlimit:4;stroke-dasharray:none;stroke-opacity:1"
       id="path4273"
       d="m 173.02052,772.30245 c -0.62542,0.78395 -1.21479,1.59595 -1.81967,2.39573 -0.6529,0.82407 -1.34812,1.61557 -2.09841,2.35218 -0.7455,0.66842 -1.51346,1.30947 -2.26184,1.97483 -0.72551,0.61658 -1.43719,1.24857 -2.13172,1.8998 -0.53607,0.51025 -1.09374,0.99807 -1.65303,1.48273 -0.46119,0.40205 -0.9436,0.77841 -1.42827,1.15141 -0.50735,0.4466 -1.0733,0.81196 -1.63749,1.18015 -0.60901,0.36727 -1.17938,0.7904 -1.76279,1.19562 -1.72922,1.13912 -3.53188,2.17974 -5.39488,3.07391 -1.32611,0.72197 -3.11916,1.74254 3.00807,-1.74221 0.52747,-0.29999 -0.48486,0.31575 -0.59633,0.40204 -0.45677,0.34023 -0.93659,0.64791 -1.41129,0.96252 -0.48348,0.36736 -1.00406,0.68 -1.50991,1.01457 -13.21692,7.58716 8.64494,-4.98934 -4.4861,2.57585 -1.15929,0.6679 4.64572,-2.6565 3.4783,-2.00292 -2.37931,1.33204 -2.76601,1.56333 -4.22328,2.42857 -0.5033,0.24078 -1.02211,0.4408 -1.5241,0.68402 -0.55301,0.19765 -1.09478,0.40948 -1.67274,0.52525 -0.70675,0.23942 -1.4441,0.38658 -2.18123,0.49931 -1.10761,0.14193 -2.22587,0.15817 -3.34085,0.17344 -0.9637,-0.002 -1.91791,0.16028 -2.87603,0.24828 -0.66894,0.0609 -1.34064,0.0637 -2.01168,0.0662 -0.65416,-0.0218 -1.29011,-0.007 -1.93225,0.11306 -0.59299,0.1147 -1.19595,0.15122 -1.79827,0.17241 -0.58408,0.0405 -1.17781,-0.0463 -1.75334,0.0687 -0.58246,0.12993 -1.17624,0.18391 -1.7709,0.21524 -0.59065,0.0241 -1.18194,0.0229 -1.77296,0.0232 -0.58831,-5.1e-4 -1.17662,-10e-4 -1.76493,-0.002 -0.58814,-4.1e-4 -1.17627,-4.5e-4 -1.7644,-4.8e-4 -0.58816,-2e-5 -1.17632,-10e-6 -1.76449,-10e-6 -0.53066,-0.0311 -1.09609,0.1067 -1.58715,-0.13891 -0.0386,-0.058 -0.0891,-0.10954 -0.11575,-0.17387 -0.018,-0.0436 -0.11445,-0.35499 -0.0103,-0.42087 1.26587,-0.80049 2.56431,-1.54888 3.86498,-2.2915 0.0598,-0.0342 0.13806,-0.0128 0.20428,-0.0318 0.0735,-0.0212 0.14124,-0.0588 0.21186,-0.0881 0.55446,-0.20247 1.104,-0.41862 1.66168,-0.61574 0.59158,-0.21115 1.17599,-0.4006 1.80017,-0.49132 0.60881,-0.1311 1.16472,-0.40309 1.73638,-0.638 0.59578,-0.17841 1.17654,-0.39085 1.7898,-0.50481 0.10041,-0.0133 0.20265,-0.0167 0.30125,-0.0399 0.16857,-0.0397 0.32532,-0.11999 0.49213,-0.16654 0.25499,-0.0712 0.50148,-0.10372 0.75154,-0.19381 0.55805,-0.15638 1.12598,-0.23983 1.68752,-0.38133 0.56313,-0.056 1.08667,-0.233 1.63193,-0.36476 0.59776,-0.13249 1.18204,-0.34792 1.75939,-0.55581 0.77032,-0.27267 1.55141,-0.52408 2.29896,-0.85736 0.73437,-0.26259 1.46597,-0.5457 2.16401,-0.89509 0.66074,-0.28889 1.29883,-0.62593 1.95149,-0.93228 3.33089,-1.98944 -12.39162,7.23401 0.9811,-0.56773 1.12559,-0.65668 -2.25599,1.30514 -3.38786,1.95095 -0.21486,0.12259 0.41583,-0.26824 0.61892,-0.40949 0.59294,-0.47606 1.19016,-0.94739 1.78043,-1.42706 0.57147,-0.49889 1.18381,-0.94658 1.76478,-1.434 0.51476,-0.45368 0.99967,-0.94375 1.46458,-1.44851 0.37908,-0.38146 0.69043,-0.82242 1.00159,-1.25912 0.37999,-0.51295 0.74534,-1.03707 1.09647,-1.57021 0.33229,-0.53283 0.63377,-1.08313 0.96367,-1.61745 0.3435,-0.51203 0.72691,-0.99631 1.11009,-1.479 0.38951,-0.42937 0.73488,-0.89395 1.07748,-1.36057 0.4142,-0.52808 0.83755,-1.04913 1.26247,-1.56869 1.25458,-1.51667 2.7082,-1.80777 4.66304,-3.03584 1.1438,-0.71855 -2.34171,1.34712 -3.51257,2.02067 3.36862,-3.2317 2.60692,-1.75212 4.42604,-2.4118 0.22432,-0.0813 0.41741,-0.19236 0.65194,-0.25791 0.53047,-0.11466 1.07587,-0.12089 1.61616,-0.13007 0.58633,-0.006 1.17269,-0.002 1.75903,-7.8e-4 0.58888,10e-4 1.17775,0.002 1.76663,0.002 0.58824,1.9e-4 1.17648,1.6e-4 1.76472,1.5e-4 0.58816,-1e-5 1.17632,-2e-5 1.76448,-2e-5 0.51054,0.14409 1.0475,0.16852 1.55472,0.3157 0.57622,0.11499 1.13614,0.28515 1.70841,0.41668 0.5839,0.22073 1.19091,0.39985 1.75349,0.67086 0.22975,0.12177 0.47684,0.19087 0.72702,0.25403 0,0 -3.59364,2.45481 -3.59364,2.45481 l 0,0 c -0.25727,-0.0879 -0.51148,-0.18197 -0.75482,-0.30463 -0.5574,-0.2306 -1.12352,-0.44775 -1.70579,-0.60719 -0.56847,-0.14685 -1.13905,-0.27991 -1.71154,-0.41035 -0.49559,-0.0878 -0.99107,-0.19826 -1.4927,-0.23622 -0.58816,10e-6 -1.17632,2e-5 -1.76448,2e-5 -0.58828,-10e-6 -1.17656,-10e-6 -1.76485,-3.8e-4 -0.58898,-4.6e-4 -1.17796,-0.001 -1.76695,-0.003 -0.58409,-9.9e-4 -1.16838,-0.004 -1.75227,0.0138 -0.52272,0.0239 -1.05254,0.0541 -1.54778,0.2393 -1.54927,0.62216 -4.11687,1.79691 2.42303,-1.57804 -1.31232,0.76091 -2.59894,1.56797 -3.93696,2.28272 -1.18843,0.63485 2.32473,-1.36281 3.4879,-2.04284 0.073,-0.0427 -0.14904,0.0812 -0.2175,0.13088 -0.004,0.003 -0.36191,0.31437 -0.3702,0.32323 -0.0613,0.0656 -0.11062,0.14147 -0.16593,0.2122 -0.47808,0.46727 -0.84312,1.03556 -1.28907,1.53351 -0.35257,0.4631 -0.66904,0.94963 -1.04922,1.39175 -0.43529,0.42415 -0.75758,0.94681 -1.14262,1.41575 -0.35139,0.52734 -0.66843,1.07093 -0.97152,1.6276 -0.35226,0.53028 -0.69511,1.06783 -1.07534,1.57796 -0.32085,0.44826 -0.62729,0.90137 -0.98056,1.32545 -0.50686,0.47761 -0.95065,1.02243 -1.47017,1.48849 -0.56979,0.50328 -1.17916,0.95319 -1.76092,1.4402 -0.58125,0.49546 -1.20223,0.93875 -1.76966,1.45028 -1.43686,1.12011 -2.93145,1.7868 -4.61725,2.77477 -1.12275,0.658 4.51023,-2.59882 3.37891,-1.95568 -4.67427,2.65726 -2.60184,1.61045 -4.37558,2.49919 -0.64714,0.3221 -1.30122,0.63006 -1.95855,0.93079 -0.71513,0.31165 -1.44038,0.59736 -2.16918,0.87544 -0.76546,0.29654 -1.53899,0.57231 -2.31532,0.83899 -0.59543,0.2038 -1.18933,0.41584 -1.80622,0.5465 -0.53678,0.14995 -1.08566,0.22305 -1.6272,0.35372 -0.56028,0.1343 -1.13478,0.20858 -1.6806,0.40157 -0.51998,0.12324 -1.0292,0.28657 -1.55776,0.37159 -0.58977,0.15193 -1.1712,0.34464 -1.73913,0.56369 -0.57958,0.24656 -1.17399,0.45951 -1.79715,0.56616 -0.6001,0.13172 -1.1725,0.3476 -1.75209,0.54873 -0.55663,0.21204 -1.11665,0.41434 -1.6709,0.63269 -1.32573,0.4779 -4.01515,2.51282 3.19701,-1.95848 0.054,-0.0335 -0.3225,-0.0167 -0.2878,-0.16851 0.48091,0.0863 0.98118,-0.005 1.4662,0.0285 0.58817,0 1.17634,-2e-5 1.76451,4e-5 0.5882,8e-5 1.1764,2e-4 1.7646,7.6e-4 0.58803,6e-4 1.17606,0.002 1.76408,7.3e-4 0.58554,-0.003 1.17165,-0.005 1.75604,-0.046 0.58995,-0.0494 1.17257,-0.14289 1.75731,-0.23311 0.59033,-0.0286 1.1819,-0.0101 1.77224,-0.0437 0.59297,-0.0357 1.18247,-0.10172 1.76729,-0.20799 0.65204,-0.0838 1.30776,-0.0473 1.9638,-0.0573 0.66168,-0.01 1.32366,-0.0293 1.98299,-0.0894 0.95107,-0.0872 1.90162,-0.21205 2.85869,-0.19613 1.10948,-0.024 2.22401,-0.0522 3.32018,-0.24152 0.74131,-0.14714 1.47205,-0.33508 2.19758,-0.54597 0.55525,-0.15832 1.09782,-0.3644 1.6279,-0.5925 0.50892,-0.21184 1.00666,-0.45525 1.49358,-0.71277 0.0875,-0.0479 0.34868,-0.19369 0.26248,-0.14353 -1.15623,0.67279 -4.63223,2.67856 -3.47268,2.0115 12.61735,-7.2584 -1.29918,0.71346 0.48295,-0.27966 1.13009,-0.62976 8.74914,-5.06535 0.53587,-0.29041 0.52045,-0.30234 1.01038,-0.65558 1.51757,-0.97923 0.43697,-0.35927 0.9428,-0.62408 1.39639,-0.96 0.25928,-0.17812 0.13454,-0.0782 0.37247,-0.30197 1.42856,-1.06438 3.0839,-1.83953 4.6642,-2.67983 0.12535,-0.0652 1.48959,-0.80696 0.78788,-0.39539 -6.05072,3.54882 -4.11606,2.39474 -2.8178,1.62469 0.58038,-0.40864 1.14166,-0.84659 1.75851,-1.19994 0.54489,-0.38612 1.14605,-0.69249 1.64057,-1.14674 0.47355,-0.38872 0.9743,-0.73828 1.43724,-1.13819 0.57076,-0.48179 1.13199,-0.97293 1.68605,-1.4731 0.69526,-0.66187 1.40526,-1.30794 2.14265,-1.92289 0.75863,-0.64814 1.48366,-1.33183 2.2613,-1.95837 0.78016,-0.6942 1.46444,-1.48944 2.13277,-2.29015 0.60491,-0.77629 1.19225,-1.56844 1.75315,-2.37665 0,0 4.00959,-1.71305 4.00959,-1.71305 z"
       inkscape:connector-curvature="0" />
    <path
       style="fill:#0033ff;fill-opacity:1;stroke:#0000e7;stroke-width:1.09800005;stroke-miterlimit:4;stroke-dasharray:none;stroke-opacity:1"
       id="path4275"
       d="m 173.0022,748.87502 c -0.24748,-0.74784 -0.5681,-1.46369 -0.92766,-2.1629 -0.22348,-0.53463 -0.54982,-1.01396 -0.85483,-1.50319 -0.29921,-0.53589 -0.65339,-1.02751 -1.02263,-1.51637 -0.34113,-0.57521 -0.77642,-1.08178 -1.17605,-1.6147 -0.45149,-0.49437 -0.91716,-0.96851 -1.3037,-1.51727 -0.39068,-0.58973 -0.81488,-1.15992 -1.33165,-1.64478 -0.36971,-0.4248 -0.82454,-0.74012 -1.26569,-1.07748 -0.37403,-0.23411 -0.77855,-0.40322 -1.17238,-0.60022 -0.53509,-0.22243 -1.04656,-0.49259 -1.5591,-0.76239 -0.78927,-0.3962 -1.59179,-0.76164 -2.3721,-1.17716 -0.84683,-0.44004 -1.70008,-0.87204 -2.56832,-1.26873 -0.61519,-0.25372 -1.23805,-0.48248 -1.86672,-0.70027 -0.84491,-0.38001 -1.73157,-0.64302 -2.61357,-0.92 -1.03181,-0.37076 -2.1072,-0.54048 -3.17567,-0.75832 -1.00148,-0.15826 -1.98976,-0.38402 -2.99576,-0.51436 -0.8335,-0.0978 -1.65501,-0.26479 -2.49177,-0.34549 -0.83235,-0.0643 -1.66803,-0.068 -2.50241,-0.0707 -1.03089,0.0442 -2.05142,-0.049 -3.07549,-0.15002 -0.73374,-0.078 -1.47065,-0.1118 -2.20803,-0.12597 -0.60903,0.02 -1.19819,-0.005 -1.79558,-0.11793 -0.58512,-0.11587 -1.18071,-0.14881 -1.77531,-0.17034 -0.66177,-0.0172 -1.32385,-0.0139 -1.98578,-0.0125 -0.52158,-0.11548 -1.04338,-0.20982 -1.57596,-0.25412 -0.56393,-0.0368 -1.12939,-0.0369 -1.69427,-0.0386 -0.58769,-4.6e-4 -1.17539,7.9e-4 -1.76308,10e-4 -0.58763,-0.12175 -1.17912,-0.21011 -1.77727,-0.25669 -0.58374,-0.0368 -1.16891,-0.0374 -1.75356,-0.0389 -0.37543,-0.0173 -0.94116,-0.37893 -1.27518,-0.10566 4.70935,-3.15856 2.53129,-2.94271 4.46345,-1.70218 0.2422,0.1555 0.50308,0.27975 0.75483,0.41924 0.77639,0.40579 1.56679,0.78947 2.36764,1.14519 0.67727,0.35114 1.3834,0.64404 2.10282,0.89656 0.90445,0.23816 1.79763,0.51366 2.71341,0.70603 0.91984,0.21969 1.83965,0.44526 2.76927,0.62069 0.77601,0.20539 1.56653,0.31813 2.33579,0.54531 0.57805,0.16336 1.12433,0.4446 1.66574,0.70609 0.55174,0.24907 1.10727,0.48194 1.65832,0.73166 0.56969,0.19008 1.09437,0.46415 1.58508,0.80831 0.6403,0.36996 1.20531,0.84665 1.75419,1.33789 0.52774,0.48596 1.10579,0.91175 1.61401,1.41945 0.34583,0.32525 0.70265,0.64405 1.01954,0.99816 0.29422,0.29196 0.60349,0.57166 0.87944,0.88171 0.3177,0.4 0.62933,0.80722 0.89542,1.24457 0.30968,0.44198 0.6716,0.83413 1.05553,1.21155 0.43883,0.41989 0.92843,0.77662 1.35179,1.21356 0.51084,0.41887 1.00247,0.85913 1.47632,1.31923 0.62126,0.5232 1.26855,1.03277 1.97794,1.43115 0.71697,0.40897 1.45042,0.79826 2.22602,1.08392 0.62032,0.21594 1.19746,0.46899 1.77043,0.78621 0.35073,0.23673 0.70378,0.46882 1.05466,0.70564 0,0 -3.65198,2.33918 -3.65198,2.33918 l 0,0 c -0.34655,-0.22649 -0.68698,-0.46333 -1.04465,-0.67197 -0.55019,-0.30901 -1.14014,-0.50878 -1.72172,-0.75097 -0.77576,-0.33153 -1.52648,-0.72231 -2.2574,-1.14309 -0.71769,-0.44281 -1.39227,-0.95487 -2.02471,-1.51277 -0.49815,-0.44666 -1.01034,-0.87623 -1.51352,-1.31678 -0.42883,-0.42447 -0.90577,-0.79402 -1.34277,-1.20966 -0.41247,-0.39871 -0.79115,-0.82689 -1.11745,-1.29982 -0.25498,-0.4107 -0.55205,-0.79791 -0.86478,-1.16545 -0.28633,-0.30048 -0.58667,-0.58745 -0.8784,-0.8826 -0.32117,-0.34002 -0.65804,-0.66555 -0.99336,-0.9914 -0.50166,-0.49903 -1.05913,-0.93229 -1.58164,-1.40841 -0.54385,-0.47288 -1.11113,-0.91469 -1.73344,-1.28141 -0.49231,-0.30889 -1.02375,-0.5271 -1.56159,-0.74452 -0.5444,-0.25852 -1.10513,-0.48026 -1.65076,-0.73654 -0.53549,-0.23772 -1.05662,-0.51642 -1.63042,-0.65229 -0.75166,-0.21996 -1.52774,-0.3422 -2.28717,-0.53276 -0.92572,-0.19712 -1.84738,-0.41294 -2.7679,-0.6327 -0.9268,-0.21834 -1.84602,-0.47066 -2.75848,-0.74245 -0.72506,-0.27156 -1.44275,-0.56237 -2.12898,-0.92311 -0.7961,-0.38205 -1.59219,-0.76558 -2.37176,-1.18047 -0.3882,-0.21551 -0.76624,-0.42886 -1.12424,-0.69262 -1.67091,-1.23103 -0.10339,-1.00474 3.01045,-3.0311 0.42993,0.0801 0.8597,0.18117 1.29658,0.20783 0.59231,0.005 1.1855,0.0129 1.77556,0.07 0.58629,0.0642 1.16471,0.18949 1.75343,0.22315 0.58843,-6.7e-4 1.17686,-0.002 1.76529,7.6e-4 0.5748,0.005 1.15074,0.0105 1.72308,0.0696 0.51639,0.0629 1.02265,0.19033 1.54166,0.22416 0.66464,0.002 1.32944,0.005 1.9937,0.0292 0.6084,0.0293 1.21323,0.0945 1.81198,0.20909 0.58333,0.0823 1.17098,0.0494 1.75852,0.0726 0.73359,0.0291 1.46532,0.0865 2.19442,0.17379 1.01607,0.10588 2.03128,0.14312 3.05304,0.11559 0.8497,0.007 1.70278,-0.005 2.54817,0.0941 0.82931,0.10593 1.6492,0.27033 2.47938,0.36952 1.00426,0.1538 1.99741,0.37229 2.99904,0.54177 1.0801,0.2112 2.15345,0.43577 3.19629,0.79694 0.90053,0.27165 1.79432,0.56086 2.67026,0.90479 0.63181,0.23262 1.2662,0.45788 1.87526,0.74732 0.85557,0.42417 1.70589,0.85904 2.55489,1.29618 0.7926,0.40449 1.60872,0.75497 2.40598,1.14959 0.51902,0.25443 1.02961,0.52549 1.56636,0.74208 0.42562,0.18815 0.83942,0.40858 1.22276,0.67288 0.46119,0.33823 0.87917,0.72149 1.26919,1.141 0.51784,0.52071 0.97647,1.09519 1.38117,1.70833 0.38478,0.54426 0.86622,0.99867 1.29124,1.50969 0.40027,0.53206 0.8426,1.03324 1.18598,1.60692 0.37765,0.49787 0.72665,1.00997 1.04315,1.54874 0.31497,0.50006 0.65424,0.98812 0.86316,1.54631 0.34858,0.71604 0.65097,1.45049 0.97894,2.17566 0,0 -3.81393,2.1298 -3.81393,2.1298 z"
       inkscape:connector-curvature="0" />
  </g>
</svg>
