<?xml version="1.0" encoding="UTF-8" standalone="no"?>
<!-- Created with Inkscape (http://www.inkscape.org/) -->

<svg
   xmlns:dc="http://purl.org/dc/elements/1.1/"
   xmlns:cc="http://creativecommons.org/ns#"
   xmlns:rdf="http://www.w3.org/1999/02/22-rdf-syntax-ns#"
   xmlns:svg="http://www.w3.org/2000/svg"
   xmlns="http://www.w3.org/2000/svg"
   xmlns:sodipodi="http://sodipodi.sourceforge.net/DTD/sodipodi-0.dtd"
   xmlns:inkscape="http://www.inkscape.org/namespaces/inkscape"
   width="8in"
   height="5in"
   viewBox="0 0 720.00001 450.00001"
   id="svg2"
   version="1.1"
   inkscape:version="0.91 r13725"
   sodipodi:docname="WB_rocket14.svg">
  <defs
     id="defs4">
    <inkscape:perspective
       sodipodi:type="inkscape:persp3d"
       inkscape:vp_x="0 : 225 : 1"
       inkscape:vp_y="0 : 1000 : 0"
       inkscape:vp_z="720.00001 : 225 : 1"
       inkscape:persp3d-origin="360 : 150 : 1"
       id="perspective4153" />
    <filter
       inkscape:collect="always"
       style="color-interpolation-filters:sRGB"
       id="filter5051"
       x="-0.027"
       width="1.054"
       y="-0.054"
       height="1.108">
      <feGaussianBlur
         inkscape:collect="always"
         stdDeviation="0.5625"
         id="feGaussianBlur5053" />
    </filter>
  </defs>
  <sodipodi:namedview
     id="base"
     pagecolor="#ffffff"
     bordercolor="#666666"
     borderopacity="1.0"
     inkscape:pageopacity="0.0"
     inkscape:pageshadow="2"
     inkscape:zoom="1.2022222"
     inkscape:cx="360"
     inkscape:cy="225"
     inkscape:document-units="px"
     inkscape:current-layer="layer1"
     showgrid="true"
     units="in"
     inkscape:snap-grids="true"
     showguides="false"
     inkscape:snap-to-guides="false"
     inkscape:window-width="1920"
     inkscape:window-height="982"
     inkscape:window-x="0"
     inkscape:window-y="28"
     inkscape:window-maximized="1">
    <inkscape:grid
       type="xygrid"
       id="grid4136" />
  </sodipodi:namedview>
  <metadata
     id="metadata7">
    <rdf:RDF>
      <cc:Work
         rdf:about="">
        <dc:format>image/svg+xml</dc:format>
        <dc:type
           rdf:resource="http://purl.org/dc/dcmitype/StillImage" />
        <dc:title></dc:title>
      </cc:Work>
    </rdf:RDF>
  </metadata>
  <g
     inkscape:label="Layer 1"
     inkscape:groupmode="layer"
     id="layer1"
     transform="translate(0,-602.36215)">
    <rect
       style="fill:#7d7d7e;fill-opacity:1;stroke:#000000;stroke-width:1.098;stroke-miterlimit:4;stroke-dasharray:none;stroke-opacity:1"
       id="rect4138"
       width="610"
       height="360"
       x="50"
       y="642.36212" />
    <rect
       style="fill:#ffffff;fill-opacity:1;stroke:#000000;stroke-width:1.09800005;stroke-miterlimit:4;stroke-dasharray:none;stroke-opacity:1"
       id="rect4151"
       width="590"
       height="340.00003"
       x="60"
       y="652.36212" />
    <rect
       style="fill:#001a12;fill-opacity:1;stroke:#000000;stroke-width:1.09800005;stroke-miterlimit:4;stroke-dasharray:none;stroke-opacity:1"
       id="rect4193"
       width="80"
       height="20"
       x="70"
       y="982.36212" />
    <rect
       style="fill:#ff1a12;fill-opacity:1;stroke:#000000;stroke-width:1.09800005;stroke-miterlimit:4;stroke-dasharray:none;stroke-opacity:1"
       id="rect4195"
       width="40"
       height="10"
       x="180"
       y="982.36212" />
    <rect
       y="981.53033"
       x="243.21626"
       height="10"
       width="40"
       id="rect4197"
       style="fill:#00ff00;fill-opacity:1;stroke:#f60000;stroke-width:1.09800005;stroke-miterlimit:4;stroke-dasharray:none;stroke-opacity:1" />
    <rect
       style="fill:#ffff00;fill-opacity:1;stroke:#000000;stroke-width:1.09800005;stroke-miterlimit:4;stroke-dasharray:none;stroke-opacity:1"
       id="rect4199"
       width="40"
       height="10"
       x="297.28281"
       y="981.53033" />
    <rect
       style="fill:#000080;fill-opacity:1;stroke:#000000;stroke-width:1.09800005;stroke-miterlimit:4;stroke-dasharray:none;stroke-opacity:1"
       id="rect4203"
       width="40"
       height="10"
       x="467.80035"
       y="983.19391" />
    <g
       id="g4250"
       transform="matrix(0.99995213,-0.00978403,0.00978403,0.99995213,243.6638,186.99981)"
       inkscape:transform-center-x="150.55453"
       inkscape:transform-center-y="-54.898338">
      <rect
         style="fill:#0033ff;fill-opacity:1;stroke:#0000e7;stroke-width:1.09800005;stroke-miterlimit:4;stroke-dasharray:none;stroke-opacity:1"
         id="rect4201"
         width="40"
         height="10"
         x="115.95193"
         y="795.20868" />
      <rect
         y="797.36212"
         x="155"
         height="5.0000286"
         width="5"
         id="rect4248"
         style="fill:#0033ff;fill-opacity:1;stroke:#0000e7;stroke-width:1.09800005;stroke-miterlimit:4;stroke-dasharray:none;stroke-opacity:1" />
    </g>
    <rect
       style="fill:none;fill-opacity:1;stroke:#0e120c;stroke-width:4.37731028;stroke-miterlimit:4;stroke-dasharray:none;stroke-opacity:1"
       id="rect5081"
       width="127.08316"
       height="265.36414"
       x="498.11276"
       y="698.84827" />
    <text
       xml:space="preserve"
       style="font-style:normal;font-weight:normal;font-size:22.5px;line-height:125%;font-family:sans-serif;text-align:center;letter-spacing:0px;word-spacing:0px;text-anchor:middle;fill:#000000;fill-opacity:1;stroke:none;stroke-width:1px;stroke-linecap:butt;stroke-linejoin:miter;stroke-opacity:1"
       x="561.10504"
       y="772.36212"
       id="text5083"
       sodipodi:linespacing="125%"><tspan
         sodipodi:role="line"
         id="tspan5085"
         x="561.10504"
         y="772.36212">Principal's</tspan><tspan
         sodipodi:role="line"
         x="561.10504"
         y="800.48712"
         id="tspan5087">Office</tspan></text>
    <path
       sodipodi:type="star"
       style="fill:#fffff6;fill-opacity:1;stroke:#0e120c;stroke-width:3.19799995;stroke-miterlimit:4;stroke-dasharray:none;stroke-opacity:1"
       id="path5222"
       sodipodi:sides="5"
       sodipodi:cx="560.77634"
       sodipodi:cy="765.65232"
       sodipodi:r1="44.721359"
       sodipodi:r2="22.36068"
       sodipodi:arg1="0.46364761"
       sodipodi:arg2="1.0919661"
       inkscape:flatsided="false"
       inkscape:rounded="0"
       inkscape:randomized="0"
       d="m 600.77637,785.65234 -29.69751,-0.15412 -16.96294,24.37672 -9.03046,-28.29164 -28.42548,-8.59989 24.11639,-17.33107 -0.60498,-29.69175 23.9352,17.58045 28.05159,-9.75062 -9.32362,28.19639 z"
       inkscape:transform-center-x="2.0581925"
       inkscape:transform-center-y="2.2654253" />
    <path
       style="fill:#0000ff;fill-opacity:1;stroke:#1700ea;stroke-width:0.5403077;stroke-miterlimit:4;stroke-dasharray:none;stroke-opacity:1"
       id="path4243"
       d="m 564.4698,756.29144 c 0.636,-0.82476 1.29262,-1.26273 1.9501,-1.63852 0.70896,-0.35086 1.42179,-0.5316 2.13358,-0.74417 0.51615,-0.15973 1.03269,-0.29389 1.54921,-0.42937 0.55601,-0.0679 1.10254,-0.27529 1.64812,-0.72293 0.61681,-0.52003 1.24297,-0.75966 1.86847,-0.99732 0.56769,-0.20439 1.13624,-0.36488 1.70467,-0.52737 0.42395,-0.11978 0.84798,-0.23451 1.27202,-0.34823 0.45063,-0.1098 0.90102,-0.23758 1.35164,-0.34859 0.4665,-0.12206 0.93282,-0.25524 1.39921,-0.38437 0.41499,-0.25147 0.82488,0.11579 1.23842,0.24755 0.37077,-0.0776 0.72399,0.38544 1.08933,0.55737 0.35868,0.56957 0.74755,0.48158 1.1131,0.86934 0.3244,0.21598 0.61437,0.84113 0.93771,1.07574 0.35029,0.55904 0.72021,0.701 1.09096,0.74513 0.34072,0.29595 0.67663,0.5139 1.00956,0.92996 0.28664,0.5941 0.5509,1.29122 0.75128,2.35449 0.18087,1.18669 0.22602,2.54537 0.0407,3.75523 -0.17503,0.95358 -0.38143,1.81748 -0.59011,2.64291 -1.01078,3.27645 -2.06994,6.35754 -3.20871,8.69512 -0.33746,0.45057 -0.6807,0.70753 -1.01956,1.14162 -0.39186,0.38682 -0.78164,0.66193 -1.16757,1.14138 -0.39135,0.47385 -0.7959,0.67765 -1.19975,0.84401 -0.38364,0.51924 -0.77769,0.84884 -1.1759,1.08391 -0.40342,0.0782 -0.78227,0.66252 -1.17545,1.00364 -0.39597,0.31488 -0.79804,0.44957 -1.19927,0.57698 -0.45609,0.06 -0.89622,0.59162 -1.34505,0.9109 -0.46536,0.32547 -0.93512,0.50933 -1.40506,0.66437 -0.40373,0.12481 -0.80781,0.2281 -1.21183,0.33412 -0.39636,0.10426 -0.7927,0.20954 -1.18904,0.31482 -0.42578,0.11824 -0.85179,0.2193 -1.27764,0.33249 -0.43185,0.11785 -0.86368,0.23771 -1.29553,0.35556 -0.39982,0.10925 -0.79967,0.21648 -1.19952,0.32372 -0.39667,0.10644 -0.79334,0.21277 -1.19001,0.31913 -0.39697,0.10644 -0.79394,0.21289 -1.19091,0.31935 -0.39704,0.10647 -0.79407,0.21295 -1.19111,0.31943 -0.26469,0.071 -0.52939,0.14197 -0.79408,0.21296 0,0 2.26349,-7.93537 2.26349,-7.93537 l 0,0 c 0.26469,-0.071 0.52938,-0.14197 0.79408,-0.21296 0.39703,-0.10648 0.79407,-0.21296 1.19111,-0.31944 0.39698,-0.10647 0.79395,-0.21293 1.19093,-0.31941 0.39667,-0.1064 0.79334,-0.21283 1.19001,-0.31915 0.39946,-0.10701 0.79891,-0.21398 1.1984,-0.31936 0.43026,-0.11336 0.86054,-0.22571 1.29081,-0.33806 0.42791,-0.11505 0.85559,-0.24386 1.28357,-0.35336 0.39638,-0.10556 0.79276,-0.21057 1.18915,-0.31485 0.40208,-0.1058 0.80423,-0.20959 1.20584,-0.34449 0.46147,-0.16677 0.92258,-0.3697 1.37853,-0.72252 0.45572,-0.36056 0.90779,-0.81934 1.37384,-0.86144 0.39363,-0.14868 0.78769,-0.32384 1.17333,-0.70383 0.39298,-0.39242 0.78353,-0.79714 1.18711,-0.94768 0.39779,-0.29854 0.78577,-0.77702 1.18472,-1.04019 0.39497,-0.20911 0.78704,-0.49927 1.16843,-0.99375 0.3865,-0.43087 0.78568,-0.62851 1.16637,-1.16178 0.33369,-0.4049 0.68585,-0.59166 0.99131,-1.33798 1.84803,-4.11973 -3.01896,9.17955 -1.6638,4.89091 0.2553,-0.55407 0.40196,-1.56132 0.62903,-2.26655 0.16664,-0.87214 0.3374,-1.04378 0.1581,-2.346 -0.16837,-0.83188 -0.40198,-1.38186 -0.64372,-1.74978 -0.31404,-0.36333 -0.63999,-0.54507 -0.96183,-0.73481 -0.3833,-0.12686 -0.75687,-0.42752 -1.12635,-0.88113 -0.31218,-0.34238 -0.61144,-0.871 -0.93253,-1.0717 -0.36901,-0.23342 -0.73734,-0.45453 -1.10176,-0.80077 -0.35754,-0.23678 -0.71139,-0.52616 -1.07527,-0.5276 -0.40311,-0.16204 -0.80389,-0.34254 -1.20855,-0.11288 -0.46458,0.12053 -0.92922,0.23733 -1.3937,0.36464 -0.45318,0.13066 -0.9066,0.24617 -1.3598,0.37603 -0.42138,0.10997 -0.8428,0.21791 -1.26426,0.32262 -0.56194,0.14258 -1.12387,0.28892 -1.6846,0.50281 -0.62338,0.25159 -1.24445,0.5887 -1.85926,1.10026 -0.55566,0.38394 -1.11609,0.49813 -1.67761,0.64234 -0.51117,0.13404 -1.0224,0.26181 -1.53376,0.38241 -0.70649,0.18541 -1.41334,0.39344 -2.11509,0.79746 -0.65824,0.41128 -1.32108,0.90617 -1.93848,1.99648 0,0 2.21025,-8.27035 2.21025,-8.27035 z"
       inkscape:connector-curvature="0" />
    <path
       style="fill:#0033ff;fill-opacity:1;stroke:#0000e7;stroke-width:0.5403077;stroke-miterlimit:4;stroke-dasharray:none;stroke-opacity:1"
       id="path4273"
       d="m 568.27192,778.13724 c -0.13741,0.83224 -0.2658,1.69052 -0.39807,2.53745 -0.14337,0.87454 -0.29733,1.71888 -0.46526,2.51128 -0.16782,0.72318 -0.34141,1.42014 -0.50996,2.14041 -0.16383,0.66952 -0.32413,1.35372 -0.48005,2.05627 -0.12022,0.54994 -0.24595,1.07859 -0.3721,1.60416 -0.10399,0.43581 -0.21344,0.84701 -0.32347,1.25496 -0.11434,0.48378 -0.24388,0.88922 -0.37297,1.2974 -0.1398,0.41012 -0.26953,0.87422 -0.40264,1.32105 -0.39548,1.26181 -0.80998,2.42877 -1.24109,3.45161 -0.30558,0.81446 -0.71809,1.96055 0.69158,-1.9531 0.12135,-0.33692 -0.11095,0.35011 -0.13625,0.44444 -0.10387,0.37305 -0.21373,0.71469 -0.32227,1.063 -0.10984,0.40217 -0.22935,0.75143 -0.34502,1.1219 -3.0397,8.51309 1.9878,-5.59525 -1.03173,2.89014 -0.26659,0.74914 1.0686,-2.98185 0.79986,-2.24666 -0.54772,1.49836 -0.63651,1.75684 -0.97123,2.72448 -0.11648,0.27553 -0.23727,0.51086 -0.3534,0.78878 -0.129,0.23512 -0.2551,0.48386 -0.39128,0.63785 -0.16506,0.28718 -0.33881,0.48308 -0.51304,0.64418 -0.2622,0.21432 -0.52884,0.3023 -0.79471,0.3891 -0.23003,0.0597 -0.45531,0.28472 -0.68265,0.43498 -0.15873,0.10435 -0.319,0.15018 -0.47911,0.19565 -0.15646,0.0198 -0.30801,0.0755 -0.45945,0.23793 -0.13979,0.15386 -0.28314,0.22936 -0.42658,0.28932 -0.13878,0.0783 -0.2818,0.0286 -0.41741,0.18165 -0.13705,0.16858 -0.27795,0.26113 -0.4194,0.33086 -0.1406,0.0622 -0.28174,0.0988 -0.42279,0.13692 -0.14041,0.0371 -0.28083,0.0743 -0.42125,0.11094 -0.14038,0.0372 -0.28074,0.0748 -0.42111,0.11245 -0.14037,0.0376 -0.28074,0.0753 -0.42112,0.11292 -0.12711,0.003 -0.25998,0.17798 -0.38089,-0.0388 -0.0101,-0.0562 -0.0229,-0.105 -0.0303,-0.1683 -0.005,-0.0429 -0.0327,-0.3514 -0.009,-0.42465 0.29001,-0.88995 0.58859,-1.72933 0.88779,-2.56303 0.0138,-0.0384 0.0328,-0.0218 0.0483,-0.0452 0.0172,-0.0261 0.0328,-0.0685 0.0492,-0.10259 0.12927,-0.24009 0.25716,-0.49369 0.38727,-0.72858 0.138,-0.25124 0.27461,-0.48009 0.42221,-0.61172 0.14332,-0.17145 0.27188,-0.48189 0.40477,-0.75586 0.13949,-0.21843 0.27489,-0.47028 0.41953,-0.62469 0.0238,-0.0199 0.0481,-0.0299 0.0713,-0.0596 0.0396,-0.0509 0.0758,-0.14208 0.11494,-0.1998 0.0598,-0.0883 0.11811,-0.13691 0.17643,-0.24395 0.13082,-0.19375 0.2651,-0.31443 0.39698,-0.49336 0.13356,-0.0926 0.25583,-0.30501 0.38397,-0.47306 0.14066,-0.17214 0.27685,-0.42724 0.4115,-0.67428 0.17973,-0.32485 0.36234,-0.6289 0.53572,-1.01354 0.1713,-0.31236 0.34162,-0.64528 0.50294,-1.04303 0.15332,-0.33423 0.30052,-0.71566 0.45165,-1.06701 0.76489,-2.22361 -2.84807,8.10338 0.22557,-0.63651 0.25871,-0.73565 -0.51869,1.46329 -0.77906,2.18835 -0.0494,0.13764 0.0952,-0.29768 0.14152,-0.45342 0.13432,-0.51903 0.26973,-1.03355 0.40335,-1.55606 0.12885,-0.54072 0.26822,-1.03232 0.39951,-1.56207 0.116,-0.49141 0.22432,-1.01768 0.32765,-1.55752 0.0847,-0.40974 0.15235,-0.87528 0.22001,-1.33649 0.0829,-0.54268 0.16221,-1.09571 0.23795,-1.65695 0.0712,-0.55971 0.13488,-1.13511 0.20554,-1.69617 0.0742,-0.53942 0.15843,-1.05334 0.24258,-1.56564 0.0865,-0.45883 0.16188,-0.95041 0.23659,-1.44388 0.0909,-0.56016 0.18403,-1.1138 0.27759,-1.66603 0.2765,-1.61296 0.61902,-2.00016 1.06701,-3.3663 0.26212,-0.79933 -0.53852,1.5112 -0.80778,2.26679 0.75511,-3.48137 0.59569,-1.93744 1.01987,-2.72051 0.0523,-0.0965 0.0967,-0.2211 0.1517,-0.30235 0.12487,-0.14982 0.25494,-0.19103 0.38375,-0.23489 0.13985,-0.0436 0.27985,-0.0771 0.4198,-0.11337 0.14056,-0.0367 0.28112,-0.0734 0.42166,-0.11105 0.1404,-0.0375 0.28079,-0.0751 0.42118,-0.1128 0.14037,-0.0377 0.28074,-0.0753 0.42112,-0.11296 0.12402,0.11293 0.25254,0.10325 0.37582,0.21952 0.13926,0.0793 0.27547,0.21544 0.41404,0.31172 0.14269,0.18569 0.29027,0.32784 0.42863,0.5657 0.0567,0.10835 0.11669,0.16236 0.17735,0.21018 0,0 -0.82056,2.71069 -0.82056,2.71069 l 0,0 c -0.0627,-0.0724 -0.12482,-0.15115 -0.18475,-0.25953 -0.13652,-0.19735 -0.27491,-0.38055 -0.41629,-0.50441 -0.13789,-0.11201 -0.27608,-0.20995 -0.41468,-0.30512 -0.11961,-0.057 -0.23953,-0.13692 -0.35983,-0.14317 -0.14037,0.0376 -0.28074,0.0753 -0.42111,0.11295 -0.1404,0.0376 -0.2808,0.0753 -0.42121,0.11258 -0.14058,0.0372 -0.28115,0.0744 -0.42175,0.11006 -0.13942,0.0364 -0.27891,0.0707 -0.418,0.1261 -0.12439,0.0576 -0.25038,0.12204 -0.36578,0.34089 -0.36035,0.72788 -0.95538,2.07935 0.55444,-1.74976 -0.3017,0.85292 -0.59657,1.75084 -0.9051,2.55876 -0.27404,0.71761 0.53422,-1.52596 0.80155,-2.28761 0.0168,-0.0478 -0.0343,0.0916 -0.0499,0.14618 -9.1e-4,0.003 -0.0816,0.34085 -0.0835,0.35033 -0.0136,0.0702 -0.0243,0.15004 -0.0364,0.22506 -0.10704,0.50279 -0.18557,1.10044 -0.28448,1.63218 -0.0771,0.49055 -0.14532,1.00246 -0.22937,1.47357 -0.0975,0.45649 -0.16649,1.00528 -0.2513,1.50381 -0.0759,0.55539 -0.14334,1.125 -0.20726,1.70694 -0.0761,0.55841 -0.14976,1.12357 -0.23279,1.66342 -0.0698,0.47352 -0.13609,0.95102 -0.21399,1.40218 -0.11375,0.51509 -0.21143,1.09405 -0.32837,1.59828 -0.12838,0.54505 -0.26702,1.03871 -0.3985,1.56809 -0.13123,0.53788 -0.27274,1.02559 -0.40043,1.57883 -0.32599,1.22388 -0.67262,1.99326 -1.06002,3.09955 -0.25801,0.73679 1.03714,-2.9149 0.77686,-2.19257 -1.07541,2.98445 -0.59662,1.79396 -1.00651,2.8056 -0.14958,0.36691 -0.30103,0.71998 -0.45337,1.06595 -0.16596,0.36071 -0.33473,0.69585 -0.50447,1.02351 -0.1782,0.34866 -0.35865,0.67685 -0.5399,0.99603 -0.13902,0.24406 -0.27756,0.49634 -0.42281,0.66786 -0.12585,0.18589 -0.25574,0.29489 -0.38301,0.4616 -0.13169,0.17158 -0.26768,0.28341 -0.39503,0.51337 -0.12223,0.15782 -0.2413,0.35547 -0.36616,0.47521 -0.13846,0.19128 -0.27431,0.42324 -0.40654,0.68095 -0.1346,0.28625 -0.27324,0.53949 -0.42036,0.68715 -0.14123,0.17152 -0.27458,0.42631 -0.40986,0.66666 -0.12964,0.2499 -0.26024,0.49018 -0.38922,0.7463 -0.30918,0.56779 -0.92028,2.7963 0.7334,-2.18374 0.0124,-0.0373 -0.0772,0.004 -0.0712,-0.15187 0.11608,0.0564 0.23409,-0.0679 0.35036,-0.065 0.14037,-0.0376 0.28075,-0.0753 0.42112,-0.1129 0.14038,-0.0376 0.28077,-0.0751 0.42116,-0.11218 0.14035,-0.037 0.28071,-0.0732 0.42103,-0.11217 0.1397,-0.0405 0.27955,-0.08 0.41841,-0.15888 0.14005,-0.0877 0.27768,-0.21945 0.41588,-0.34804 0.14045,-0.0667 0.28192,-0.0859 0.4223,-0.1576 0.14098,-0.074 0.28068,-0.17847 0.41865,-0.32329 0.15435,-0.12642 0.3114,-0.13151 0.46782,-0.1836 0.15776,-0.0525 0.31546,-0.11433 0.47191,-0.21727 0.22567,-0.14899 0.45064,-0.33599 0.6793,-0.38116 0.26443,-0.0953 0.53,-0.1951 0.78875,-0.45658 0.1747,-0.19614 0.34626,-0.43283 0.51623,-0.69238 0.13013,-0.19553 0.2565,-0.43851 0.37957,-0.70294 0.11825,-0.24664 0.23337,-0.52448 0.34568,-0.81588 0.0202,-0.054 0.0803,-0.21805 0.0605,-0.16184 -0.26578,0.75389 -1.06505,3.00328 -0.7984,2.25497 2.90158,-8.14248 -0.29928,0.80413 0.11104,-0.31352 0.26019,-0.70873 2.01153,-5.67873 0.1235,-0.32777 0.11964,-0.33884 0.23123,-0.72716 0.34739,-1.08668 0.0988,-0.39103 0.21557,-0.691 0.31875,-1.0595 0.0592,-0.19659 0.0309,-0.0876 0.0843,-0.32899 0.32486,-1.16703 0.70821,-2.0563 1.07266,-3.00661 0.0289,-0.0739 0.34332,-0.91081 0.18207,-0.44999 -1.39044,3.97351 -0.94616,2.68344 -0.64795,1.82217 0.13234,-0.45009 0.25968,-0.92858 0.40155,-1.32514 0.12421,-0.42506 0.26306,-0.77314 0.37421,-1.26383 0.10714,-0.42313 0.22137,-0.80842 0.32581,-1.24218 0.12894,-0.5234 0.25546,-1.05564 0.38013,-1.59654 0.15593,-0.71335 0.31562,-1.41167 0.48231,-2.0803 0.17126,-0.70353 0.33396,-1.44083 0.51008,-2.12375 0.1757,-0.75145 0.327,-1.59887 0.4744,-2.45079 0.13263,-0.82319 0.26083,-1.66129 0.38248,-2.51392 0,0 0.93105,-1.98774 0.93105,-1.98774 z"
       inkscape:connector-curvature="0" />
    <path
       style="fill:#0033ff;fill-opacity:1;stroke:#0000e7;stroke-width:0.5403077;stroke-miterlimit:4;stroke-dasharray:none;stroke-opacity:1"
       id="path4275"
       d="m 567.91341,754.46404 c -0.0704,-0.73988 -0.15771,-1.44276 -0.25409,-2.12632 -0.0614,-0.52596 -0.14655,-0.98946 -0.22674,-1.46432 -0.0795,-0.52239 -0.17147,-0.99652 -0.26698,-1.4669 -0.0901,-0.55944 -0.20166,-1.04349 -0.30509,-1.55645 -0.11523,-0.47068 -0.23353,-0.92001 -0.33408,-1.44982 -0.10216,-0.57094 -0.21202,-1.11999 -0.34268,-1.57688 -0.0947,-0.40562 -0.20798,-0.69515 -0.31836,-1.00783 -0.0928,-0.21264 -0.19191,-0.35764 -0.28888,-0.53151 -0.13107,-0.19052 -0.25722,-0.43079 -0.38362,-0.67063 -0.19436,-0.34986 -0.39142,-0.66779 -0.58393,-1.03774 -0.20876,-0.39048 -0.41893,-0.77242 -0.63214,-1.11772 -0.15066,-0.21702 -0.30277,-0.40833 -0.4561,-0.58817 -0.2074,-0.32994 -0.42299,-0.53897 -0.63767,-0.76242 -0.25186,-0.30863 -0.51108,-0.4113 -0.76938,-0.56305 -0.24141,-0.0958 -0.48069,-0.26072 -0.72275,-0.32804 -0.20041,-0.0455 -0.399,-0.16165 -0.59992,-0.18965 -0.19962,-0.0117 -0.39913,0.038 -0.5983,0.0887 -0.24537,0.11064 -0.49034,0.0818 -0.73628,0.0452 -0.17629,-0.0319 -0.35268,-0.0189 -0.52887,0.014 -0.14506,0.0592 -0.28604,0.0716 -0.43033,-0.004 -0.14139,-0.0796 -0.28404,-0.0748 -0.42627,-0.0585 -0.1582,0.025 -0.31617,0.0707 -0.47412,0.11446 -0.12623,-0.0833 -0.25219,-0.14525 -0.37997,-0.15592 -0.13514,-10e-4 -0.2701,0.035 -0.40494,0.0694 -0.14027,0.0371 -0.28051,0.076 -0.42077,0.11386 -0.14208,-0.0854 -0.28459,-0.13686 -0.42805,-0.14564 -0.13987,1.7e-4 -0.27954,0.037 -0.41909,0.0729 -0.0899,0.007 -0.23035,-0.32268 -0.30594,-0.0252 1.0762,-3.49328 0.55964,-3.13575 1.03953,-2.00581 0.0602,0.14164 0.1243,0.2505 0.18649,0.37535 0.19143,0.36037 0.38587,0.69751 0.58238,1.00572 0.16694,0.31149 0.3399,0.56228 0.51541,0.77142 0.21946,0.18278 0.4368,0.40401 0.65827,0.5398 0.22285,0.16313 0.44578,0.3322 0.6703,0.44998 0.18831,0.15789 0.37868,0.22122 0.56571,0.40156 0.14043,0.12808 0.27506,0.37732 0.40823,0.60691 0.13544,0.21638 0.27155,0.41615 0.40684,0.63323 0.13883,0.15562 0.2682,0.399 0.39051,0.71538 0.15841,0.33288 0.30047,0.77843 0.43889,1.23972 0.1333,0.4573 0.27769,0.85058 0.40666,1.3311 0.0874,0.30655 0.17743,0.60587 0.25842,0.94343 0.0746,0.2762 0.15267,0.53906 0.22321,0.83471 0.0819,0.38388 0.1624,0.77545 0.23252,1.20038 0.0806,0.42682 0.1729,0.79994 0.27023,1.15676 0.11108,0.39623 0.23332,0.72538 0.34097,1.13983 0.12825,0.39059 0.25224,0.80402 0.37228,1.23864 0.15618,0.48896 0.31837,0.96247 0.4937,1.31964 0.17729,0.36739 0.35823,0.71384 0.54765,0.95287 0.15131,0.17851 0.29288,0.39729 0.43442,0.68118 0.0873,0.21678 0.17505,0.42872 0.26238,0.64557 0,0 -0.83624,2.59759 -0.83624,2.59759 l 0,0 c -0.0861,-0.2067 -0.17096,-0.42425 -0.25947,-0.61219 -0.13598,-0.27706 -0.2798,-0.44117 -0.42227,-0.64869 -0.19015,-0.28537 -0.37523,-0.63222 -0.55603,-1.01065 -0.17798,-0.40155 -0.34672,-0.87583 -0.50609,-1.39913 -0.12565,-0.41948 -0.25438,-0.8208 -0.38113,-1.23378 -0.10876,-0.4015 -0.22818,-0.74442 -0.33876,-1.13647 -0.10446,-0.37651 -0.20131,-0.78497 -0.28634,-1.242 -0.0671,-0.39871 -0.14381,-0.77099 -0.22401,-1.12238 -0.0729,-0.28532 -0.14889,-0.5561 -0.22298,-0.83568 -0.0818,-0.32305 -0.16711,-0.63045 -0.25206,-0.93827 -0.12728,-0.47219 -0.26687,-0.87433 -0.39877,-1.32203 -0.13695,-0.44305 -0.27902,-0.85321 -0.43308,-1.18396 -0.12217,-0.28064 -0.2523,-0.46713 -0.38395,-0.65242 -0.13384,-0.2264 -0.27101,-0.41459 -0.40511,-0.63865 -0.13139,-0.20595 -0.25998,-0.45423 -0.39898,-0.55481 -0.18272,-0.17417 -0.36979,-0.24802 -0.55392,-0.39198 -0.22391,-0.13995 -0.44714,-0.29905 -0.67016,-0.46221 -0.22449,-0.16132 -0.44769,-0.35747 -0.66957,-0.57372 -0.17715,-0.22802 -0.35283,-0.47596 -0.52206,-0.79658 -0.19577,-0.33512 -0.39157,-0.67174 -0.58389,-1.0411 -0.0959,-0.19294 -0.18936,-0.38434 -0.27879,-0.62797 -0.41739,-1.13706 -0.0399,-1.00871 0.67266,-3.25573 0.10382,0.0534 0.20792,0.12805 0.31259,0.12703 0.14144,-0.0329 0.28313,-0.0628 0.42482,-0.0429 0.1409,0.0274 0.28084,0.11693 0.42185,0.11327 0.14043,-0.0383 0.28085,-0.0774 0.42132,-0.11222 0.13726,-0.0317 0.2748,-0.063 0.41229,-0.04 0.1242,0.0305 0.24695,0.12688 0.37133,0.12785 0.15865,-0.0405 0.31736,-0.08 0.47626,-0.0981 0.14565,-0.009 0.29098,0.0178 0.43561,0.0953 0.14047,0.0458 0.28022,-0.025 0.4208,-0.0392 0.17552,-0.0175 0.35102,-0.006 0.52635,0.0352 0.2441,0.042 0.48695,0.0146 0.73039,-0.0786 0.2029,-0.0473 0.40632,-0.11404 0.60958,-0.068 0.19953,0.054 0.39769,0.16762 0.59732,0.21472 0.24201,0.0911 0.48234,0.24837 0.72395,0.35553 0.26098,0.14429 0.52054,0.30253 0.77489,0.60076 0.21903,0.21687 0.43671,0.45192 0.65097,0.74341 0.1543,0.19464 0.30911,0.38167 0.45885,0.63517 0.2106,0.37388 0.42012,0.75891 0.62935,1.14632 0.19528,0.35802 0.39535,0.65996 0.59159,1.00771 0.12772,0.22389 0.25368,0.46513 0.38505,0.64965 0.10443,0.16289 0.20652,0.35916 0.302,0.60171 0.11519,0.31228 0.22073,0.67282 0.32016,1.07179 0.13146,0.49306 0.2496,1.04424 0.35546,1.63794 0.10006,0.52536 0.22183,0.95375 0.33099,1.44295 0.10357,0.51205 0.21672,0.9902 0.30734,1.54795 0.0977,0.47895 0.18869,0.97411 0.27237,1.4983 0.0827,0.48517 0.17108,0.95666 0.22938,1.50736 0.094,0.70128 0.17729,1.42411 0.26653,2.13594 0,0 -0.87805,2.39636 -0.87805,2.39636 z"
       inkscape:connector-curvature="0" />
    <path
       style="fill:#0033ff;fill-opacity:1;stroke:#0000e7;stroke-width:0.5403077;stroke-miterlimit:4;stroke-dasharray:none;stroke-opacity:1"
       id="path4277"
       d="m 562.82532,762.55845 c -0.2134,0.15331 -0.42173,0.41395 -0.62738,0.69631 -0.15089,0.17572 -0.29092,0.50029 -0.42138,0.8616 1.51329,-4.17276 0.77307,-2.31648 0.4651,-1.15713 -0.12506,0.50728 -0.24688,1.02832 -0.3654,1.56288 -0.0963,0.41869 -0.19376,0.82618 -0.2802,1.28234 -0.12108,0.59066 -0.22629,1.21694 -0.31724,1.89664 -0.10615,0.83271 -0.22472,1.6348 -0.3284,2.4732 -0.0929,0.75136 -0.14823,1.55989 -0.20118,2.37272 -0.0419,0.61904 -0.0518,1.25851 -0.0519,1.89863 0.004,0.63766 0.0721,1.13869 0.16327,1.62293 0.13618,0.62194 0.27844,1.22046 0.42822,1.78378 0.19433,0.75864 0.41083,1.32664 0.64822,1.80653 0.23646,0.43412 0.48085,0.69724 0.73706,0.78465 0.28647,0.10502 0.55224,-0.35909 0.81203,-0.8043 0.2801,-0.46333 0.56099,-0.91547 0.84689,-1.31046 0.22274,-0.21943 0.42113,-0.68137 0.60937,-1.21542 0.0329,-0.0944 0.13204,-0.37569 0.0988,-0.28305 -1.37384,3.83154 -0.68371,2.24733 -0.4334,0.71525 0.11217,-0.73852 0.14686,-1.57574 0.15975,-2.43507 0.005,-0.85762 -0.003,-1.71895 -0.0269,-2.5707 -0.0305,-1.17795 -0.14298,-2.26505 -0.25462,-3.338 -0.17112,-1.55425 -0.34517,-3.10376 -0.53326,-4.62267 -0.13268,-0.92386 -0.24203,-1.9307 -0.42493,-2.70076 -0.15348,-0.60271 -0.35171,-0.90718 -0.54659,-1.18579 -0.34146,-0.61024 -0.58694,-0.57788 -0.94727,-0.3532 -0.0736,0.0664 -0.14719,0.13271 -0.22079,0.19908 0,0 0.76369,-2.75334 0.76369,-2.75334 l 0,0 c 0.076,-0.0627 0.1519,-0.12546 0.22785,-0.18814 0.16671,-0.0897 0.23951,-0.16072 0.40369,-0.13545 0.20377,0.0313 0.39529,0.3168 0.58569,0.59991 0.21148,0.30193 0.42471,0.64301 0.5846,1.33055 0.17901,0.84104 0.29214,1.87485 0.42415,2.85076 0.18363,1.53528 0.35114,3.10393 0.5365,4.63565 0.12436,1.08772 0.24427,2.20195 0.28331,3.41112 0.0334,0.87083 0.0378,1.75627 0.0396,2.63756 -0.009,0.90659 -0.0303,1.81974 -0.13772,2.62668 -0.27122,2.19587 -0.89728,3.10557 -1.34085,4.50279 -0.1959,0.4967 -0.40098,0.8926 -0.62352,1.12756 -0.28152,0.40774 -0.56128,0.83374 -0.83729,1.30507 -0.27366,0.4436 -0.55333,0.83306 -0.85087,0.67321 -0.26283,-0.13564 -0.51384,-0.4531 -0.75538,-0.91606 -0.24412,-0.50529 -0.46617,-1.12145 -0.66949,-1.88924 -0.15442,-0.57993 -0.30489,-1.18155 -0.44378,-1.82858 -0.10555,-0.55669 -0.18645,-1.13613 -0.20273,-1.86309 -0.003,-0.67578 10e-4,-1.35435 0.0419,-2.01285 0.0528,-0.83814 0.10548,-1.67595 0.19525,-2.45975 0.098,-0.85244 0.21721,-1.65261 0.32589,-2.48074 0.0848,-0.70131 0.17604,-1.36739 0.30294,-1.94994 0.0858,-0.47362 0.173,-0.9223 0.27501,-1.33364 0.12855,-0.49686 0.23935,-1.07419 0.36656,-1.57916 0.36273,-1.49871 0.8261,-2.45017 1.23574,-3.69539 0.13769,-0.31931 0.27833,-0.60777 0.43207,-0.76392 0.21153,-0.27251 0.42677,-0.4868 0.64175,-0.70464 0,0 -0.79251,2.87311 -0.79251,2.87311 z"
       inkscape:connector-curvature="0" />
    <path
       style="fill:#ff2507;fill-opacity:1;fill-rule:evenodd;stroke:#f7120c;stroke-width:1px;stroke-linecap:butt;stroke-linejoin:miter;stroke-opacity:1;filter:url(#filter5051)"
       d="m 150,767.36215 -35,10 30,-10 -35,5 40,-10 -45,0 45,-5 -35,-5 35,5 5,5 z"
       id="path5025"
       inkscape:connector-curvature="0"
       transform="matrix(0.91069714,-0.1829098,0.05768129,2.8878592,382.90629,-1403.3459)" />
  </g>
</svg>
