<?xml version="1.0" encoding="UTF-8" standalone="no"?>
<!-- Created with Inkscape (http://www.inkscape.org/) -->

<svg
   xmlns:dc="http://purl.org/dc/elements/1.1/"
   xmlns:cc="http://creativecommons.org/ns#"
   xmlns:rdf="http://www.w3.org/1999/02/22-rdf-syntax-ns#"
   xmlns:svg="http://www.w3.org/2000/svg"
   xmlns="http://www.w3.org/2000/svg"
   xmlns:sodipodi="http://sodipodi.sourceforge.net/DTD/sodipodi-0.dtd"
   xmlns:inkscape="http://www.inkscape.org/namespaces/inkscape"
   width="8in"
   height="5in"
   viewBox="0 0 720.00001 450.00001"
   id="svg2"
   version="1.1"
   inkscape:version="0.91 r13725"
   sodipodi:docname="WB_robot_run_19.svg">
  <defs
     id="defs4">
    <inkscape:perspective
       sodipodi:type="inkscape:persp3d"
       inkscape:vp_x="0 : 225 : 1"
       inkscape:vp_y="0 : 1000 : 0"
       inkscape:vp_z="720.00001 : 225 : 1"
       inkscape:persp3d-origin="360 : 150 : 1"
       id="perspective4153" />
  </defs>
  <sodipodi:namedview
     id="base"
     pagecolor="#ffffff"
     bordercolor="#666666"
     borderopacity="1.0"
     inkscape:pageopacity="0.0"
     inkscape:pageshadow="2"
     inkscape:zoom="1.7001989"
     inkscape:cx="360.8318"
     inkscape:cy="225"
     inkscape:document-units="px"
     inkscape:current-layer="layer2"
     showgrid="true"
     units="in"
     inkscape:snap-grids="true"
     showguides="false"
     inkscape:snap-to-guides="false"
     inkscape:window-width="1920"
     inkscape:window-height="982"
     inkscape:window-x="0"
     inkscape:window-y="28"
     inkscape:window-maximized="1">
    <inkscape:grid
       type="xygrid"
       id="grid4136" />
  </sodipodi:namedview>
  <metadata
     id="metadata7">
    <rdf:RDF>
      <cc:Work
         rdf:about="">
        <dc:format>image/svg+xml</dc:format>
        <dc:type
           rdf:resource="http://purl.org/dc/dcmitype/StillImage" />
        <dc:title></dc:title>
      </cc:Work>
    </rdf:RDF>
  </metadata>
  <g
     inkscape:label="Layer 1"
     inkscape:groupmode="layer"
     id="layer1"
     transform="translate(0,-602.36215)" />
  <g
     inkscape:groupmode="layer"
     id="layer2"
     inkscape:label="bground">
    <g
       transform="translate(0,-602.36215)"
       id="g4143"
       style="">
      <rect
         y="642.36212"
         x="50"
         height="360"
         width="610"
         id="rect4138"
         style="fill:#7d7d7e;fill-opacity:1;stroke:#000000;stroke-width:1.098;stroke-miterlimit:4;stroke-dasharray:none;stroke-opacity:1" />
      <rect
         y="652.36212"
         x="60"
         height="340.00003"
         width="590"
         id="rect4151"
         style="fill:#ffffff;fill-opacity:1;stroke:#000000;stroke-width:1.09800005;stroke-miterlimit:4;stroke-dasharray:none;stroke-opacity:1" />
      <rect
         y="982.36212"
         x="70"
         height="20"
         width="80"
         id="rect4193"
         style="fill:#001a12;fill-opacity:1;stroke:#000000;stroke-width:1.09800005;stroke-miterlimit:4;stroke-dasharray:none;stroke-opacity:1" />
      <rect
         y="982.36212"
         x="180"
         height="10"
         width="40"
         id="rect4195"
         style="fill:#ff1a12;fill-opacity:1;stroke:#000000;stroke-width:1.09800005;stroke-miterlimit:4;stroke-dasharray:none;stroke-opacity:1" />
      <rect
         style="fill:#00ff00;fill-opacity:1;stroke:#000000;stroke-width:1.09800005;stroke-miterlimit:4;stroke-dasharray:none;stroke-opacity:1"
         id="rect4197"
         width="40"
         height="10"
         x="243.21626"
         y="981.53033" />
      <rect
         y="981.53033"
         x="297.28281"
         height="10"
         width="40"
         id="rect4199"
         style="fill:#ffff00;fill-opacity:1;stroke:#000000;stroke-width:1.09800005;stroke-miterlimit:4;stroke-dasharray:none;stroke-opacity:1" />
      <rect
         style="fill:#00ffff;fill-opacity:1;stroke:#000000;stroke-width:1.09800005;stroke-miterlimit:4;stroke-dasharray:none;stroke-opacity:1"
         id="rect4201"
         width="40"
         height="10"
         x="385.45285"
         y="981.53033" />
      <rect
         y="983.19391"
         x="467.80035"
         height="10"
         width="40"
         id="rect4203"
         style="fill:#000080;fill-opacity:1;stroke:#000000;stroke-width:1.09800005;stroke-miterlimit:4;stroke-dasharray:none;stroke-opacity:1" />
    </g>
    <path
       style="fill:#000000;fill-opacity:1;stroke:#000000;stroke-width:0.498;stroke-miterlimit:4;stroke-dasharray:none;stroke-opacity:1"
       id="path4209"
       d="m 191.25055,192.39291 c 2.68026,0.51395 5.32707,1.15734 7.97574,1.80988 2.73902,0.57725 5.46207,1.22903 8.23085,1.64849 2.66843,0.36174 5.36269,0.4307 8.0514,0.46876 1.99191,0.0247 3.98382,-0.007 5.97572,-0.013 1.59971,-0.01 3.19944,-0.009 4.79916,-0.004 1.55064,9e-5 3.10127,-0.007 4.65191,-0.0111 1.2322,0.11721 2.40294,-0.12266 3.6062,-0.32809 1.19749,-0.1913 2.41074,-0.23576 3.62116,-0.251 1.57469,0.12626 3.03959,0.72311 4.4944,1.29918 1.65129,0.80699 3.37805,1.43591 5.05405,2.18797 1.6994,0.75616 3.4712,1.32731 5.19512,2.01939 1.96717,0.99865 4.02353,1.75871 6.08315,2.53907 2.41254,0.84464 4.87489,1.52077 7.35301,2.14067 2.71064,0.67024 5.39024,1.44748 8.07457,2.21509 2.87834,0.87154 5.69957,1.91975 8.51431,2.97559 3.07098,1.18834 6.15321,2.32328 9.29487,3.30843 3.09599,1.06068 6.3417,1.55477 9.54639,2.16329 3.26532,0.51943 6.53745,0.99461 9.83304,1.27338 3.46557,0.24553 6.94167,0.2632 10.41424,0.27372 2.44678,0.002 4.89351,-0.0189 7.34018,-0.0391 1.36412,-0.0655 2.74583,0.0996 4.09639,-0.12225 1.65749,-0.27517 3.20267,-0.98161 4.81347,-1.45026 2.00361,-0.72033 4.09731,-1.18976 6.19524,-1.54051 2.45477,-0.36141 4.93986,-0.36884 7.41509,-0.39623 3.01912,0.096 6.01205,0.48052 9.0137,0.78345 2.87516,0.40104 5.75159,0.81693 8.60715,1.34135 2.35426,0.35287 4.68333,0.84933 7.04731,1.1361 1.80303,0.25866 3.56187,0.72939 5.34969,1.06061 2.21785,0.48619 4.29345,1.43836 6.39637,2.26835 3.02909,1.05617 6.07543,2.02901 9.22266,2.65863 3.73264,0.78407 7.54345,1.0575 11.33078,1.44684 2.9065,0.34321 5.84339,0.22645 8.72687,0.74306 2.0281,0.19411 3.51813,0.89953 5.30992,1.73376 1.77958,0.93588 3.55118,1.88655 5.33606,2.8125 2.43251,1.38684 5.13968,2.02892 7.805,2.79027 3.13475,0.79967 6.30376,1.45114 9.50748,1.90004 2.957,0.43434 5.91336,0.86782 8.873,1.28517 1.81103,0.21476 3.62127,0.28517 5.4214,0.57292 1.35459,0.22398 2.72461,0.30937 4.09509,0.35159 1.65595,0.32742 3.3129,0.63487 4.97438,0.93363 3.79683,0.70187 7.64229,0.99705 11.47935,1.37116 4.33752,0.4425 8.69508,0.59599 13.05194,0.67672 3.11567,0.0363 6.22761,0.12604 9.33059,-0.18714 0.88554,-0.16266 1.80534,-0.13099 2.69128,-0.28323 0.57537,-0.0989 1.15084,-0.31829 1.7199,-0.45525 1.15497,-0.34914 2.31131,-0.59571 3.51653,-0.73134 1.68497,-0.36616 3.39813,-0.56018 5.10195,-0.81834 2.3768,-0.27765 4.73808,-0.66578 7.09329,-1.08575 2.25285,-0.45037 4.53683,-0.70148 6.80235,-1.06994 2.32279,-0.40372 4.67346,-0.54306 7.02609,-0.60869 2.66464,-0.259 5.33492,-0.44039 8.00968,-0.5488 2.43894,-0.0844 4.87961,-0.0899 7.31972,-0.0945 2.37968,-0.0678 4.7436,0.0113 7.09498,0.39007 2.24662,0.30733 4.45348,0.82008 6.70365,1.10251 2.75268,0.43668 5.51731,0.80869 8.29119,1.08309 3.55511,0.32137 7.10564,0.65397 10.67204,0.82841 2.68093,0.11675 5.36466,0.13413 8.04769,0.13062 1.88955,-0.003 3.77907,-0.0118 5.66863,-0.0103 1.85435,0.003 3.7087,-0.001 5.56304,-0.009 1.32847,-0.006 2.65694,-0.009 3.98542,-0.0102 1.17623,-9.3e-4 2.35246,-8.3e-4 3.52869,-8e-4 1.17395,4e-5 2.3479,8e-5 3.52185,10e-5 1.10301,-0.0331 2.15477,0.35913 3.18478,0.70459 1.06914,0.33605 2.18949,0.40636 3.30142,0.45358 0.19296,0.005 0.38591,0.01 0.57887,0.0144 0,0 -7.07838,5.10197 -7.07838,5.10197 l 0,0 c -0.19683,-0.01 -0.39365,-0.0199 -0.59048,-0.0298 -1.1653,-0.0898 -2.32673,-0.24208 -3.43497,-0.63349 -0.97939,-0.31295 -1.98377,-0.54261 -3.01992,-0.48282 -1.17405,3e-5 -2.34809,6e-5 -3.52214,1e-4 -1.17546,1e-5 -2.35093,1e-4 -3.52639,-8.7e-4 -1.31916,-0.001 -2.63832,-0.004 -3.95747,-0.01 -1.84828,-0.007 -3.69657,-0.0104 -5.54486,-0.003 -1.88491,0.006 -3.76985,0.007 -5.65474,-0.007 -2.66306,-0.0308 -5.32662,-0.0786 -7.98619,-0.22702 -3.5725,-0.21261 -7.1335,-0.54996 -10.69869,-0.85702 -2.8037,-0.28265 -5.60059,-0.63223 -8.38718,-1.05168 -2.24068,-0.32404 -4.44988,-0.82618 -6.6962,-1.11759 -2.33266,-0.29801 -4.67209,-0.33697 -7.02201,-0.28745 -2.42833,0.007 -4.85732,0.0161 -7.28413,0.11166 -2.67739,0.12087 -5.34636,0.34132 -8.01801,0.54846 -2.33795,0.10671 -4.67072,0.29495 -6.97905,0.69737 -2.27104,0.32621 -4.53542,0.67661 -6.79305,1.08773 -2.3649,0.41376 -4.74374,0.7399 -7.11961,1.08377 -1.72092,0.27597 -3.44742,0.51141 -5.15924,0.84133 -1.18191,0.19223 -2.31508,0.5452 -3.48022,0.81324 -1.44882,0.34925 -2.9267,0.4553 -4.41025,0.57319 -3.08063,0.21269 -6.16659,0.0625 -9.25133,0.0159 -4.36518,-0.11302 -8.73194,-0.26553 -13.07654,-0.73206 -3.88842,-0.34077 -7.77393,-0.70624 -11.62813,-1.34034 -1.67279,-0.25213 -3.33629,-0.57832 -5.01527,-0.77594 -1.38388,-0.0747 -2.7626,-0.21177 -4.1299,-0.4431 -1.78168,-0.25823 -3.58439,-0.31961 -5.36264,-0.61186 -2.93056,-0.46677 -5.86622,-0.88806 -8.80024,-1.33181 -3.2337,-0.48831 -6.44315,-1.1336 -9.60601,-1.96932 -2.72225,-0.76888 -5.44934,-1.51865 -7.94015,-2.90557 -1.791,-0.9157 -3.57182,-1.85136 -5.3691,-2.7546 -1.63777,-0.7823 -3.30077,-1.35902 -5.12069,-1.57082 -2.85751,-0.42032 -5.75656,-0.39788 -8.6227,-0.75803 -3.80223,-0.41957 -7.62669,-0.71874 -11.37482,-1.51801 -3.1845,-0.68116 -6.29457,-1.63928 -9.36033,-2.73664 -2.09156,-0.79817 -4.1678,-1.69208 -6.38268,-2.09319 -1.75853,-0.36426 -3.50682,-0.78328 -5.28668,-1.03809 -2.3559,-0.33366 -4.68702,-0.82024 -7.03705,-1.19243 -2.83821,-0.49614 -5.68273,-0.9654 -8.54423,-1.30684 -2.98504,-0.31154 -5.96966,-0.67347 -8.97606,-0.68659 -2.46068,0.0464 -4.93287,0.10489 -7.36274,0.53474 -2.08253,0.41144 -4.14504,0.92666 -6.14843,1.63461 -1.62799,0.53262 -3.23671,1.2051 -4.95982,1.34961 -1.37197,0.0722 -2.74656,0.0196 -4.11999,0.0278 -2.41398,-0.0114 -4.82797,-0.0214 -7.24191,-0.041 -3.48612,-0.0344 -6.97674,-0.0626 -10.45434,-0.33169 -3.31149,-0.31006 -6.60359,-0.79285 -9.88379,-1.33904 -3.2335,-0.60224 -6.48824,-1.17328 -9.60693,-2.2472 -3.14702,-1.00753 -6.2329,-2.1749 -9.32467,-3.33998 -2.80808,-1.04093 -5.62723,-2.06179 -8.50389,-2.89928 -2.68005,-0.7546 -5.34867,-1.54695 -8.0587,-2.19067 -2.50966,-0.61458 -4.98992,-1.34206 -7.42325,-2.21383 -2.07852,-0.7719 -4.13348,-1.57964 -6.14463,-2.51487 -1.73945,-0.67191 -3.49938,-1.29309 -5.20357,-2.05373 -1.67787,-0.72012 -3.37598,-1.39152 -5.04004,-2.14419 -1.40087,-0.50799 -2.81349,-1.04912 -4.32965,-0.99949 -1.19163,0.0525 -2.38317,0.13222 -3.55754,0.35373 -1.22291,0.20211 -2.44345,0.25323 -3.68305,0.20448 -1.54085,-0.004 -3.0817,-0.0112 -4.62256,-0.01 -1.60219,0.007 -3.20439,0.0115 -4.8066,0.011 -1.97639,0.004 -3.95278,-0.0149 -5.92895,-0.0437 -2.70472,-0.0633 -5.41344,-0.17714 -8.09199,-0.58519 -2.78072,-0.45568 -5.52833,-1.08821 -8.27622,-1.70882 -2.6693,-0.67347 -5.35178,-1.27773 -8.07129,-1.71678 0,0 7.16084,-4.96711 7.16084,-4.96711 z"
       inkscape:connector-curvature="0" />
    <path
       style="fill:#000000;fill-opacity:1;stroke:#000000;stroke-width:0.498;stroke-miterlimit:4;stroke-dasharray:none;stroke-opacity:1"
       id="path4211"
       d="m 487.68721,229.33164 c -1.52477,1.26988 -2.93682,2.66716 -4.43537,3.96799 -1.18292,0.96991 -2.41938,1.87597 -3.69212,2.72433 -3.36557,2.29828 -6.84,4.56171 -10.63716,6.05373 -3.07763,1.43954 -8.93838,4.98655 4.01897,-2.46913 -2.68166,1.53752 -5.36453,3.07294 -8.04499,4.61255 -5.42659,3.11693 9.71693,-5.74247 4.78244,-2.74559 -26.59012,15.3138 4.80823,-2.72086 -1.37889,0.87425 -2.63511,1.53117 -5.29404,3.0212 -7.92481,4.5598 -2.34885,1.37373 4.71589,-2.71612 7.07902,-4.06514 0.13483,-0.077 -0.26251,0.16586 -0.39377,0.24879 -2.64224,1.49522 -5.28449,2.99044 -7.92673,4.48567 -0.14797,0.0764 -0.58821,0.31253 -0.44392,0.22934 2.33078,-1.34378 9.33642,-5.35195 7.0038,-4.01137 -26.44915,15.20061 17.48822,-10.00736 -9.07565,5.17243 2.32268,-1.33156 4.64105,-2.67068 6.96805,-3.99468 0.16222,-0.0923 -0.31138,0.20631 -0.47321,0.29929 -2.65022,1.52262 -5.29067,3.0628 -7.96248,4.54722 -2.36984,1.31665 9.35715,-5.47808 7.05653,-4.04389 -0.3795,0.23659 -19.30779,11.14786 -0.85508,0.50677 -19.24332,11.08758 -2.62719,1.51021 -0.88618,0.52 0.14415,-0.082 -0.27418,0.18668 -0.41281,0.2777 -0.44229,0.29041 -0.88744,0.57614 -1.33898,0.85188 -0.91859,0.63597 -1.84629,1.26057 -2.73103,1.94351 -0.50429,0.5073 -1.25289,0.52564 -0.41484,0.82692 0.90204,0.25897 1.81859,0.31824 2.63757,-0.18405 0.13065,-0.0653 0.25758,-0.13858 0.39194,-0.19582 1.01353,-0.4318 -0.11089,0.15152 0.77789,-0.41482 0.12342,-0.0786 0.51366,-0.28064 0.38696,-0.20739 -7.35499,4.2521 -9.32576,5.74465 -6.78876,3.85051 0.71165,-0.59233 1.46071,-1.14036 2.1905,-1.71194 0.95089,-0.71001 1.91924,-1.38981 2.92597,-2.01843 3.35295,-2.28953 6.98328,-4.13377 10.49342,-6.16799 1.15155,-0.5946 2.33467,-1.12987 3.47189,-1.75231 -16.95266,9.7241 -0.49338,0.29049 1.1668,-0.6956 2.28892,-1.35953 -4.60985,2.66453 -6.92629,3.97662 -1.14527,0.64871 1.04224,-0.72484 1.31362,-0.94172 0.68084,-0.54238 1.33081,-1.13153 1.92699,-1.76634 0.5874,-0.58414 1.19305,-1.15288 1.75494,-1.76231 0.68572,-0.6738 1.40392,-1.2912 2.15315,-1.89078 0.72258,-0.47899 1.3011,-1.13458 2.03589,-1.5933 26.67176,-15.51156 -16.81887,9.79057 8.9697,-5.21736 2.35187,-1.36869 -9.44746,5.40521 -7.0735,4.0752 2.6587,-1.48952 5.28516,-3.03586 7.92774,-4.55379 -2.35423,1.35225 -4.70279,2.7144 -7.06269,4.05673 -0.1426,0.0811 0.26777,-0.19052 0.40987,-0.27252 2.63584,-1.5211 5.27414,-3.03805 7.92305,-4.53628 2.37177,-1.34147 -9.3939,5.5235 -7.0916,4.06601 6.43106,-4.07123 5.10367,-3.56258 8.3225,-4.7232 0.16071,-0.0384 0.32765,-0.0565 0.48211,-0.11514 0.28115,-0.10677 1.07389,-0.5406 0.8136,-0.38996 -2.24739,1.30066 -9.03259,5.12756 -6.77718,3.84086 2.63124,-1.50111 5.2664,-2.99535 7.89961,-4.49303 0.61357,-0.5742 1.00995,0.45327 0.95144,0.97135 -0.0266,0.23528 -0.37589,0.68016 -0.48714,0.84003 -0.85184,1.16269 -1.96379,2.07428 -3.05024,3.004 -3.05241,2.43984 -6.84738,4.27346 -10.13046,6.09195 -2.37022,1.31285 4.7023,-2.69344 7.05345,-4.04015 -26.28942,14.95355 17.59462,-9.91938 -8.80168,5.04205 -2.35914,1.33716 4.69832,-2.70928 7.05541,-4.05004 0.20701,-0.11775 -0.28657,0.19201 -0.85756,0.55202 -1.11881,0.63854 -2.15361,1.38782 -3.16768,2.17929 -3.0377,2.28371 -6.51843,3.92928 -9.765,5.86095 -2.26947,1.35032 9.19291,-5.20089 6.8628,-3.95814 -2.72646,1.45415 -5.36826,3.06174 -8.05239,4.59261 0.42319,-0.16419 -1.56764,0.82681 -1.18469,0.60368 2.3075,-1.34443 9.22262,-5.38775 6.95433,-3.97817 -2.60089,1.61626 -5.29046,3.08549 -7.95269,4.59858 -0.16048,0.0912 -0.67091,0.3052 -0.51152,0.2121 2.34126,-1.36765 4.7075,-2.69208 7.06124,-4.03812 -2.63298,1.51633 -5.26597,3.03267 -7.89896,4.54901 -0.15261,0.0552 -0.31349,0.0914 -0.45782,0.1656 -0.96887,0.49799 0.25092,0.035 -0.76332,0.45819 -0.7298,0.30449 -0.16822,-0.0435 -0.78889,0.39676 -0.13029,0.0648 -0.51683,0.26747 -0.39089,0.19453 15.29865,-8.86101 2.61005,-1.54849 -2.37072,1.30395 -0.18815,0.0865 -0.74342,0.36355 -0.56445,0.25939 12.2191,-7.1118 8.61335,-4.92114 6.01436,-3.41462 -7.14683,4.14268 -13.34061,7.70802 -1.01209,0.60111 -26.71812,15.27724 4.79356,-2.73197 -1.47419,0.86625 -2.64763,1.51996 -5.28379,3.06058 -7.95494,4.5388 -0.67246,0.19489 -0.36125,0.0619 -0.93865,0.38695 -1.29333,0.65395 -1.99273,-0.31554 -1.44565,-1.55203 2.36756,-2.99251 7.73297,-5.23331 10.17108,-6.65258 2.65476,-1.47166 3.22437,-1.79098 -6.42936,3.71159 -0.19036,0.10851 0.3704,-0.23423 0.55356,-0.3545 0.57014,-0.37439 1.13881,-0.75157 1.70308,-1.13477 1.11775,-0.79262 2.13628,-1.71438 3.23262,-2.53424 2.06534,-1.58142 11.44314,-6.52018 8.78978,-3.52317 -0.91495,0.71938 -1.8783,1.37647 -2.83593,2.03745 -0.95869,0.6357 -1.91707,1.27122 -2.8301,1.97187 -0.39765,0.10383 -0.96204,0.95962 -1.32905,1.06257 -0.0667,0.0187 -0.30759,-0.57825 -0.20203,-0.81935 0.0739,-0.16888 0.32538,-0.17341 0.48807,-0.26012 1.95521,-0.75681 3.87349,-1.58138 5.76303,-2.49567 2.75112,-1.41295 7.61067,-4.23607 -4.64957,2.75433 -0.23133,0.13189 0.45916,-0.26985 0.68772,-0.4065 0.7354,-0.43969 0.52996,-0.31536 1.23758,-0.78029 1.05217,-0.74889 2.06071,-1.55522 3.0779,-2.35013 1.11244,-0.83453 2.05106,-1.85671 3.02872,-2.83649 1.03131,-0.93796 1.97166,-1.96518 2.94925,-2.95634 1.00557,-1.01226 2.04194,-1.98467 3.18013,-2.84603 0.89187,-0.5821 1.67409,-1.31783 2.58628,-1.86669 2.884,-2.01012 5.75224,-4.41948 9.25031,-4.94826 0,0 -6.95142,5.29969 -6.95142,5.29969 l 0,0 c -0.2939,0.0964 -1.12961,0.49787 -0.86284,0.34135 5.61231,-3.29283 9.56621,-5.48939 6.70278,-3.89643 -0.78583,0.62564 0.0781,-0.0158 -0.80253,0.49556 -0.65627,0.38108 -1.16849,0.9941 -1.81756,1.39124 -1.20584,0.74552 -2.23794,1.69634 -3.23314,2.70139 -1.00817,0.9647 -1.90452,2.0291 -2.9491,2.95905 -1.00726,0.96378 -1.90452,2.02918 -2.99083,2.91144 -1.00265,0.83506 -2.05181,1.60161 -3.07098,2.41317 -0.62645,0.46221 -1.25757,0.87065 -1.93237,1.25952 -3.38764,1.95221 -6.68124,4.02198 -10.18665,5.73655 -1.93182,0.9093 -3.90378,1.7145 -5.89476,2.485 -0.21305,0.0469 -0.43142,0.20725 -0.63916,0.14065 -0.27862,-0.0893 -0.9232,-0.59088 -0.82984,-1.04039 0.11089,-0.534 0.94697,-0.89234 1.30351,-1.19777 0.87641,-0.74926 1.80717,-1.44237 2.79944,-2.02304 0.93835,-0.67383 1.88619,-1.31628 2.83705,-1.97155 3.35309,-1.83725 11.98216,-5.90401 7.45818,-2.90731 -1.21103,0.65578 -2.16784,1.68158 -3.26709,2.50237 -3.34814,2.49202 -7.14565,4.32146 -10.71306,6.46253 12.89875,-7.53615 7.27097,-4.54002 4.62873,-2.34696 -0.0947,0.091 -0.16379,0.22048 -0.28421,0.27298 -0.0621,0.0271 -0.43837,-0.0381 -0.39719,-0.21606 0.0455,-0.19653 0.91993,-0.23075 0.95447,-0.43874 0.31167,-0.12116 1.20892,-0.56793 0.92057,-0.39861 -2.1733,1.27615 -8.71939,5.05974 -6.54093,3.7924 2.64832,-1.54068 5.31588,-3.04876 7.94502,-4.62196 2.29258,-1.3718 -4.62349,2.67849 -6.93523,4.01774 26.0087,-15.05403 -5.35277,3.05116 1.9768,-1.17018 8.26554,-4.76041 5.25501,-3.15467 8.51538,-4.88484 0.93028,-0.48529 0.1659,-0.0805 1.04513,-0.56195 0.16374,-0.0897 0.6542,-0.35987 0.49282,-0.26602 -14.5866,8.48292 -3.75729,2.11674 1.24084,-0.69598 3.01998,-1.3024 7.71614,-4.79276 -5.05454,3.06905 2.64058,-1.51564 5.27996,-3.03339 7.92175,-4.54693 6.25445,-3.5833 -25.22871,14.45762 1.49076,-0.82642 0.38338,-0.21929 0.79022,-0.39577 1.1726,-0.61696 -23.11625,13.39281 17.43611,-9.9791 -5.68835,3.32545 -1.69872,0.97735 3.4633,-1.93297 1.75597,-1.15742 1.04419,-0.73157 1.95145,-1.66781 3.1239,-2.20823 2.72316,-1.91555 6.34011,-3.667 8.74599,-5.15767 2.29835,-1.42403 -9.36815,5.40383 -7.01975,4.06394 0.41235,-0.23527 19.34613,-11.18522 0.85702,-0.49315 11.13552,-6.40017 9.77562,-5.63466 0.93715,-0.49591 -0.16847,0.0979 0.34347,-0.18511 0.50704,-0.29104 0.58042,-0.37588 1.16633,-0.73442 1.73053,-1.13607 1.05125,-0.91556 2.19119,-1.74128 3.07822,-2.82612 0.17619,-0.20348 0.28178,-0.53517 0.54375,-0.59694 0.35295,-0.0832 0.89231,0.86228 0.18178,0.79507 2.36871,-1.36988 4.73722,-2.74009 7.10612,-4.10964 0.12396,-0.0717 -0.24705,0.14482 -0.37129,0.21599 -2.6267,1.50476 -5.24693,3.02092 -7.88152,4.51181 -0.40485,0.2291 -0.87602,0.29029 -1.27966,0.52231 -2.76949,1.5704 -0.52939,0.30186 6.6793,-3.87714 -2.64219,1.4954 -5.23514,3.07706 -7.88451,4.55968 -14.47887,8.10251 10.68225,-6.21334 6.62828,-3.84248 -2.62776,1.53676 -5.25656,3.07174 -7.88483,4.60761 18.48778,-10.71078 -0.51303,0.29677 -0.85516,0.49695 -2.36324,1.38273 9.51055,-5.43009 7.10877,-4.11544 -26.51805,14.51502 5.14272,-2.23475 -1.1325,0.61151 -0.70173,0.59551 0.0595,0.002 -0.7176,0.45432 -0.50213,0.29219 -0.85284,0.81407 -1.31814,1.15669 -0.8138,0.49949 -1.5283,1.09685 -2.18907,1.78062 -0.65362,0.50764 -1.17746,1.17737 -1.75455,1.76468 -0.696,0.54592 -1.24044,1.26742 -1.90933,1.84903 -0.562,0.40223 -0.28772,0.17942 -0.81868,0.67351 -2.59923,1.99413 -5.71007,3.22133 -8.46145,4.99966 -0.38219,0.24703 20.78283,-12.05698 -1.18732,0.67387 -1.16139,0.57543 -2.31926,1.1593 -3.45853,1.77748 -2.83768,1.54908 -1.53274,0.84293 6.37666,-3.71703 1.65053,-0.95157 -3.59366,2.08719 -1.97051,1.21183 -0.93401,0.7166 -2.02541,1.2134 -2.9132,2.0019 -0.76987,0.49711 -1.54467,1.05047 -2.18009,1.71157 -3.12011,2.08511 -6.28573,4.23465 -9.80747,5.55973 -1.0605,0.16517 -2.11385,0.0771 -3.08199,-0.42679 -0.91306,-0.65636 -1.37731,-1.56433 -0.36132,-2.38382 0.92347,-0.62714 1.76188,-1.37237 2.72387,-1.9487 0.53269,-0.43609 1.14651,-0.79763 1.74231,-1.1471 9.09888,-5.33697 11.51628,-6.72505 0.87404,-0.55352 2.63559,-1.53247 5.292,-3.0297 7.90679,-4.59741 2.3309,-1.39751 -9.42491,5.41719 -7.05507,4.08675 2.65515,-1.49061 5.25018,-3.08703 7.91109,-4.56733 2.35615,-1.31076 -4.66391,2.70663 -6.99665,4.05861 -0.16188,0.0938 0.32274,-0.18943 0.48411,-0.28414 2.65357,-1.54274 5.30714,-3.08548 7.96071,-4.62822 -17.07624,9.88312 -0.55627,0.31522 1.08971,-0.60733 2.33797,-1.31039 -9.31751,5.30089 -6.96085,4.02442 2.69394,-1.45915 5.30879,-3.0599 7.97301,-4.57264 0.148,-0.084 0.60909,-0.30294 0.46223,-0.21691 -2.35289,1.37831 -4.72136,2.72985 -7.08205,4.09477 3.19825,-1.72174 -2.00748,1.08633 8.29002,-4.79484 2.3529,-1.34381 -4.68455,2.7245 -7.02682,4.08675 0.14745,-0.0907 0.29328,-0.184 0.44235,-0.27197 2.63222,-1.55332 5.336,-2.99056 7.90144,-4.65185 2.25109,-1.45773 -4.63829,2.6937 -6.95743,4.04054 4.1378,-2.79155 18.65177,-10.56515 3.2662,-1.90316 3.60373,-2.0809 7.12197,-4.40046 10.95164,-6.06913 2.7974,-1.31657 5.9454,-3.37646 -5.86797,3.51949 -1.5577,0.90929 3.12624,-1.72285 1.56017,-0.96379 1.22421,-0.9303 2.57582,-1.69408 3.76051,-2.68366 1.54133,-1.21894 2.92417,-2.61764 4.37294,-3.94023 0,0 8.09668,-3.26808 8.09668,-3.26808 z"
       inkscape:connector-curvature="0" />
    <g
       id="g4570"
       transform="translate(142.33628,1.176333)">
      <g
         transform="translate(243.50091,39.99532)"
         id="g4232">
        <path
           style="fill:none;fill-rule:evenodd;stroke:#000000;stroke-width:1px;stroke-linecap:butt;stroke-linejoin:miter;stroke-opacity:1"
           d="m 145,155 c 0.3015,1.12116 0.27712,2.15395 0.27712,3.26943 0,0.19606 -0.13864,0.44954 0,0.58817 0.13863,0.13863 0.44953,-0.13863 0.58816,0 0.13864,0.13863 0,0.39211 0,0.58817 0,0.19605 0,0.39211 0,0.58816 0,2.54872 0,5.09745 0,7.64617 0,0.21599 -0.0237,2.32899 0,2.35266 0.13864,0.13863 0.44954,-0.13863 0.58817,0 0.13863,0.13863 0,0.39211 0,0.58817 0,0.19605 0,0.39211 0,0.58817 0,0.58816 0,1.17633 0,1.7645 0,0.19605 0.19606,0.58816 0,0.58816 -0.19606,0 0,-0.78422 0,-0.58816 0,0.39211 -0.17536,0.82561 0,1.17633 0.0314,0.0629 2.2308,-0.12187 2.35267,0 0.13863,0.13863 -0.13864,0.44953 0,0.58816 0.27726,0.27727 0.82561,-0.17535 1.17633,0 0.24799,0.124 0.34017,0.46417 0.58817,0.58817 0.17535,0.0877 0.44953,-0.13863 0.58816,0 0.13863,0.13863 -0.13863,0.44954 0,0.58817 0.18213,0.18212 2.75871,-0.18213 2.94083,0 0.13864,0.13863 -0.13863,0.44953 0,0.58816 0.13864,0.13864 0.39211,0 0.58817,0 0.40909,0 2.72813,-0.10635 2.94083,0 0.248,0.124 0.34018,0.46417 0.58817,0.58817 0.47053,0.23527 1.29397,-0.23527 1.7645,0 0.24799,0.124 0.34017,0.46417 0.58816,0.58817 0.35072,0.17535 0.89907,-0.27727 1.17634,0 0.13863,0.13863 -0.13863,0.44953 0,0.58816 0.13863,0.13864 0.41281,-0.0877 0.58816,0 0.248,0.124 0.34018,0.46417 0.58817,0.58817 0.17536,0.0877 0.44954,-0.13863 0.58817,0 0.13863,0.13863 -0.13863,0.44953 0,0.58817 0.13863,0.13863 0.41281,-0.0877 0.58816,0 0.248,0.12399 0.34018,0.46417 0.58817,0.58816 0.17536,0.0877 0.41281,-0.0877 0.58817,0 0.24799,0.124 0.34017,0.46417 0.58816,0.58817 0.17536,0.0877 0.41281,-0.0877 0.58817,0 0.49599,0.24799 0.68035,0.92834 1.17633,1.17633 0.17536,0.0877 0.41281,-0.0877 0.58817,0 0.49598,0.24799 0.68035,0.92834 1.17633,1.17633 0.17536,0.0877 0.41281,-0.0877 0.58817,0 0.7058,0.3529 1.0587,1.4116 1.7645,1.7645 0.17536,0.0877 0.44953,-0.13863 0.58816,0 0.13864,0.13864 -0.13863,0.44954 0,0.58817 0.13864,0.13863 0.44954,-0.13863 0.58817,0 0.13863,0.13863 -0.13863,0.44954 0,0.58817 0.13863,0.13863 0.44953,-0.13863 0.58817,0 0.13863,0.13863 -0.13864,0.44953 0,0.58816 0.13863,0.13864 0.41281,-0.0877 0.58816,0 1.24878,0.62439 -0.0724,0.55195 1.17634,1.17634 0.17535,0.0877 0.41281,-0.0877 0.58816,0 0.248,0.12399 0.34018,0.46417 0.58817,0.58816 0.17536,0.0877 0.44953,-0.13863 0.58817,0 0.13863,0.13864 -0.13864,0.44954 0,0.58817 0.13863,0.13863 0.39211,0 0.58816,0 0.19606,0 0.39211,0 0.58817,0 1.17633,0 2.35266,0 3.529,0 0.19605,0 0.39211,0 0.58816,0 0.19606,0 0.41281,-0.0877 0.58817,0 0.24799,0.124 0.34017,0.46417 0.58817,0.58817 0.47053,0.23526 1.29396,-0.23527 1.7645,0 0.24799,0.12399 0.34017,0.46417 0.58816,0.58816 0.31908,0.15954 2.19173,-0.16093 2.35267,0 0.13863,0.13863 -0.13863,0.44954 0,0.58817 0.27726,0.27726 0.82562,-0.17536 1.17633,0 0.24799,0.124 0.34018,0.46417 0.58817,0.58817 0.35071,0.17535 0.82562,-0.17536 1.17633,0 0.24799,0.12399 0.34017,0.46417 0.58817,0.58816 0.62694,0.31347 0.54939,-0.31347 1.17633,0 0.24799,0.124 0.34017,0.46417 0.58817,0.58817 0.35071,0.17536 0.89907,-0.27727 1.17633,0 0.13863,0.13863 -0.13863,0.44953 0,0.58816 0.27726,0.27727 0.82562,-0.17535 1.17633,0 0.248,0.124 0.34018,0.46417 0.58817,0.58817 0.35071,0.17536 0.89907,-0.27726 1.17633,0 0.13863,0.13863 -0.13863,0.44954 0,0.58817 0.13863,0.13863 0.41281,-0.0877 0.58817,0 0.24799,0.12399 0.34017,0.46417 0.58817,0.58816 0.2332,0.11661 1.64425,-0.12024 1.76449,0 0.13864,0.13864 -0.13863,0.44954 0,0.58817 0.29409,0.29408 1.47042,-0.29408 1.7645,0 0.13864,0.13863 -0.13863,0.44954 0,0.58817 0.13864,0.13863 0.39211,0 0.58817,0 0.19606,0 0.78422,0 0.58817,0 -0.39211,0 -1.56845,0 -1.17634,0 5.48956,0 0.58817,0.58816 1.7645,-0.58817 0.13864,-0.13863 0.44954,0.13863 0.58817,0 0.13863,-0.13863 -0.0877,-0.41281 0,-0.58817 1.9507,-1.9507 -0.27726,0.55453 0.58817,-1.17633 0.12399,-0.24799 0.46417,-0.34017 0.58816,-0.58817 0.17536,-0.35071 -0.27726,-0.89906 0,-1.17633 0.13863,-0.13863 0.44954,0.13863 0.58817,0 0.13863,-0.13863 0,-0.39211 0,-0.58816 0,-0.98028 0,-1.96056 0,-2.94084 0,-0.19605 -0.13863,-0.44953 0,-0.58816 0.13863,-0.13864 0.44953,0.13863 0.58817,0 0.20645,-0.20646 -0.20314,-2.53457 0,-2.94084 0.12399,-0.24799 0.46417,-0.34017 0.58816,-0.58816 0.20314,-0.40627 -0.20646,-2.73438 0,-2.94083 0.13863,-0.13864 0.44954,0.13863 0.58817,0 0.13863,-0.13864 0,-0.39212 0,-0.58817 0,-1.17633 0,-2.35267 0,-3.529 0,-1.17633 0,-2.35267 0,-3.529 0,-0.15299 0,-1.32932 0,-1.17633 0,0.39211 -0.39211,1.17633 0,1.17633 1.61961,0 0.1661,-1.34243 0.58817,-1.7645 0.13863,-0.13863 0.44953,0.13863 0.58816,0 0.13863,-0.13863 -0.13863,-0.44953 0,-0.58816 0.13863,-0.13864 0.44954,0.13863 0.58817,0 0.13863,-0.13864 0.17536,-0.50049 0,-0.58817 -0.35072,-0.17536 -0.80435,0.124 -1.17633,0 -0.26304,-0.0877 -0.35747,-0.43437 -0.58817,-0.58817 -0.36477,-0.24317 -0.78422,-0.39211 -1.17633,-0.58816 -0.39212,-0.19606 -0.7693,-0.42535 -1.17634,-0.58817 -0.57564,-0.23026 -1.18886,-0.35791 -1.7645,-0.58817 -0.81407,-0.32563 -1.53859,-0.8507 -2.35266,-1.17633 -0.57564,-0.23026 -1.18886,-0.35791 -1.7645,-0.58817 -0.81408,-0.32563 -1.56845,-0.78422 -2.35267,-1.17633 -0.39211,-0.19605 -0.75103,-0.48184 -1.17633,-0.58817 -0.3804,-0.0951 -0.80434,0.124 -1.17633,0 -0.26304,-0.0877 -0.34018,-0.46417 -0.58817,-0.58816 -0.17536,-0.0877 -0.39211,0 -0.58817,0 -0.39211,0 -0.79593,0.0951 -1.17633,0 -0.85061,-0.21265 -1.50206,-0.96368 -2.35267,-1.17633 -0.7608,-0.19021 -1.60868,0.24799 -2.35266,0 -0.26304,-0.0877 -0.32513,-0.50049 -0.58817,-0.58817 -0.37199,-0.124 -0.79593,0.0951 -1.17633,0 -0.4253,-0.10633 -0.75103,-0.48184 -1.17633,-0.58817 -0.76081,-0.1902 -1.59186,0.1902 -2.35267,0 -0.4253,-0.10632 -0.75103,-0.48184 -1.17633,-0.58816 -0.76081,-0.19021 -1.59186,0.1902 -2.35267,0 -0.4253,-0.10633 -0.76043,-0.44954 -1.17633,-0.58817 -0.37199,-0.124 -0.82562,0.17536 -1.17633,0 -0.248,-0.124 -0.34018,-0.46417 -0.58817,-0.58817 -0.2332,-0.1166 -1.64426,0.12025 -1.7645,0 -0.13863,-0.13863 0.13863,-0.44953 0,-0.58816 -0.27726,-0.27727 -0.82562,0.17535 -1.17633,0 -0.248,-0.124 -0.34018,-0.46417 -0.58817,-0.58817 -0.17536,-0.0877 -0.39211,0 -0.58817,0 -0.19605,-0.19606 -0.34017,-0.46417 -0.58816,-0.58817 -0.17536,-0.0877 -0.40217,0.062 -0.58817,0 -0.4159,-0.13863 -0.76044,-0.44953 -1.17633,-0.58816 -0.186,-0.062 -0.40217,0.062 -0.58817,0 -1.23515,-0.41172 -2.29385,-1.35279 -3.529,-1.7645 -0.18599,-0.062 -0.40217,0.062 -0.58816,0 -0.4159,-0.13863 -0.75103,-0.48184 -1.17634,-0.58817 -0.3804,-0.0951 -0.78422,0 -1.17633,0 -0.19605,0 -0.41281,0.0877 -0.58817,0 -0.24799,-0.124 -0.34017,-0.46417 -0.58816,-0.58817 -0.35072,-0.17535 -0.82562,0.17536 -1.17634,0 -0.24799,-0.12399 -0.34017,-0.46417 -0.58816,-0.58816 -0.17536,-0.0877 -0.41281,0.0877 -0.58817,0 -0.24799,-0.124 -0.34017,-0.46417 -0.58816,-0.58817 -0.17536,-0.0877 -0.41281,0.0877 -0.58817,0 -1.4536,-0.7268 0.20302,-0.58816 -1.17633,-0.58816 -1.37936,0 0.27726,0.13863 -1.17634,-0.58817 -0.35071,-0.17536 -0.82562,0.17536 -1.17633,0 -0.24799,-0.124 -0.32513,-0.50049 -0.58817,-0.58817 -0.55798,-0.18599 -1.17633,0 -1.7645,0 -0.98027,0 -1.96055,0 -2.94083,0 -1.17633,0 -2.35266,0 -3.529,0 -0.19605,0 -0.58816,0.19606 -0.58816,0 0,-0.19605 0.58816,0.19606 0.58816,0 0,-0.27726 -0.58816,-0.3109 -0.58816,-0.58816 0,-0.19606 0.44953,0.13863 0.58816,0 0.13864,-0.13864 -0.13863,-0.44954 0,-0.58817 0.13864,-0.13863 0.41281,0.0877 0.58817,0 0.24799,-0.124 0.34017,-0.46417 0.58817,-0.58817 0.17535,-0.0877 0.41281,0.0877 0.58816,0 1.4536,-0.7268 -0.20302,-0.58816 1.17634,-0.58816 0.19605,0 0.39211,0 0.58816,0 0.19606,0 0.41281,0.0877 0.58817,0 0.24799,-0.124 0.32513,-0.50049 0.58817,-0.58817 0.74397,-0.24799 1.60868,0.24799 2.35266,0 0.26304,-0.0877 0.32513,-0.50049 0.58817,-0.58817 0.55798,-0.18599 1.17633,0 1.7645,0 1.17633,0 2.35266,0 3.529,0 0.19605,0 0.39211,0 0.58816,0 0.19606,0 0.41281,0.0877 0.58817,0 0.24799,-0.12399 0.34017,-0.46417 0.58816,-0.58816 0.13183,-0.0659 2.2129,0 2.35267,0 2.15661,0 4.31322,0 6.46983,0 2.35267,0 4.70533,0 7.058,0 0.40909,0 2.72813,0.10635 2.94083,0 0.24799,-0.124 0.34018,-0.46417 0.58817,-0.58817 0.17536,-0.0877 0.39211,0 0.58816,0 0.59232,0 3.20374,0.10842 3.529,0 0.26304,-0.0877 0.34018,-0.46417 0.58817,-0.58817 0.34703,-0.17351 1.35994,0.13486 1.7645,0 0.4159,-0.13863 0.76044,-0.44953 1.17633,-0.58816 0.40456,-0.13486 1.41747,0.17351 1.7645,0 0.24799,-0.124 0.32513,-0.50049 0.58817,-0.58817 0.26902,-0.0897 2.09094,0.13086 2.35266,0 0.248,-0.124 0.34018,-0.46417 0.58817,-0.58817 0.37106,-0.18552 2.56978,0.18553 2.94083,0 0.248,-0.12399 0.34018,-0.46417 0.58817,-0.58816 0.47053,-0.23527 1.29397,0.23526 1.7645,0 0.24799,-0.124 0.34017,-0.46417 0.58817,-0.58817 0.17535,-0.0877 0.39211,0 0.58816,0 0.19606,0 0.39211,0 0.58817,0 0.98028,0 1.96055,0 2.94083,0 0.55396,0 2.60625,-0.11153 2.94083,0 0.26304,0.0877 0.34018,0.46417 0.58817,0.58817 0.35715,0.17857 3.17185,-0.17858 3.529,0 1.4536,0.7268 -0.20302,0.58816 1.17633,0.58816 0.39211,0 0.78422,0 1.17633,0 0.19606,0 0.41281,-0.0877 0.58817,0 0.24799,0.124 0.39211,0.39212 0.58817,0.58817 0.19605,0.19606 0.43436,0.35747 0.58816,0.58817 0.24318,0.36476 0.34499,0.81157 0.58817,1.17633 0.1538,0.2307 0.46417,0.34017 0.58817,0.58817 0.59309,1.18618 0.40544,1.91298 1.17633,2.94083 2.7282,3.6376 0.12215,0.35516 1.7645,1.17633 0.62439,0.3122 0.55194,0.86414 1.17633,1.17634 0.17536,0.0877 0.41281,-0.0877 0.58817,0 0.24799,0.12399 0.34017,0.46417 0.58816,0.58816 0.17536,0.0877 0.39212,0 0.58817,0 0.39211,0 0.80434,-0.12399 1.17633,0 0.26304,0.0877 0.34018,0.46417 0.58817,0.58817 0.35071,0.17536 0.82562,-0.17536 1.17633,0 0.248,0.12399 0.34018,0.46417 0.58817,0.58816 0.36968,0.18484 1.98299,-0.18483 2.35267,0 0.24799,0.124 0.34017,0.46417 0.58816,0.58817 0.47054,0.23527 1.29397,-0.23527 1.7645,0 0.24799,0.124 0.34018,0.46417 0.58817,0.58817 0.17536,0.0877 0.41281,-0.0877 0.58816,0 0.248,0.12399 0.34018,0.46417 0.58817,0.58816 0.17536,0.0877 0.40217,-0.062 0.58817,0 0.41589,0.13864 0.76043,0.44954 1.17633,0.58817 0.18599,0.062 0.40217,-0.062 0.58817,0 0.41589,0.13863 0.76043,0.44953 1.17633,0.58817 0.37199,0.12399 0.82562,-0.17536 1.17633,0 0.248,0.12399 0.34018,0.46417 0.58817,0.58816 0.17536,0.0877 0.39211,0 0.58817,0 0.39211,0 0.80434,-0.12399 1.17633,0 0.26303,0.0877 0.34017,0.46417 0.58816,0.58817 0.35072,0.17536 0.89907,-0.27726 1.17634,0 0.13863,0.13863 -0.13863,0.44953 0,0.58817 0.29408,0.29408 1.47041,-0.29409 1.7645,0 0.13863,0.13863 -0.13864,0.44953 0,0.58816 0.13863,0.13863 0.39211,0 0.58816,0 0.19606,0 0.39211,0 0.58817,0 0.19606,0 0.39211,0 0.58817,0 0.19605,0 0.41281,-0.0877 0.58816,0 0.248,0.124 0.34018,0.46417 0.58817,0.58817 0.31907,0.15954 2.19173,-0.16094 2.35267,0 0.13863,0.13863 0,0.39211 0,0.58817 0,0.19605 0.0877,0.4128 0,0.58816 -0.124,0.24799 -0.43437,0.35747 -0.58817,0.58817 -3.13689,4.70533 2.15661,-2.15661 -1.7645,1.7645 -0.30999,0.30999 -0.27818,0.86634 -0.58817,1.17633 -0.30999,0.30999 -0.81156,0.34499 -1.17633,0.58817 -0.2307,0.1538 -0.35747,0.43437 -0.58817,0.58816 -1.03451,0.68968 -1.74521,0.69809 -2.94083,1.17634 -4.19555,1.67822 2.60696,-0.5214 -2.94083,0.58816 -0.42988,0.086 -0.75103,0.48184 -1.17633,0.58817 -0.76081,0.1902 -1.59186,-0.1902 -2.35267,0 -0.4253,0.10633 -0.76044,0.44953 -1.17633,0.58817 -0.70244,0.23414 -0.4739,-0.23415 -1.17634,0 -0.41589,0.13863 -0.76043,0.44953 -1.17633,0.58816 -0.37199,0.124 -0.80434,-0.12399 -1.17633,0 -0.4159,0.13863 -0.76044,0.44954 -1.17633,0.58817 -0.33185,0.11061 -1.37802,0 -1.7645,0 -0.98028,0 -1.96056,0 -2.94084,0 -3.529,0 -7.05799,0 -10.58699,0 -0.98028,0 -1.96056,0 -2.94083,0 -0.19606,0 -0.44954,-0.13863 -0.58817,0 -0.20646,0.20646 0.20313,2.53457 0,2.94083 -0.124,0.24799 -0.46417,0.34018 -0.58817,0.58817 -0.19489,0.38979 0.16432,1.85971 0,2.35266 -0.13863,0.4159 -0.44953,0.76044 -0.58816,1.17634 -0.18863,0.56589 0.15386,1.73722 0,2.35266 -0.15037,0.60147 -0.4378,1.16303 -0.58817,1.7645 -0.0476,0.1902 0,0.39211 0,0.58817 0,0.58816 0,1.17633 0,1.7645 0,0.39211 0.0951,0.79593 0,1.17633 -0.10633,0.4253 -0.44954,0.76044 -0.58817,1.17633 -0.29408,0.88225 0.58817,0.58817 0,1.7645 -0.0877,0.17536 -0.44953,-0.13863 -0.58816,0 -0.13864,0.13864 0,0.39211 0,0.58817 0,0.19606 0,0.39211 0,0.58817 0,1.7645 0,3.52899 0,5.29349 0,0.19606 0,0.39212 0,0.58817 0,0.19606 -0.13864,0.44954 0,0.58817 0.13863,0.13863 0.44953,-0.13863 0.58816,0 0.13863,0.13863 -0.13863,0.44953 0,0.58816 0.13863,0.13864 0.44954,-0.13863 0.58817,0 0.13863,0.13864 -0.13863,0.44954 0,0.58817 0.0267,0.0267 2.66351,0 2.94083,0 1.17633,0 2.35267,0 3.529,0 0.39211,0 0.78422,0 1.17633,0 0.39211,0 0.80435,0.124 1.17634,0 0.26303,-0.0877 0.32513,-0.50049 0.58816,-0.58817 0.74398,-0.24799 1.60869,0.248 2.35267,0 0.26303,-0.0877 0.32513,-0.50048 0.58816,-0.58816 0.52935,-0.17645 1.23515,0.17645 1.7645,0 0.4159,-0.13863 0.76044,-0.44954 1.17634,-0.58817 0.18599,-0.062 0.40217,0.062 0.58816,0 0.4159,-0.13863 0.76044,-0.44953 1.17634,-0.58817 0.37199,-0.12399 0.80434,0.124 1.17633,0 0.4159,-0.13863 0.76044,-0.44953 1.17633,-0.58816 0.37199,-0.124 0.80435,0.12399 1.17634,0 0.41589,-0.13863 0.76043,-0.44954 1.17633,-0.58817 0.62499,-0.20833 1.72767,0.20833 2.35266,0 0.4159,-0.13863 0.75103,-0.48184 1.17634,-0.58817 0.3804,-0.0951 0.80434,0.124 1.17633,0 0.26304,-0.0877 0.32513,-0.50048 0.58817,-0.58816 0.37199,-0.124 0.80434,0.12399 1.17633,0 0.26304,-0.0877 0.32513,-0.50049 0.58817,-0.58817 0.37199,-0.12399 0.80434,0.124 1.17633,0 0.26303,-0.0877 0.32513,-0.50049 0.58817,-0.58816 0.37198,-0.124 0.80434,0.12399 1.17633,0 0.26303,-0.0877 0.34017,-0.46417 0.58816,-0.58817 0.17536,-0.0877 0.39212,0 0.58817,0 0.39211,-0.19606 0.81157,-0.34499 1.17633,-0.58817 0.2307,-0.1538 0.34018,-0.46417 0.58817,-0.58816 0.17536,-0.0877 0.40217,0.062 0.58817,0 0.41589,-0.13864 0.76043,-0.44954 1.17633,-0.58817 0.18599,-0.062 0.41281,0.0877 0.58817,0 0.62439,-0.3122 0.55194,-0.86414 1.17633,-1.17633 0.17536,-0.0877 0.41281,0.0877 0.58817,0 2.4478,-1.22391 -0.62878,0.0406 0.58816,-1.17634 0.13863,-0.13863 0.41281,0.0877 0.58817,0 2.44781,-1.2239 -0.62877,0.0406 0.58817,-1.17633 0.13863,-0.13863 0.44953,0.13863 0.58816,0 0.13863,-0.13863 -0.0877,-0.41281 0,-0.58817 0.24799,-0.49598 0.92834,-0.68034 1.17633,-1.17633 0.0877,-0.17536 -0.0877,-0.41281 0,-0.58817 0.124,-0.24799 0.46417,-0.34017 0.58817,-0.58816 0.17536,-0.35072 -0.17536,-0.82562 0,-1.17633 0.124,-0.248 0.46417,-0.34018 0.58817,-0.58817 0.0877,-0.17536 0,-0.39211 0,-0.58817 0,-0.19605 0,-0.39211 0,-0.58816 0,-1.17634 0,-2.35267 0,-3.529 0,-1.17634 0,-2.35267 0,-3.529 0,-0.19606 0,-0.39211 0,-0.58817 0,-0.19605 0.0877,-0.41281 0,-0.58816 -0.124,-0.248 -0.46417,-0.34018 -0.58817,-0.58817 -0.1166,-0.2332 0.12024,-1.64426 0,-1.7645 -0.13863,-0.13863 -0.44953,0.13863 -0.58817,0 -0.14153,-0.14153 0.14154,-2.21113 0,-2.35267 -0.78422,-0.78422 -0.58816,0.98028 -0.58816,-0.58816 0,-0.78422 0,-1.56845 0,-2.35267 0,-0.19605 0,-0.39211 0,-0.58816 0,-0.19606 -0.19606,-0.58817 0,-0.58817 0.19605,0 0,0.39211 0,0.58817 C 248.80417,161.98318 249.40208,160.99159 250,160"
           id="path4176"
           inkscape:connector-curvature="0" />
        <path
           style="fill:none;fill-rule:evenodd;stroke:#000000;stroke-width:1px;stroke-linecap:butt;stroke-linejoin:miter;stroke-opacity:1"
           d="m 145,90 c 1.71984,1.632624 2.95225,3.200946 3.80612,5.335622 0.23025,0.575638 0.35791,1.18886 0.58816,1.764499 0.16282,0.407038 0.48184,0.751029 0.58817,1.176333 0.0951,0.380404 -0.0951,0.795929 0,1.176333 0.10632,0.425304 0.48184,0.751033 0.58817,1.176333 0.0951,0.3804 -0.0951,0.79593 0,1.17633 0.10632,0.42531 0.50219,0.74646 0.58816,1.17634 0.19225,0.96124 0,1.96055 0,2.94083 0,0.39211 -0.0951,0.79593 0,1.17633 0.10633,0.42531 0.48184,0.75103 0.58817,1.17633 0.0951,0.38041 0,0.78423 0,1.17634 0,1.17633 0,2.35266 0,3.529 0,0.19605 -0.062,0.40217 0,0.58816 0.13863,0.4159 0.48184,0.75103 0.58816,1.17634 0.11567,0.46266 0,2.91735 0,3.52899 0,0.19606 -0.062,0.40218 0,0.58817 0.13864,0.4159 0.44954,0.76044 0.58817,1.17633 0.12796,0.38388 0,2.82578 0,3.529 0,0.19606 -0.13863,0.44954 0,0.58817 0.13863,0.13863 0.44954,-0.13863 0.58817,0 0.20646,0.20646 -0.20314,2.53456 0,2.94083 0.12399,0.24799 0.46417,0.34017 0.58816,0.58817 0.18484,0.36967 -0.18483,1.98299 0,2.35266 0.124,0.248 0.46417,0.34018 0.58817,0.58817 0.18553,0.37106 -0.18553,2.56978 0,2.94083 0.124,0.24799 0.46417,0.34018 0.58817,0.58817 0.076,0.15207 0,3.1121 0,3.529 0,1.96055 0,3.92111 0,5.88166 0,0.78422 0,1.56845 0,2.35267 0,0.19605 0,0.39211 0,0.58816 0,0.19606 0.19605,0.58817 0,0.58817 -0.19606,0 0,-0.78422 0,-0.58817 0,0.39212 -0.17536,0.82562 0,1.17634 0.0877,0.17535 0.41281,-0.0877 0.58816,0 1.95071,1.9507 -0.55453,-0.27727 1.17634,0.58816 0.24799,0.124 0.34017,0.46417 0.58816,0.58817 0.17536,0.0877 0.44954,-0.13863 0.58817,0 0.13863,0.13863 -0.13863,0.44953 0,0.58817 0.13863,0.13863 0.41281,-0.0877 0.58817,0 0.24799,0.12399 0.34017,0.46417 0.58816,0.58816 0.17536,0.0877 0.39211,0 0.58817,0 0.19605,0.19606 0.34017,0.46417 0.58816,0.58817 0.47054,0.23527 1.29397,-0.23527 1.7645,0 0.248,0.124 0.34018,0.46417 0.58817,0.58817 0.2332,0.1166 1.64426,-0.12025 1.7645,0 0.13863,0.13863 -0.13863,0.44953 0,0.58816 0.29408,0.29409 1.47042,-0.29408 1.7645,0 0.13863,0.13863 -0.13863,0.44954 0,0.58817 0.27726,0.27726 0.89907,-0.27727 1.17633,0 0.13863,0.13863 -0.13863,0.44953 0,0.58817 0.13863,0.13863 0.41281,-0.0877 0.58817,0 0.24799,0.12399 0.34017,0.46417 0.58817,0.58816 0.35071,0.17536 0.89906,-0.27726 1.17633,0 0.13863,0.13863 -0.13863,0.44954 0,0.58817 0.13863,0.13863 0.41281,-0.0877 0.58816,0 0.248,0.12399 0.34018,0.46417 0.58817,0.58816 0.17536,0.0877 0.41281,-0.0877 0.58817,0 0.24799,0.124 0.34017,0.46417 0.58816,0.58817 0.17536,0.0877 0.41281,-0.0877 0.58817,0 0.24799,0.124 0.34017,0.46417 0.58817,0.58817 0.17535,0.0877 0.41281,-0.0877 0.58816,0 0.248,0.12399 0.34018,0.46417 0.58817,0.58816 0.2332,0.11661 1.64426,-0.12024 1.7645,0 0.13863,0.13864 -0.13863,0.44954 0,0.58817 0.27726,0.27726 0.82562,-0.17536 1.17633,0 0.248,0.124 0.34018,0.46417 0.58817,0.58817 0.40627,0.20313 2.73437,-0.20646 2.94083,0 0.13863,0.13863 -0.13863,0.44953 0,0.58816 0.0588,0.0588 1.70568,0.0588 1.7645,0 0.13863,-0.13863 -0.0877,-0.41281 0,-0.58816 0.124,-0.248 0.46417,-0.34018 0.58817,-0.58817 0.0877,-0.17536 -0.13864,-0.44953 0,-0.58817 0.13863,-0.13863 0.39211,0 0.58816,0 0,-0.19605 -0.13863,-0.44953 0,-0.58816 0.13864,-0.13863 0.44954,0.13863 0.58817,0 0.27726,-0.27727 -0.27726,-0.89907 0,-1.17634 0.13863,-0.13863 0.44953,0.13864 0.58817,0 0.13863,-0.13863 -0.0877,-0.4128 0,-0.58816 0.12399,-0.24799 0.46417,-0.34018 0.58816,-0.58817 0.0877,-0.17536 -0.13863,-0.44953 0,-0.58816 0.13864,-0.13864 0.44954,0.13863 0.58817,0 0.27726,-0.27727 -0.17536,-0.82562 0,-1.17634 0.124,-0.24799 0.46417,-0.34017 0.58817,-0.58816 0.0877,-0.17536 -0.0877,-0.41281 0,-0.58817 0.12399,-0.24799 0.46417,-0.34017 0.58816,-0.58817 0.17536,-0.35071 -0.17536,-0.82562 0,-1.17633 0.124,-0.24799 0.46417,-0.34017 0.58817,-0.58817 0.0877,-0.17535 -0.0877,-0.41281 0,-0.58816 0.124,-0.248 0.46417,-0.34018 0.58817,-0.58817 0.17535,-0.35071 -0.17536,-0.82562 0,-1.17633 0.12399,-0.248 0.46417,-0.34018 0.58816,-0.58817 0.23527,-0.47053 -0.23526,-1.29397 0,-1.7645 0.124,-0.24799 0.46417,-0.34017 0.58817,-0.58816 0.18484,-0.36968 -0.18484,-1.98299 0,-2.35267 0.12399,-0.24799 0.46417,-0.34017 0.58816,-0.58817 0.18553,-0.37105 -0.18552,-2.56977 0,-2.94083 0.124,-0.24799 0.46417,-0.34017 0.58817,-0.58817 0.18553,-0.37105 -0.18553,-2.56977 0,-2.94083 0.124,-0.24799 0.46417,-0.34017 0.58817,-0.58816 0.17535,-0.35072 -0.17536,-0.82562 0,-1.17634 0.12399,-0.24799 0.46417,-0.34017 0.58816,-0.58816 0.23527,-0.47054 -0.23526,-1.29397 0,-1.7645 0.124,-0.248 0.46417,-0.34018 0.58817,-0.58817 0.18484,-0.36968 -0.18484,-1.98299 0,-2.35267 0.124,-0.24799 0.46417,-0.34017 0.58817,-0.58816 0.17535,-0.35072 -0.17536,-0.82562 0,-1.17634 0.12399,-0.24799 0.46417,-0.34017 0.58816,-0.58816 0.18484,-0.36968 -0.18483,-1.98299 0,-2.35267 0.124,-0.24799 0.46417,-0.34017 0.58817,-0.58816 0.18553,-0.37106 -0.18553,-2.56978 0,-2.94084 0.124,-0.24799 0.46417,-0.34017 0.58817,-0.58816 0.0877,-0.17536 0,-0.39211 0,-0.58817 0,-0.98028 0,-1.96055 0,-2.94083 0,-0.19606 0,-0.39211 0,-0.58817 0,-0.19605 -0.0877,-0.41281 0,-0.58816 0.12399,-0.248 0.46417,-0.34018 0.58816,-0.58817 0.0877,-0.17536 0,-0.39211 0,-0.58817 0,-0.19605 0,-0.39211 0,-0.58816 0,-1.17634 0,-2.35267 0,-3.529 0,-1.7645 0,-3.529 0,-5.2935 0,-0.58817 -0.26303,-1.23843 0,-1.7645 0.0877,-0.17536 0.44954,0.13863 0.58817,0 0.13863,-0.13863 0,-0.39211 0,-0.58817 0,-0.277316 0.0267,-2.914172 0,-2.940829 -0.13863,-0.138632 -0.39797,0.04755 -0.58817,0 -4.83594,-1.611982 1.23997,0.206661 -3.529,-0.588166 -4.83594,-1.611983 1.23997,0.20666 -3.52899,-0.588167 -0.61155,-0.101924 -1.15075,-0.500488 -1.7645,-0.588166 -1.3586,-0.194085 -2.76345,0.225619 -4.11717,0 -0.61155,-0.101925 -1.15656,-0.466578 -1.7645,-0.588167 -0.7497,-0.14994 -2.93289,0.198702 -3.529,0 -0.26303,-0.08768 -0.34017,-0.46417 -0.58816,-0.588166 -0.17536,-0.08768 -0.39212,0 -0.58817,0 -0.19606,0 -0.39211,0 -0.58817,0 -0.98027,0 -1.96055,0 -2.94083,0 -0.19605,0 -0.39211,0 -0.58817,0 -0.19605,0 -0.4128,0.08768 -0.58816,0 -0.248,-0.123997 -0.34018,-0.46417 -0.58817,-0.588167 -0.36967,-0.184838 -1.98299,0.184838 -2.35266,0 -0.248,-0.123996 -0.34018,-0.46417 -0.58817,-0.588166 -0.35072,-0.175358 -0.80434,0.123996 -1.17633,0 -0.4159,-0.138632 -0.76044,-0.449534 -1.17634,-0.588167 -0.18599,-0.062 -0.40217,0.062 -0.58816,0 -0.4159,-0.138632 -0.76044,-0.449534 -1.17634,-0.588166 -0.37199,-0.123996 -0.82561,0.175357 -1.17633,0 -0.24799,-0.123996 -0.34017,-0.46417 -0.58817,-0.588167 -0.35071,-0.175357 -0.82561,0.175358 -1.17633,0 -0.24799,-0.123996 -0.34017,-0.46417 -0.58817,-0.588166 -0.26172,-0.13086 -2.08364,0.08967 -2.35266,0 -0.26304,-0.08768 -0.34017,-0.46417 -0.58817,-0.588167 -0.17535,-0.08768 -0.39211,0 -0.58816,0 -0.39211,0 -0.80435,0.123997 -1.17634,0 -0.26303,-0.08768 -0.34017,-0.46417 -0.58816,-0.588166 -0.35072,-0.175357 -0.82562,0.175357 -1.17634,0 -0.24799,-0.123996 -0.34017,-0.46417 -0.58816,-0.588166 -0.17536,-0.08768 -0.39211,0 -0.58817,0 -0.19605,0 -0.39211,0 -0.58817,0 -0.98027,0 -1.96055,0 -2.94083,0 -0.19605,0 -0.39211,0 -0.58816,0 -0.19606,0 -0.44954,0.138632 -0.58817,0 -0.13863,-0.138633 0.13863,-0.449535 0,-0.588167 -0.13863,-0.138632 -0.39211,0 -0.58817,0 -0.19605,0 -0.42415,-0.107418 -0.58816,0 C 146.29678,88.765452 145.68054,89.425875 145,90"
           id="path4178"
           inkscape:connector-curvature="0" />
        <path
           style="fill:none;fill-rule:evenodd;stroke:#000000;stroke-width:1px;stroke-linecap:butt;stroke-linejoin:miter;stroke-opacity:1"
           d="m 195,100 c 1.46281,-0.770571 2.92562,-1.541142 4.38843,-2.311712 0.19606,0 0.41281,0.08768 0.58817,0 0.24799,-0.123997 0.34017,-0.464171 0.58816,-0.588167 0.17536,-0.08768 0.39212,0 0.58817,0 0.39211,0 0.80434,0.123996 1.17633,0 0.26304,-0.08768 0.32513,-0.500488 0.58817,-0.588166 0.88225,-0.294084 1.02929,0.147041 1.7645,0 0.78422,-0.196056 1.56844,-0.392111 2.35267,-0.588167 0.39211,0 0.78955,0.06446 1.17633,0 0.79736,-0.132893 1.56,-0.429634 2.35266,-0.588166 0.19225,-0.03845 0.39592,0.03845 0.58817,0 0.79266,-0.158532 1.55531,-0.455274 2.35267,-0.588167 0.38677,-0.06446 0.79183,0.0769 1.17633,0 0.60794,-0.121588 1.15656,-0.466578 1.7645,-0.588166 1.63379,-0.326759 0.98028,0.490138 2.94083,0 0.26899,-0.06725 0.32513,-0.500488 0.58817,-0.588167 0.30301,-0.101002 3.49499,0 4.11716,0 0.39211,0 0.80435,0.123997 1.17634,0 0.41589,-0.138632 0.76043,-0.449534 1.17633,-0.588166 0.36916,-0.123055 1.87917,0 2.35266,0 0.4091,0 2.72814,0.10635 2.94084,0 0.24799,-0.123997 0.34017,-0.46417 0.58816,-0.588167 0.179,-0.0895 1.49962,0 1.7645,0 0.19606,0 0.44954,0.138633 0.58817,0 0.13863,-0.138632 -0.13863,-0.449534 0,-0.588166 0.13863,-0.138632 0.50049,-0.175357 0.58817,0 0.17535,0.350715 0,0.784222 0,1.176333 0,2.297643 0.17535,0.06209 -0.58817,2.352666 -0.062,0.185994 0.062,0.402172 0,0.588166 -0.13863,0.415897 -0.48184,0.751029 -0.58817,1.176333 -0.80736,3.229449 1.07802,-0.979701 -0.58816,2.352666 -1.66619,3.332363 0.21919,-0.876787 -0.58817,2.352663 -0.10633,0.42531 -0.48184,0.75103 -0.58817,1.17634 -0.0951,0.3804 0.0951,0.79593 0,1.17633 -0.10632,0.4253 -0.48184,0.75103 -0.58816,1.17633 -0.14265,0.57061 0.18599,1.20652 0,1.7645 -0.13864,0.4159 -0.44954,0.76044 -0.58817,1.17633 -0.062,0.186 0.062,0.40218 0,0.58817 -0.13863,0.4159 -0.48184,0.75103 -0.58817,1.17633 -0.0951,0.38041 0.124,0.80435 0,1.17634 -0.0877,0.26303 -0.50048,0.32513 -0.58816,0.58816 -0.124,0.37199 0.12399,0.80435 0,1.17634 -0.0877,0.26303 -0.50049,0.32513 -0.58817,0.58816 -0.18599,0.55799 0.186,1.20652 0,1.7645 -0.13863,0.4159 -0.44953,0.76044 -0.58817,1.17633 -0.062,0.186 0.062,0.40218 0,0.58817 -0.13863,0.4159 -0.48184,0.75103 -0.58816,1.17633 -0.0951,0.38041 0.0951,0.79593 0,1.17634 -0.21265,0.8506 -0.96368,1.50205 -1.17633,2.35266 -0.0951,0.38041 0.0951,0.79593 0,1.17634 -0.10633,0.4253 -0.48185,0.75102 -0.58817,1.17633 -0.0951,0.3804 0.0951,0.79593 0,1.17633 0.3545,1.06455 -0.9528,1.09389 -1.17633,1.7645 -0.186,0.55798 0.18599,1.20652 0,1.7645 -0.13864,0.4159 -0.44954,0.76044 -0.58817,1.17633 -0.124,0.37199 0.17536,0.82562 0,1.17634 -0.124,0.24799 -0.46417,0.34017 -0.58817,0.58816 -0.1166,0.23321 0.12025,1.64426 0,1.7645 -0.13863,0.13863 -0.44953,-0.13863 -0.58816,0 -0.29409,0.29409 0.29408,1.47042 0,1.7645 -0.13864,0.13863 -0.44954,-0.13863 -0.58817,0 -0.29408,0.29408 0.29408,1.47042 0,1.7645 -0.13863,0.13863 -0.44953,-0.13863 -0.58817,0 -0.27726,0.27727 0.17536,0.82562 0,1.17633 -0.12399,0.248 -0.46417,0.34018 -0.58816,0.58817 -0.0877,0.17536 0.062,0.40217 0,0.58817 -0.13863,0.41589 -0.44954,0.76043 -0.58817,1.17633 -0.062,0.18599 0.0877,0.41281 0,0.58817 -0.124,0.24799 -0.46417,0.34017 -0.58817,0.58816 -0.17535,0.35072 0.17536,0.82562 0,1.17634 -0.12399,0.24799 -0.46417,0.34017 -0.58816,0.58816 -0.17536,0.35072 0.17536,0.82562 0,1.17633 -0.124,0.248 -0.46417,0.34018 -0.58817,0.58817 -0.17536,0.35072 0.17536,0.82562 0,1.17633 -0.12399,0.248 -0.46417,0.34018 -0.58817,0.58817 -0.0877,0.17536 0.0877,0.41281 0,0.58817 -0.12399,0.24799 -0.46417,0.34017 -0.58816,0.58816 -0.17536,0.35072 0.27726,0.89907 0,1.17634 -0.13863,0.13863 -0.39211,0 -0.58817,0 -0.19605,0 -0.39211,0 -0.58816,0 -0.5689,0 -3.35456,-0.0872 -3.529,0 -1.4536,0.7268 0.20302,0.58816 -1.17634,0.58816 -2.94083,0 -5.88166,0 -8.82249,0 -0.19606,0 -0.39211,0 -0.58817,0 -0.19606,0 -0.44953,-0.13863 -0.58817,0 -0.13863,0.13864 0.13864,0.44954 0,0.58817 -0.13863,0.13863 -0.39211,0 -0.58816,0 -0.19606,0 -0.39211,0 -0.58817,0 -1.56844,0 -3.13689,0 -4.70533,0 -0.26489,0 -1.5855,-0.0895 -1.7645,0 -0.24799,0.124 -0.34017,0.46417 -0.58817,0.58817 -0.38208,0.19104 -2.56775,-0.18655 -2.94083,0 -0.24799,0.12399 -0.34017,0.46417 -0.58817,0.58816 -0.47053,0.23527 -1.29396,-0.23526 -1.76449,0 -0.248,0.124 -0.34018,0.46417 -0.58817,0.58817 -0.35072,0.17536 -0.82562,-0.17536 -1.17633,0 -0.248,0.124 -0.34018,0.46417 -0.58817,0.58817 -0.35072,0.17535 -0.82562,-0.17536 -1.17633,0 -0.248,0.12399 -0.34018,0.46417 -0.58817,0.58816 -0.17536,0.0877 -0.39211,0 -0.58817,0 -0.19605,0.19606 -0.34017,0.46417 -0.58816,0.58817 -0.17536,0.0877 -0.41281,-0.0877 -0.58817,0 -0.24799,0.12399 -0.34017,0.46417 -0.58817,0.58816 -0.35071,0.17536 -0.89906,-0.27726 -1.17633,0 -0.13863,0.13864 0.13863,0.44954 0,0.58817 -0.13863,0.13863 -0.39211,0 -0.58817,0 0,0.19606 0.13864,0.44954 0,0.58817 -0.13863,0.13863 -0.44953,-0.13863 -0.58816,0 -0.13863,0.13863 0.13863,0.44953 0,0.58816 -0.13863,0.13864 -0.39211,0 -0.58817,0 0,0.19606 0.13863,0.44954 0,0.58817 -0.13863,0.13863 -0.44953,-0.13863 -0.58816,0 -0.13864,0.13863 0.13863,0.44953 0,0.58817 -0.13864,0.13863 -0.44954,-0.13864 -0.58817,0 -0.5195,0.51949 0.88382,1.44476 1.78556,2.31873"
           id="path4180"
           inkscape:connector-curvature="0" />
        <path
           style="fill:none;fill-rule:evenodd;stroke:#000000;stroke-width:1px;stroke-linecap:butt;stroke-linejoin:miter;stroke-opacity:1"
           d="m 235,90 c -0.89142,0.210097 -1.75848,0.618466 -2.67425,0.63029 -0.27724,0.0036 -0.32513,-0.500488 -0.58816,-0.588167 -4.26908,-1.423024 0.84438,0.869627 -1.7645,0 -0.4159,-0.138632 -0.75103,-0.48184 -1.17634,-0.588166 -0.3804,-0.0951 -0.80434,0.123996 -1.17633,0 -0.26303,-0.08768 -0.39211,-0.392111 -0.58816,-0.588166 -0.58817,-0.196056 -1.16303,-0.437799 -1.7645,-0.588167 -0.19021,-0.04755 -0.40218,0.062 -0.58817,0 -0.83179,-0.277264 -1.52087,-0.899068 -2.35267,-1.176333 -0.18599,-0.062 -0.40217,0.062 -0.58816,0 -0.4159,-0.138632 -0.75103,-0.48184 -1.17634,-0.588166 -0.3804,-0.0951 -0.79593,0.0951 -1.17633,0 -0.4253,-0.106326 -0.75103,-0.481841 -1.17633,-0.588167 -0.38041,-0.0951 -0.79593,0.0951 -1.17633,0 -1.06455,0.354505 -1.09389,-0.952795 -1.7645,-1.176333 -0.26902,-0.08967 -2.09095,0.130861 -2.35267,0 -0.24799,-0.123996 -0.34017,-0.46417 -0.58817,-0.588166 -0.2332,-0.116602 -1.64425,0.120243 -1.7645,0 -0.13863,-0.138632 0.13864,-0.449534 0,-0.588167 -0.13863,-0.138632 -0.4128,0.08768 -0.58816,0 -0.24799,-0.123996 -0.34018,-0.46417 -0.58817,-0.588166 -0.17536,-0.08768 -0.41281,0.08768 -0.58816,0 -0.248,-0.123996 -0.34018,-0.46417 -0.58817,-0.588167 -0.35072,-0.175357 -0.89907,0.277265 -1.17633,0 -0.13864,-0.138632 0.13863,-0.449534 0,-0.588166 -0.27727,-0.277264 -0.82562,0.175357 -1.17634,0 -0.24799,-0.123996 -0.34017,-0.46417 -0.58816,-0.588166 -0.35072,-0.175358 -0.82562,0.175357 -1.17634,0 -0.24799,-0.123997 -0.34017,-0.464171 -0.58816,-0.588167 -0.47054,-0.235267 -1.29397,0.235267 -1.7645,0 -0.248,-0.123996 -0.34018,-0.46417 -0.58817,-0.588166 -0.0845,-0.04227 -2.91411,-0.0089 -2.94083,0 -0.26304,0.08768 -0.34018,0.46417 -0.58817,0.588166 -0.35071,0.175357 -0.82562,-0.175357 -1.17633,0 -0.24799,0.123996 -0.34017,0.46417 -0.58817,0.588167 -0.35071,0.175357 -0.82562,-0.175358 -1.17633,0 -0.24799,0.123996 -0.34017,0.46417 -0.58817,0.588166 -0.47053,0.235267 -1.29396,-0.235267 -1.7645,0 -0.24799,0.123996 -0.34017,0.46417 -0.58816,0.588166 -0.34703,0.173515 -1.35994,-0.134853 -1.7645,0 -0.4159,0.138633 -0.76044,0.449535 -1.17633,0.588167 -0.37199,0.123996 -0.82562,-0.175357 -1.17634,0 -0.24799,0.123996 -0.32513,0.500488 -0.58816,0.588166 -0.52935,0.17645 -1.23515,-0.17645 -1.7645,0 -0.4159,0.138633 -0.76044,0.449535 -1.17634,0.588167 -0.18599,0.062 -0.39211,0 -0.58816,0 -0.39211,0.196055 -0.76044,0.449534 -1.17634,0.588166 -0.37199,0.123997 -0.82561,-0.175357 -1.17633,0 -0.24799,0.123997 -0.34017,0.46417 -0.58817,0.588167 -0.35071,0.175357 -0.82561,-0.175358 -1.17633,0 -0.24799,0.123996 -0.34017,0.46417 -0.58816,0.588166 -0.35072,0.175358 -0.82562,-0.175357 -1.17634,0 -0.24799,0.123997 -0.34017,0.46417 -0.58816,0.588167 -0.17536,0.08768 -0.39212,0 -0.58817,0 -0.19606,0 -0.39211,0 -0.58817,0 -0.98027,0 -1.96055,0 -2.94083,0 -0.40909,0 -2.72813,-0.106351 -2.94083,0 -0.24799,0.123996 -0.34018,0.46417 -0.58817,0.588166 -0.15207,0.07604 -3.1121,0 -3.529,0 -2.74477,0 -5.48955,0 -8.23433,0 -2.15661,0 -4.31322,0 -6.46983,0 -0.78422,0 -1.56844,0 -2.35266,0 -0.19606,0 -0.68502,0.170463 -0.58817,0 C 148.67164,86.302777 149.40598,85.70043 150,85"
           id="path4182"
           inkscape:connector-curvature="0" />
        <path
           style="fill:none;fill-rule:evenodd;stroke:#000000;stroke-width:1px;stroke-linecap:butt;stroke-linejoin:miter;stroke-opacity:1"
           d="m 200,80 c -0.20386,1.190764 -0.45726,2.3741 -0.61157,3.572292 -0.11352,0.881446 0,2.051785 0,2.940833 0,1.960555 0,3.921109 0,5.881664 0,6.273776 0,12.547551 0,18.821331 0,1.56844 0,3.13688 0,4.70533 0,0.39211 0,0.78422 0,1.17633 0,0.39211 0.0951,0.79593 0,1.17633 -0.10632,0.42531 -0.48184,0.75103 -0.58816,1.17634 -0.2003,0.80116 0.23718,2.81744 0,3.529 -0.0877,0.26303 -0.50049,0.32513 -0.58817,0.58816 -0.24799,0.74398 0.1902,1.59186 0,2.35267 -0.10633,0.4253 -0.44954,0.76043 -0.58817,1.17633 -0.20833,0.62499 0.20833,1.72767 0,2.35267 -0.13863,0.41589 -0.44953,0.76043 -0.58816,1.17633 -0.23415,0.70244 0.23414,0.47389 0,1.17633 -0.13864,0.4159 -0.44954,0.76044 -0.58817,1.17634 -0.124,0.37198 0.17536,0.82561 0,1.17633 -0.124,0.24799 -0.46417,0.34017 -0.58817,0.58816 -0.0877,0.17536 0.0877,0.41281 0,0.58817 -0.12399,0.24799 -0.46417,0.34017 -0.58816,0.58817 -0.15954,0.31907 0.16093,2.19173 0,2.35266 -0.13864,0.13864 -0.44954,-0.13863 -0.58817,0 -0.13863,0.13864 0,0.39211 0,0.58817 0,0.19606 0,0.39211 0,0.58817 0,0.14264 0.0189,1.74558 0,1.7645 -0.13863,0.13863 -0.44953,-0.13864 -0.58817,0 -0.13863,0.13863 0,0.39211 0,0.58816 0,0.19606 0,0.39211 0,0.58817 0,0.19605 0,0.78422 0,0.58817 0,-2.2846 -0.10674,-1.55364 0.90507,2.02289"
           id="path4184"
           inkscape:connector-curvature="0" />
        <path
           style="fill:none;fill-rule:evenodd;stroke:#000000;stroke-width:1px;stroke-linecap:butt;stroke-linejoin:miter;stroke-opacity:1"
           d="m 160,165 c -0.71521,1.07901 -0.24073,0.9156 -1.19505,0.9156 -0.24742,0 -3.35404,-0.0875 -3.529,0 -0.248,0.12399 -0.34018,0.46417 -0.58817,0.58816 -0.17536,0.0877 -0.44953,-0.13863 -0.58817,0 -0.13863,0.13864 0.13864,0.44954 0,0.58817 -1.56844,0 0.19606,-0.19606 -0.58816,0.58817 -1.21694,1.21693 0.0476,-1.85964 -1.17634,0.58816 -0.0877,0.17536 0.0877,0.41281 0,0.58817 -0.12399,0.24799 -0.46417,0.34017 -0.58816,0.58817 -0.0877,0.17535 0.0877,0.41281 0,0.58816 -0.124,0.248 -0.46417,0.34018 -0.58817,0.58817 -0.1166,0.2332 0.12024,1.64426 0,1.7645 -0.13863,0.13863 -0.44953,-0.13863 -0.58816,0 -0.13864,0.13863 0,0.39211 0,0.58817 0,1.37238 0,2.74477 0,4.11716 0,1.17633 0,2.35267 0,3.529 0,0.26488 -0.0895,1.5855 0,1.7645 0.12399,0.24799 0.46417,0.34017 0.58816,0.58816 0.0877,0.17536 -0.0877,0.41281 0,0.58817 0.15707,0.31413 1.45485,1.45485 1.7645,1.7645 0.19606,0.19606 0.46417,0.34017 0.58817,0.58817 0.0877,0.17535 -0.13863,0.44953 0,0.58816 0.13863,0.13864 0.41281,-0.0877 0.58816,0 1.24878,0.62439 -0.0724,0.55195 1.17634,1.17634 0.17535,0.0877 0.41281,-0.0877 0.58816,0 0.248,0.12399 0.34018,0.46417 0.58817,0.58816 0.17536,0.0877 0.41281,-0.0877 0.58817,0 0.24799,0.124 0.34017,0.46417 0.58816,0.58817 0.179,0.0895 1.49962,0 1.7645,0 1.37239,0 2.74478,0 4.11717,0 0.41689,0 3.37693,0.076 3.529,0 0.24799,-0.124 0.34017,-0.46417 0.58816,-0.58817 0.17536,-0.0877 0.41281,0.0877 0.58817,0 0.24799,-0.12399 0.34017,-0.46417 0.58817,-0.58816 0.17535,-0.0877 0.4128,0.0877 0.58816,0 0.24799,-0.124 0.34018,-0.46417 0.58817,-0.58817 0.17536,-0.0877 0.44953,0.13863 0.58816,0 0.13864,-0.13863 -0.13863,-0.44953 0,-0.58817 0.13864,-0.13863 0.41281,0.0877 0.58817,0 0.11259,-0.0563 2.29637,-2.24008 2.35267,-2.35266 0.17535,-0.35072 -0.17536,-0.82562 0,-1.17634 0.12399,-0.24799 0.46417,-0.34017 0.58816,-0.58816 0.0877,-0.17536 -0.0877,-0.41281 0,-0.58817 0.124,-0.24799 0.46417,-0.34017 0.58817,-0.58816 0.0877,-0.17536 -0.0877,-0.41281 0,-0.58817 0.124,-0.24799 0.46417,-0.34017 0.58817,-0.58817 0.17535,-0.35071 -0.27727,-0.89907 0,-1.17633 0.13863,-0.13863 0.44953,0.13863 0.58816,0 0.12025,-0.12024 -0.1166,-1.5313 0,-1.7645 0.124,-0.24799 0.46417,-0.34017 0.58817,-0.58817 0.0895,-0.179 0,-1.49961 0,-1.7645 0,-1.17633 0,-2.35266 0,-3.52899 0,-0.98028 0,-1.96056 0,-2.94084 0,-0.19605 0.13863,-0.44953 0,-0.58816 -0.13863,-0.13864 -0.44953,0.13863 -0.58817,0 -0.27726,-0.27727 0.27727,-0.89907 0,-1.17634 -0.13863,-0.13863 -0.41281,0.0877 -0.58816,0 -0.248,-0.12399 -0.34018,-0.46417 -0.58817,-0.58816 -0.17536,-0.0877 -0.44953,0.13863 -0.58817,0 -0.13863,-0.13863 0.13864,-0.44954 0,-0.58817 -0.13863,-0.13863 -0.41281,0.0877 -0.58816,0 -0.248,-0.124 -0.34018,-0.46417 -0.58817,-0.58817 -0.17536,-0.0877 -0.41281,0.0877 -0.58817,0 -0.24799,-0.12399 -0.34017,-0.46417 -0.58816,-0.58816 -0.35072,-0.17536 -0.89907,0.27726 -1.17634,0 -0.13863,-0.13863 0.13864,-0.44954 0,-0.58817 -0.14153,-0.14153 -2.21113,0.14153 -2.35266,0 -0.13863,-0.13863 0.13863,-0.44953 0,-0.58816 -0.13863,-0.13864 -0.39211,0 -0.58817,0 -1.17633,0 -2.35266,0 -3.529,0 -0.62665,0 -2.94004,-9.2e-4 -2.94083,0 C 160.64992,163.56373 160.38587,164.32492 160,165 Z"
           id="path4186"
           inkscape:connector-curvature="0" />
        <path
           style="fill:none;fill-rule:evenodd;stroke:#000000;stroke-width:1px;stroke-linecap:butt;stroke-linejoin:miter;stroke-opacity:1"
           d="m 230,195 c -1.98434,0.35881 -1.79141,-0.2829 -1.79141,0.91209 0,0.19605 0.13863,0.44953 0,0.58816 -0.13863,0.13864 -0.44954,-0.13863 -0.58817,0 -0.0189,0.0189 0,1.62186 0,1.7645 0,0.19606 0,0.39211 0,0.58817 0,0.19605 -0.13863,0.44953 0,0.58817 0.13863,0.13863 0.39211,0 0.58817,0 0.26488,0 1.5855,0.0895 1.7645,0 0.24799,-0.124 0.34017,-0.46417 0.58816,-0.58817 0.2127,-0.10635 2.53174,0 2.94084,0 0.19605,0 0.44953,0.13863 0.58816,0 0.13864,-0.13863 -0.13863,-0.44953 0,-0.58817 0.13864,-0.13863 0.44954,0.13864 0.58817,0 0.29408,-0.29408 -0.29408,-1.47041 0,-1.7645 0.13863,-0.13863 0.44953,0.13864 0.58817,0 0.27726,-0.27726 -0.39212,-1.17633 0,-1.17633 0.19605,0 0,0.78422 0,0.58817 0,-0.58817 0,-1.17634 0,-1.7645 0,-0.19606 0.13863,-0.44954 0,-0.58817 -0.13864,-0.13863 -0.44954,0.13863 -0.58817,0 -0.13863,-0.13863 -0.0427,-0.77951 0,-0.58817 0.14917,0.66825 0.21439,1.3525 0.32158,2.02875"
           id="path4188"
           inkscape:connector-curvature="0" />
      </g>
      <g
         transform="translate(-28.820158,78.814306)"
         id="g4485">
        <path
           style="fill:none;fill-rule:evenodd;stroke:#000000;stroke-width:1px;stroke-linecap:butt;stroke-linejoin:miter;stroke-opacity:1"
           d="m 465,85 c -0.68507,-2.8066 -0.5416,-0.453327 0.23967,-2.015874 0.0877,-0.175357 -0.13863,-0.449534 0,-0.588167 0.13864,-0.138632 0.44954,0.138633 0.58817,0 0.13863,-0.138632 -0.0877,-0.412809 0,-0.588166 1.2239,-2.447808 -0.0406,0.628771 1.17633,-0.588166 0.13864,-0.138633 -0.0877,-0.41281 0,-0.588167 0.248,-0.495985 0.92834,-0.680347 1.17634,-1.176333 0.0877,-0.175357 -0.13864,-0.449534 0,-0.588166 0.13863,-0.138633 0.44953,0.138632 0.58816,0 0.13863,-0.138633 -0.13863,-0.449535 0,-0.588167 0.13863,-0.138632 0.44954,-0.138632 0.58817,0 0.13863,0.138632 0,0.392111 0,0.588167 0,1.568444 0,3.136887 0,4.705331 0,0.588167 0,1.176333 0,1.7645 0,0.196055 0.19605,0.588166 0,0.588166 -0.97535,0 -0.41241,-0.824826 -0.58817,-1.176333 -0.12399,-0.247992 -0.46417,-0.340173 -0.58816,-0.588166 -0.0877,-0.175358 0.13863,-0.449534 0,-0.588167 -0.13864,-0.138632 -0.44954,0.138633 -0.58817,0 -0.27726,-0.277264 0.27726,-0.899068 0,-1.176333 -0.13863,-0.138632 -0.44953,0.138633 -0.58817,0 -0.13863,-0.138632 -0.19605,-0.588166 0,-0.588166 0.27727,0 0.34018,0.46417 0.58817,0.588166 0.10792,0.05396 1.7645,-0.04317 1.7645,0 0,0.196056 -0.78422,0 -0.58817,0 0.39211,0 0.78422,0 1.17634,0 0.19605,0 0.4128,0.08768 0.58816,0 0.15617,-0.07808 1.68642,-1.608334 1.7645,-1.764499 0.0877,-0.175357 -0.13863,-0.449534 0,-0.588166 0.13863,-0.138633 0.44954,0.138632 0.58817,0 0.27726,-0.277265 -0.27727,-0.899069 0,-1.176333 0.13863,-0.138633 0.44953,0.138632 0.58816,0 0.13864,-0.138633 -0.13863,-0.449535 0,-0.588167 0.13864,-0.138632 0.44954,0.138632 0.58817,0 0.13863,-0.138632 -0.19605,-0.588166 0,-0.588166 0.0432,0 -0.054,1.656579 0,1.764499 0.124,0.247993 0.46417,0.340174 0.58817,0.588167 0.0877,0.175357 0,0.392111 0,0.588166 0,0.196056 0,0.392111 0,0.588167 0,1.176332 0,2.352665 0,3.528998 0,0.196056 0,0.392111 0,0.588167 0,0.196055 -0.19606,0.588166 0,0.588166 0.27726,0 0.34017,-0.46417 0.58816,-0.588166 0.17536,-0.08768 0.44954,0.138632 0.58817,0 0.13863,-0.138632 -0.0877,-0.412809 0,-0.588167 0.124,-0.247992 0.39211,-0.392111 0.58817,-0.588166 0,-0.392111 -0.124,-0.804344 0,-1.176333 0.17535,-0.526072 0.92834,-0.680348 1.17633,-1.176333 0.0877,-0.175357 -0.062,-0.402172 0,-0.588166 0.13863,-0.415897 0.44953,-0.760437 0.58817,-1.176333 0.11061,-0.331843 0,-1.378011 0,-1.7645 0,-1.379355 -0.13864,0.277265 0.58816,-1.176333 0.0877,-0.175357 0,-0.392111 0,-0.588166 0,-0.196056 0,-0.392111 0,-0.588167 0,-0.392111 0,-1.568444 0,-1.176333 0,0.24742 -0.0875,3.354034 0,3.528999 0.124,0.247993 0.46417,0.340174 0.58817,0.588167 0.17857,0.357148 -0.17858,3.171851 0,3.528998 0.124,0.247993 0.46417,0.340174 0.58817,0.588167 0.17535,0.350715 -0.27727,0.899069 0,1.176333 0.13863,0.138632 0.44953,-0.138632 0.58816,0 0.13863,0.138632 -0.13863,0.449534 0,0.588166 0.13863,0.138632 0.39211,0 0.58817,0 0.19605,0 0.44953,0.138632 0.58816,0 0.13864,-0.138632 -0.13863,-0.449534 0,-0.588166 0.13864,-0.138632 0.44954,0.138632 0.58817,0 0.13863,-0.138632 -0.0877,-0.412809 0,-0.588167 0.124,-0.247992 0.46417,-0.340173 0.58817,-0.588166 0.17536,-0.350715 -0.39211,-1.176333 0,-1.176333 0.19605,0 0,0.392111 0,0.588166 0,0.215997 -0.0237,2.328998 0,2.352666 0.13863,0.138632 0.39211,0 0.58816,0 1.17634,0 0.19606,0.196056 0.58817,-0.588166 0.124,-0.247993 0.46417,-0.340174 0.58817,-0.588167 0.0877,-0.175357 -0.0877,-0.412809 0,-0.588166 0.12399,-0.247993 0.46417,-0.340174 0.58816,-0.588167 0.17536,-0.350714 -0.27726,-0.899068 0,-1.176332 0.13864,-0.138633 0.44954,-0.138633 0.58817,0 0.13863,0.138632 -0.13863,0.449534 0,0.588166 0.13863,0.138632 0.44953,-0.138632 0.58817,0 0.13863,0.138632 -0.13864,0.449534 0,0.588166 0.13863,0.138633 0.44953,0.138633 0.58816,0 0.30999,-0.30999 0.27818,-0.866342 0.58817,-1.176332 0.13863,-0.138633 0.41281,0.08768 0.58817,0 0.15312,-0.07657 0.71654,-1.047952 1.17633,-0.588167 0.13863,0.138632 -0.13863,0.449534 0,0.588167 0.0189,0.01891 1.62185,0 1.7645,0 0.19605,0 0.44953,0.138632 0.58816,0 0.13864,-0.138633 0,-0.392111 0,-0.588167 0,-0.196055 0.18388,-0.520151 0,-0.588166 C 491.17328,79.845816 490.56905,80.014431 490,80"
           id="path4452"
           inkscape:connector-curvature="0" />
        <path
           style="fill:none;fill-rule:evenodd;stroke:#000000;stroke-width:1px;stroke-linecap:butt;stroke-linejoin:miter;stroke-opacity:1"
           d="m 475,80 c 0.27556,0.01443 0.8411,-0.232263 0.82667,0.04329 C 475.81224,80.31885 474.72407,80 475,80 c 3.87297,0 7.63115,0.03794 10,0"
           id="path4454"
           inkscape:connector-curvature="0" />
        <path
           style="fill:none;fill-rule:evenodd;stroke:#000000;stroke-width:1px;stroke-linecap:butt;stroke-linejoin:miter;stroke-opacity:1"
           d="m 470,95 5,-5"
           id="path4456"
           inkscape:connector-curvature="0" />
        <path
           style="fill:none;fill-rule:evenodd;stroke:#000000;stroke-width:1px;stroke-linecap:butt;stroke-linejoin:miter;stroke-opacity:1"
           d="m 475,95 c -1.32895,0.403203 -1.68586,1.925937 -2.70233,2.688288 -0.56551,0.424132 -1.26618,0.674967 -1.7645,1.176332 C 470.23842,99.16117 470.17772,99.62154 470,100"
           id="path4458"
           inkscape:connector-curvature="0" />
        <g
           id="g4481">
          <path
             inkscape:connector-curvature="0"
             id="path4450"
             d="m 465,70 c -3.12776,-0.304817 -0.33005,1.79052 -0.93666,2.39713 -0.13863,0.138632 -0.44953,-0.138633 -0.58817,0 -0.27726,0.277264 0.17536,0.825618 0,1.176332 -0.12399,0.247993 -0.46417,0.340174 -0.58816,0.588167 -0.0877,0.175357 0.0877,0.412809 0,0.588166 -0.124,0.247993 -0.46417,0.340174 -0.58817,0.588167 -0.0877,0.175357 0.0877,0.412809 0,0.588166 -0.12399,0.247993 -0.46417,0.340174 -0.58817,0.588167 -0.0877,0.175357 0,0.392111 0,0.588166 -0.19605,0.196056 -0.46417,0.340174 -0.58816,0.588167 -0.0877,0.175357 0.0877,0.412809 0,0.588166 -0.124,0.247993 -0.50049,0.325131 -0.58817,0.588167 -0.12399,0.371989 0.124,0.804343 0,1.176333 -0.0877,0.263036 -0.46417,0.340173 -0.58816,0.588166 -0.0877,0.175357 0.0877,0.412809 0,0.588167 -0.124,0.247992 -0.46417,0.340173 -0.58817,0.588166 -0.0877,0.175357 0,0.392111 0,0.588166 -0.19606,0.196056 -0.46417,0.340174 -0.58817,0.588167 -0.0877,0.175357 0.0877,0.412809 0,0.588166 -0.12399,0.247993 -0.46417,0.340174 -0.58816,0.588167 -0.17536,0.350715 0.17535,0.825618 0,1.176333 -0.124,0.247993 -0.46417,0.340173 -0.58817,0.588166 -0.0877,0.175358 0.0877,0.412809 0,0.588167 -0.124,0.247992 -0.46417,0.340173 -0.58817,0.588166 -0.0877,0.175358 0.0877,0.412809 0,0.588167 -0.24799,0.495985 -0.92834,0.680347 -1.17633,1.176333 -0.0877,0.175357 0.0877,0.412809 0,0.588166 -0.124,0.247993 -0.46417,0.340174 -0.58817,0.588166 -0.0877,0.175358 0.0877,0.41281 0,0.588167 -0.12399,0.247993 -0.46417,0.340174 -0.58816,0.588166 -0.0877,0.175358 0.0877,0.41281 0,0.588167 -0.124,0.247993 -0.46417,0.340174 -0.58817,0.588166 -0.0877,0.175358 0,0.392111 0,0.588167 -0.19605,0.196055 -0.46417,0.340174 -0.58817,0.588166 -0.1166,0.233203 0.12025,1.644257 0,1.7645 -0.13863,0.138632 -0.44953,-0.138632 -0.58816,0 -0.29409,0.294083 0.29408,1.470416 0,1.764499 -0.13863,0.138632 -0.44954,-0.138632 -0.58817,0 -0.16093,0.160935 0.15954,2.033593 0,2.352666 -0.12399,0.247993 -0.46417,0.340174 -0.58816,0.588163 -0.17536,0.35072 0.27726,0.89907 0,1.17634 -0.26141,0.2614 -1.11099,-0.45747 -0.58817,0.58816 0.65023,1.30047 0.36504,0.18252 1.17633,0.58817 0.49599,0.24799 0.68035,0.92834 1.17633,1.17633 0.35072,0.17536 0.89907,-0.27726 1.17634,0 0.13863,0.13863 -0.13863,0.44954 0,0.58817 0.27726,0.27726 0.89907,-0.27727 1.17633,0 0.13863,0.13863 -0.13863,0.44953 0,0.58817 0.29408,0.29408 1.47042,-0.29409 1.7645,0 0.13863,0.13863 -0.13863,0.44953 0,0.58816 0.27726,0.27727 0.82562,-0.17536 1.17633,0 0.248,0.124 0.34018,0.46417 0.58817,0.58817 0.17536,0.0877 0.44953,-0.13863 0.58817,0 0.13863,0.13863 -0.13864,0.44953 0,0.58816 0.27726,0.27727 0.89906,-0.27726 1.17633,0 0.13863,0.13864 -0.13863,0.44954 0,0.58817 0.13863,0.13863 0.41281,-0.0877 0.58816,0 0.248,0.124 0.34018,0.46417 0.58817,0.58817 0.35072,0.17535 0.89907,-0.27727 1.17633,0 0.13864,0.13863 -0.13863,0.44953 0,0.58816 0.13864,0.13864 0.41281,-0.0877 0.58817,0 0.49599,0.248 0.68035,0.92834 1.17633,1.17634 0.17536,0.0877 0.41281,-0.0877 0.58817,0 0.24799,0.12399 0.34017,0.46417 0.58817,0.58816 0.17535,0.0877 0.41281,-0.0877 0.58816,0 0.248,0.124 0.34018,0.46417 0.58817,0.58817 0.35071,0.17536 0.89907,-0.27726 1.17633,0 0.13863,0.13863 -0.13863,0.44953 0,0.58817 0.27727,0.27726 0.89907,-0.27727 1.17634,0 0.13863,0.13863 -0.13864,0.44953 0,0.58816 0.39183,0.39184 0.78449,-0.39183 1.17633,0 0.13863,0.13863 -0.13863,0.44954 0,0.58817 0.13863,0.13863 0.39211,0 0.58816,0 0.30757,0 2.19802,0.0773 2.35267,0 0.31347,-0.15674 0.86286,-1.0196 1.17633,-1.17633 0.17536,-0.0877 0.41281,0.0877 0.58817,0 0.24799,-0.124 0.39211,-0.39211 0.58817,-0.58817 0.19605,-0.19606 0.39211,-0.39211 0.58816,-0.58817 0.19606,-0.19605 0.39211,-0.39211 0.58817,-0.58816 0.19605,-0.19606 0.34017,-0.46417 0.58817,-0.58817 0.17535,-0.0877 0.44953,0.13863 0.58816,0 0.13863,-0.13863 -0.0877,-0.41281 0,-0.58817 0.248,-0.49598 0.92834,-0.68034 1.17634,-1.17633 0.0877,-0.17536 -0.13864,-0.44953 0,-0.58817 0.13863,-0.13863 0.4128,0.0877 0.58816,0 1.08283,-0.54141 0.0935,-1.22308 1.17633,-1.76449 0.17536,-0.0877 0.41281,0.0877 0.58817,0 0.24799,-0.124 0.39211,-0.39212 0.58817,-0.58817 0.19605,-0.19606 0.43437,-0.35747 0.58816,-0.58817 0.24318,-0.36476 0.34499,-0.81157 0.58817,-1.17633 0.1538,-0.2307 0.39211,-0.39211 0.58817,-0.58817 0.39211,-0.39211 0.78422,-0.78422 1.17633,-1.17633 0.19606,-0.19606 0.46417,-0.34017 0.58817,-0.58817 0.0877,-0.175354 0,-0.392108 0,-0.588163 0.19605,-0.196056 0.46417,-0.340174 0.58816,-0.588167 0.0877,-0.175357 -0.10875,-0.425038 0,-0.588166 0.3076,-0.461396 0.86874,-0.714937 1.17634,-1.176333 0.10875,-0.163128 -0.0877,-0.412809 0,-0.588166 0.12399,-0.247993 0.46417,-0.340174 0.58816,-0.588167 0.0877,-0.175357 -0.0877,-0.412809 0,-0.588166 0.124,-0.247993 0.46417,-0.340174 0.58817,-0.588167 0.17536,-0.350715 -0.124,-0.804344 0,-1.176333 0.13863,-0.415896 0.44953,-0.760436 0.58817,-1.176333 0.12399,-0.371989 -0.17536,-0.825618 0,-1.176333 0.12399,-0.247992 0.46417,-0.340173 0.58816,-0.588166 0.0877,-0.175357 0,-0.392111 0,-0.588167 0.19606,-0.39211 0.34499,-0.811567 0.58817,-1.176332 0.1538,-0.230698 0.50049,-0.325131 0.58816,-0.588167 0.48775,-1.46325 -0.65381,-1.077861 0.58817,-2.940832 0.1538,-0.230698 0.46417,-0.340174 0.58817,-0.588167 0.0877,-0.175357 -0.062,-0.402172 0,-0.588166 0.13863,-0.415897 0.44953,-0.760437 0.58816,-1.176333 0.062,-0.185995 -0.0877,-0.412809 0,-0.588167 0.124,-0.247992 0.46417,-0.340173 0.58817,-0.588166 0.0877,-0.175357 -0.0877,-0.412809 0,-0.588166 0.124,-0.247993 0.46417,-0.340174 0.58817,-0.588167 0.0877,-0.175357 -0.0877,-0.412809 0,-0.588166 0.24799,-0.495986 0.92834,-0.680348 1.17633,-1.176333 0.0877,-0.175358 0,-0.392111 0,-0.588167 0.19606,-0.196055 0.46417,-0.340174 0.58817,-0.588166 0.1166,-0.233203 -0.12025,-1.644257 0,-1.7645 0.13863,-0.138632 0.44953,0.138633 0.58816,0 0.0189,-0.01892 0,-1.621853 0,-1.764499 0,-0.215996 0.0237,-2.328997 0,-2.352666 -0.13863,-0.138632 -0.41281,0.08768 -0.58816,0 -0.248,-0.123996 -0.34018,-0.46417 -0.58817,-0.588166 -0.17536,-0.08768 -0.41281,0.08768 -0.58817,0 -0.24799,-0.123997 -0.34017,-0.46417 -0.58816,-0.588167 -0.35072,-0.175357 -0.89907,0.277264 -1.17634,0 -0.13863,-0.138632 0.13864,-0.449534 0,-0.588166 -0.27726,-0.277265 -0.82561,0.175357 -1.17633,0 -0.24799,-0.123997 -0.34017,-0.46417 -0.58817,-0.588167 -0.2332,-0.116601 -1.64425,0.120243 -1.76449,0 -0.13864,-0.138632 0.13863,-0.449534 0,-0.588166 -0.20646,-0.206458 -2.53457,0.203133 -2.94084,0 -0.24799,-0.123997 -0.34017,-0.46417 -0.58816,-0.588167 -0.35072,-0.175357 -0.82562,0.175358 -1.17634,0 -0.24799,-0.123996 -0.34017,-0.46417 -0.58816,-0.588166 -0.17536,-0.08768 -0.41281,0.08768 -0.58817,0 -0.24799,-0.123997 -0.34017,-0.46417 -0.58817,-0.588167 -0.35071,-0.175357 -0.89906,0.277265 -1.17633,0 -0.13863,-0.138632 0.13863,-0.449534 0,-0.588166 -0.27726,-0.277264 -0.89907,0.277264 -1.17633,0 -0.13863,-0.138632 0.13863,-0.449534 0,-0.588167 -0.13863,-0.138632 -0.41281,0.08768 -0.58817,0 -0.49598,-0.247992 -0.68035,-0.92834 -1.17633,-1.176332 -0.35072,-0.175358 -0.89907,0.277264 -1.17633,0 -0.13864,-0.138633 0.13863,-0.449535 0,-0.588167 -0.27727,-0.277264 -0.82562,0.175357 -1.17634,0 -1.9507,-1.950703 0.55453,0.277264 -1.17633,-0.588166 -0.24799,-0.123997 -0.34017,-0.464171 -0.58817,-0.588167 -0.2332,-0.116601 -1.64425,0.120243 -1.7645,0 -0.13863,-0.138632 0.13864,-0.449534 0,-0.588166 -0.13863,-0.138633 -0.39211,0 -0.58816,0 -1.17634,0 -2.35267,0 -3.529,0 -0.19606,0 -0.41281,-0.08768 -0.58817,0 -0.49598,0.247992 -0.68034,0.92834 -1.17633,1.176333 -0.17536,0.08768 -0.44953,-0.138633 -0.58817,0 -0.13863,0.138632 0.13864,0.449534 0,0.588166 -0.13863,0.138632 -0.44953,-0.138632 -0.58816,0 -0.13864,0.138632 0.13863,0.449534 0,0.588167 -0.13864,0.138632 -0.44954,-0.138633 -0.58817,0 -0.27726,0.277264 0.27726,0.899068 0,1.176332 -0.13863,0.138633 -0.44953,-0.138632 -0.58817,0 -0.13863,0.138633 0,0.392111 0,0.588167 0,0.196055 0,0.392111 0,0.588166 0,0.957831 0.0203,1.986641 -0.23967,2.896369 -0.18654,0.652899 -0.68953,1.176505 -0.93666,1.808963 -0.0713,0.18261 0,0.392111 0,0.588167 0,1.328764 -0.0827,0.410384 0.93666,2.60287"
             style="fill:none;fill-rule:evenodd;stroke:#000000;stroke-width:1px;stroke-linecap:butt;stroke-linejoin:miter;stroke-opacity:1" />
          <path
             inkscape:connector-curvature="0"
             id="path4460"
             d="m 470,100 c -9.54858,0.0731 -3.47775,1.29697 -5.93666,-0.547213 -0.56551,-0.424133 -1.10817,-0.913801 -1.7645,-1.176333 -1.55302,-0.621207 -0.89461,0.869887 -2.35266,-0.588166 -0.13864,-0.138633 0.13863,-0.449535 0,-0.588167 -0.39264,-0.392638 -0.7837,0.392638 -1.17634,0 -0.27726,-0.277264 0.17536,-0.825618 0,-1.176333 -0.12399,-0.247993 -0.46417,-0.340174 -0.58816,-0.588166 -0.18484,-0.369676 0.18483,-1.98299 0,-2.352666 -0.124,-0.247993 -0.46417,-0.340174 -0.58817,-0.588167 -0.10635,-0.2127 0,-2.531739 0,-2.940832 0,-0.196055 0.13863,-0.449534 0,-0.588166 -0.78422,-0.784222 -0.58817,0.980277 -0.58817,-0.588167 0,-0.392111 0,-0.784222 0,-1.176333 0,-0.196055 0.19606,-0.588166 0,-0.588166 -0.67823,0 -0.78062,1.561248 -1.17633,2.352666 -0.124,0.247992 -0.50049,0.32513 -0.58817,0.588166 -0.24799,0.743978 0.248,1.608688 0,2.352666 -0.0574,0.17227 -1.06148,0.703013 -0.58816,1.176333 0.13863,0.138632 0.39211,0 0.58816,0 0.78423,0 1.56845,0 2.35267,0 0.39211,0 0.87582,-0.25188 1.17633,0 C 459.3734,93.488837 459.58995,94.327652 460,95"
             style="fill:none;fill-rule:evenodd;stroke:#000000;stroke-width:1px;stroke-linecap:butt;stroke-linejoin:miter;stroke-opacity:1" />
        </g>
      </g>
    </g>
  </g>
</svg>
