<?xml version="1.0" encoding="UTF-8" standalone="no"?>
<!-- Created with Inkscape (http://www.inkscape.org/) -->

<svg
   xmlns:dc="http://purl.org/dc/elements/1.1/"
   xmlns:cc="http://creativecommons.org/ns#"
   xmlns:rdf="http://www.w3.org/1999/02/22-rdf-syntax-ns#"
   xmlns:svg="http://www.w3.org/2000/svg"
   xmlns="http://www.w3.org/2000/svg"
   xmlns:sodipodi="http://sodipodi.sourceforge.net/DTD/sodipodi-0.dtd"
   xmlns:inkscape="http://www.inkscape.org/namespaces/inkscape"
   width="8in"
   height="5in"
   viewBox="0 0 720.00001 450.00001"
   id="svg2"
   version="1.1"
   inkscape:version="0.91 r13725"
   sodipodi:docname="WB_robot0.svg">
  <defs
     id="defs4">
    <inkscape:perspective
       sodipodi:type="inkscape:persp3d"
       inkscape:vp_x="0 : 225 : 1"
       inkscape:vp_y="0 : 1000 : 0"
       inkscape:vp_z="720.00001 : 225 : 1"
       inkscape:persp3d-origin="360 : 150 : 1"
       id="perspective4153" />
  </defs>
  <sodipodi:namedview
     id="base"
     pagecolor="#ffffff"
     bordercolor="#666666"
     borderopacity="1.0"
     inkscape:pageopacity="0.0"
     inkscape:pageshadow="2"
     inkscape:zoom="1.7001989"
     inkscape:cx="263.78433"
     inkscape:cy="225"
     inkscape:document-units="px"
     inkscape:current-layer="layer2"
     showgrid="true"
     units="in"
     inkscape:snap-grids="true"
     showguides="false"
     inkscape:snap-to-guides="false"
     inkscape:window-width="1920"
     inkscape:window-height="1043"
     inkscape:window-x="1920"
     inkscape:window-y="0"
     inkscape:window-maximized="1">
    <inkscape:grid
       type="xygrid"
       id="grid4136" />
  </sodipodi:namedview>
  <metadata
     id="metadata7">
    <rdf:RDF>
      <cc:Work
         rdf:about="">
        <dc:format>image/svg+xml</dc:format>
        <dc:type
           rdf:resource="http://purl.org/dc/dcmitype/StillImage" />
        <dc:title></dc:title>
      </cc:Work>
    </rdf:RDF>
  </metadata>
  <g
     inkscape:label="Layer 1"
     inkscape:groupmode="layer"
     id="layer1"
     transform="translate(0,-602.36215)" />
  <g
     inkscape:groupmode="layer"
     id="layer2"
     inkscape:label="bground">
    <g
       transform="translate(0,-602.36215)"
       id="g4143"
       style="">
      <rect
         y="642.36212"
         x="50"
         height="360"
         width="610"
         id="rect4138"
         style="fill:#7d7d7e;fill-opacity:1;stroke:#000000;stroke-width:1.098;stroke-miterlimit:4;stroke-dasharray:none;stroke-opacity:1" />
      <rect
         y="652.36212"
         x="60"
         height="340.00003"
         width="590"
         id="rect4151"
         style="fill:#ffffff;fill-opacity:1;stroke:#000000;stroke-width:1.09800005;stroke-miterlimit:4;stroke-dasharray:none;stroke-opacity:1" />
      <rect
         y="982.36212"
         x="70"
         height="20"
         width="80"
         id="rect4193"
         style="fill:#001a12;fill-opacity:1;stroke:#000000;stroke-width:1.09800005;stroke-miterlimit:4;stroke-dasharray:none;stroke-opacity:1" />
      <rect
         y="982.36212"
         x="180"
         height="10"
         width="40"
         id="rect4195"
         style="fill:#ff1a12;fill-opacity:1;stroke:#000000;stroke-width:1.09800005;stroke-miterlimit:4;stroke-dasharray:none;stroke-opacity:1" />
      <rect
         style="fill:#00ff00;fill-opacity:1;stroke:#000000;stroke-width:1.09800005;stroke-miterlimit:4;stroke-dasharray:none;stroke-opacity:1"
         id="rect4197"
         width="40"
         height="10"
         x="243.21626"
         y="981.53033" />
      <rect
         y="981.53033"
         x="297.28281"
         height="10"
         width="40"
         id="rect4199"
         style="fill:#ffff00;fill-opacity:1;stroke:#000000;stroke-width:1.09800005;stroke-miterlimit:4;stroke-dasharray:none;stroke-opacity:1" />
      <rect
         style="fill:#00ffff;fill-opacity:1;stroke:#000000;stroke-width:1.09800005;stroke-miterlimit:4;stroke-dasharray:none;stroke-opacity:1"
         id="rect4201"
         width="40"
         height="10"
         x="385.45285"
         y="981.53033" />
      <rect
         y="983.19391"
         x="467.80035"
         height="10"
         width="40"
         id="rect4203"
         style="fill:#000080;fill-opacity:1;stroke:#000000;stroke-width:1.09800005;stroke-miterlimit:4;stroke-dasharray:none;stroke-opacity:1" />
    </g>
    <path
       style="fill:none;fill-rule:evenodd;stroke:#000000;stroke-width:1px;stroke-linecap:butt;stroke-linejoin:miter;stroke-opacity:1"
       d="m 145,155 c 0.3015,1.12116 0.27712,2.15395 0.27712,3.26943 0,0.19606 -0.13864,0.44954 0,0.58817 0.13863,0.13863 0.44953,-0.13863 0.58816,0 0.13864,0.13863 0,0.39211 0,0.58817 0,0.19605 0,0.39211 0,0.58816 0,2.54872 0,5.09745 0,7.64617 0,0.21599 -0.0237,2.32899 0,2.35266 0.13864,0.13863 0.44954,-0.13863 0.58817,0 0.13863,0.13863 0,0.39211 0,0.58817 0,0.19605 0,0.39211 0,0.58817 0,0.58816 0,1.17633 0,1.7645 0,0.19605 0.19606,0.58816 0,0.58816 -0.19606,0 0,-0.78422 0,-0.58816 0,0.39211 -0.17536,0.82561 0,1.17633 0.0314,0.0629 2.2308,-0.12187 2.35267,0 0.13863,0.13863 -0.13864,0.44953 0,0.58816 0.27726,0.27727 0.82561,-0.17535 1.17633,0 0.24799,0.124 0.34017,0.46417 0.58817,0.58817 0.17535,0.0877 0.44953,-0.13863 0.58816,0 0.13863,0.13863 -0.13863,0.44954 0,0.58817 0.18213,0.18212 2.75871,-0.18213 2.94083,0 0.13864,0.13863 -0.13863,0.44953 0,0.58816 0.13864,0.13864 0.39211,0 0.58817,0 0.40909,0 2.72813,-0.10635 2.94083,0 0.248,0.124 0.34018,0.46417 0.58817,0.58817 0.47053,0.23527 1.29397,-0.23527 1.7645,0 0.24799,0.124 0.34017,0.46417 0.58816,0.58817 0.35072,0.17535 0.89907,-0.27727 1.17634,0 0.13863,0.13863 -0.13863,0.44953 0,0.58816 0.13863,0.13864 0.41281,-0.0877 0.58816,0 0.248,0.124 0.34018,0.46417 0.58817,0.58817 0.17536,0.0877 0.44954,-0.13863 0.58817,0 0.13863,0.13863 -0.13863,0.44953 0,0.58817 0.13863,0.13863 0.41281,-0.0877 0.58816,0 0.248,0.12399 0.34018,0.46417 0.58817,0.58816 0.17536,0.0877 0.41281,-0.0877 0.58817,0 0.24799,0.124 0.34017,0.46417 0.58816,0.58817 0.17536,0.0877 0.41281,-0.0877 0.58817,0 0.49599,0.24799 0.68035,0.92834 1.17633,1.17633 0.17536,0.0877 0.41281,-0.0877 0.58817,0 0.49598,0.24799 0.68035,0.92834 1.17633,1.17633 0.17536,0.0877 0.41281,-0.0877 0.58817,0 0.7058,0.3529 1.0587,1.4116 1.7645,1.7645 0.17536,0.0877 0.44953,-0.13863 0.58816,0 0.13864,0.13864 -0.13863,0.44954 0,0.58817 0.13864,0.13863 0.44954,-0.13863 0.58817,0 0.13863,0.13863 -0.13863,0.44954 0,0.58817 0.13863,0.13863 0.44953,-0.13863 0.58817,0 0.13863,0.13863 -0.13864,0.44953 0,0.58816 0.13863,0.13864 0.41281,-0.0877 0.58816,0 1.24878,0.62439 -0.0724,0.55195 1.17634,1.17634 0.17535,0.0877 0.41281,-0.0877 0.58816,0 0.248,0.12399 0.34018,0.46417 0.58817,0.58816 0.17536,0.0877 0.44953,-0.13863 0.58817,0 0.13863,0.13864 -0.13864,0.44954 0,0.58817 0.13863,0.13863 0.39211,0 0.58816,0 0.19606,0 0.39211,0 0.58817,0 1.17633,0 2.35266,0 3.529,0 0.19605,0 0.39211,0 0.58816,0 0.19606,0 0.41281,-0.0877 0.58817,0 0.24799,0.124 0.34017,0.46417 0.58817,0.58817 0.47053,0.23526 1.29396,-0.23527 1.7645,0 0.24799,0.12399 0.34017,0.46417 0.58816,0.58816 0.31908,0.15954 2.19173,-0.16093 2.35267,0 0.13863,0.13863 -0.13863,0.44954 0,0.58817 0.27726,0.27726 0.82562,-0.17536 1.17633,0 0.24799,0.124 0.34018,0.46417 0.58817,0.58817 0.35071,0.17535 0.82562,-0.17536 1.17633,0 0.24799,0.12399 0.34017,0.46417 0.58817,0.58816 0.62694,0.31347 0.54939,-0.31347 1.17633,0 0.24799,0.124 0.34017,0.46417 0.58817,0.58817 0.35071,0.17536 0.89907,-0.27727 1.17633,0 0.13863,0.13863 -0.13863,0.44953 0,0.58816 0.27726,0.27727 0.82562,-0.17535 1.17633,0 0.248,0.124 0.34018,0.46417 0.58817,0.58817 0.35071,0.17536 0.89907,-0.27726 1.17633,0 0.13863,0.13863 -0.13863,0.44954 0,0.58817 0.13863,0.13863 0.41281,-0.0877 0.58817,0 0.24799,0.12399 0.34017,0.46417 0.58817,0.58816 0.2332,0.11661 1.64425,-0.12024 1.76449,0 0.13864,0.13864 -0.13863,0.44954 0,0.58817 0.29409,0.29408 1.47042,-0.29408 1.7645,0 0.13864,0.13863 -0.13863,0.44954 0,0.58817 0.13864,0.13863 0.39211,0 0.58817,0 0.19606,0 0.78422,0 0.58817,0 -0.39211,0 -1.56845,0 -1.17634,0 5.48956,0 0.58817,0.58816 1.7645,-0.58817 0.13864,-0.13863 0.44954,0.13863 0.58817,0 0.13863,-0.13863 -0.0877,-0.41281 0,-0.58817 1.9507,-1.9507 -0.27726,0.55453 0.58817,-1.17633 0.12399,-0.24799 0.46417,-0.34017 0.58816,-0.58817 0.17536,-0.35071 -0.27726,-0.89906 0,-1.17633 0.13863,-0.13863 0.44954,0.13863 0.58817,0 0.13863,-0.13863 0,-0.39211 0,-0.58816 0,-0.98028 0,-1.96056 0,-2.94084 0,-0.19605 -0.13863,-0.44953 0,-0.58816 0.13863,-0.13864 0.44953,0.13863 0.58817,0 0.20645,-0.20646 -0.20314,-2.53457 0,-2.94084 0.12399,-0.24799 0.46417,-0.34017 0.58816,-0.58816 0.20314,-0.40627 -0.20646,-2.73438 0,-2.94083 0.13863,-0.13864 0.44954,0.13863 0.58817,0 0.13863,-0.13864 0,-0.39212 0,-0.58817 0,-1.17633 0,-2.35267 0,-3.529 0,-1.17633 0,-2.35267 0,-3.529 0,-0.15299 0,-1.32932 0,-1.17633 0,0.39211 -0.39211,1.17633 0,1.17633 1.61961,0 0.1661,-1.34243 0.58817,-1.7645 0.13863,-0.13863 0.44953,0.13863 0.58816,0 0.13863,-0.13863 -0.13863,-0.44953 0,-0.58816 0.13863,-0.13864 0.44954,0.13863 0.58817,0 0.13863,-0.13864 0.17536,-0.50049 0,-0.58817 -0.35072,-0.17536 -0.80435,0.124 -1.17633,0 -0.26304,-0.0877 -0.35747,-0.43437 -0.58817,-0.58817 -0.36477,-0.24317 -0.78422,-0.39211 -1.17633,-0.58816 -0.39212,-0.19606 -0.7693,-0.42535 -1.17634,-0.58817 -0.57564,-0.23026 -1.18886,-0.35791 -1.7645,-0.58817 -0.81407,-0.32563 -1.53859,-0.8507 -2.35266,-1.17633 -0.57564,-0.23026 -1.18886,-0.35791 -1.7645,-0.58817 -0.81408,-0.32563 -1.56845,-0.78422 -2.35267,-1.17633 -0.39211,-0.19605 -0.75103,-0.48184 -1.17633,-0.58817 -0.3804,-0.0951 -0.80434,0.124 -1.17633,0 -0.26304,-0.0877 -0.34018,-0.46417 -0.58817,-0.58816 -0.17536,-0.0877 -0.39211,0 -0.58817,0 -0.39211,0 -0.79593,0.0951 -1.17633,0 -0.85061,-0.21265 -1.50206,-0.96368 -2.35267,-1.17633 -0.7608,-0.19021 -1.60868,0.24799 -2.35266,0 -0.26304,-0.0877 -0.32513,-0.50049 -0.58817,-0.58817 -0.37199,-0.124 -0.79593,0.0951 -1.17633,0 -0.4253,-0.10633 -0.75103,-0.48184 -1.17633,-0.58817 -0.76081,-0.1902 -1.59186,0.1902 -2.35267,0 -0.4253,-0.10632 -0.75103,-0.48184 -1.17633,-0.58816 -0.76081,-0.19021 -1.59186,0.1902 -2.35267,0 -0.4253,-0.10633 -0.76043,-0.44954 -1.17633,-0.58817 -0.37199,-0.124 -0.82562,0.17536 -1.17633,0 -0.248,-0.124 -0.34018,-0.46417 -0.58817,-0.58817 -0.2332,-0.1166 -1.64426,0.12025 -1.7645,0 -0.13863,-0.13863 0.13863,-0.44953 0,-0.58816 -0.27726,-0.27727 -0.82562,0.17535 -1.17633,0 -0.248,-0.124 -0.34018,-0.46417 -0.58817,-0.58817 -0.17536,-0.0877 -0.39211,0 -0.58817,0 -0.19605,-0.19606 -0.34017,-0.46417 -0.58816,-0.58817 -0.17536,-0.0877 -0.40217,0.062 -0.58817,0 -0.4159,-0.13863 -0.76044,-0.44953 -1.17633,-0.58816 -0.186,-0.062 -0.40217,0.062 -0.58817,0 -1.23515,-0.41172 -2.29385,-1.35279 -3.529,-1.7645 -0.18599,-0.062 -0.40217,0.062 -0.58816,0 -0.4159,-0.13863 -0.75103,-0.48184 -1.17634,-0.58817 -0.3804,-0.0951 -0.78422,0 -1.17633,0 -0.19605,0 -0.41281,0.0877 -0.58817,0 -0.24799,-0.124 -0.34017,-0.46417 -0.58816,-0.58817 -0.35072,-0.17535 -0.82562,0.17536 -1.17634,0 -0.24799,-0.12399 -0.34017,-0.46417 -0.58816,-0.58816 -0.17536,-0.0877 -0.41281,0.0877 -0.58817,0 -0.24799,-0.124 -0.34017,-0.46417 -0.58816,-0.58817 -0.17536,-0.0877 -0.41281,0.0877 -0.58817,0 -1.4536,-0.7268 0.20302,-0.58816 -1.17633,-0.58816 -1.37936,0 0.27726,0.13863 -1.17634,-0.58817 -0.35071,-0.17536 -0.82562,0.17536 -1.17633,0 -0.24799,-0.124 -0.32513,-0.50049 -0.58817,-0.58817 -0.55798,-0.18599 -1.17633,0 -1.7645,0 -0.98027,0 -1.96055,0 -2.94083,0 -1.17633,0 -2.35266,0 -3.529,0 -0.19605,0 -0.58816,0.19606 -0.58816,0 0,-0.19605 0.58816,0.19606 0.58816,0 0,-0.27726 -0.58816,-0.3109 -0.58816,-0.58816 0,-0.19606 0.44953,0.13863 0.58816,0 0.13864,-0.13864 -0.13863,-0.44954 0,-0.58817 0.13864,-0.13863 0.41281,0.0877 0.58817,0 0.24799,-0.124 0.34017,-0.46417 0.58817,-0.58817 0.17535,-0.0877 0.41281,0.0877 0.58816,0 1.4536,-0.7268 -0.20302,-0.58816 1.17634,-0.58816 0.19605,0 0.39211,0 0.58816,0 0.19606,0 0.41281,0.0877 0.58817,0 0.24799,-0.124 0.32513,-0.50049 0.58817,-0.58817 0.74397,-0.24799 1.60868,0.24799 2.35266,0 0.26304,-0.0877 0.32513,-0.50049 0.58817,-0.58817 0.55798,-0.18599 1.17633,0 1.7645,0 1.17633,0 2.35266,0 3.529,0 0.19605,0 0.39211,0 0.58816,0 0.19606,0 0.41281,0.0877 0.58817,0 0.24799,-0.12399 0.34017,-0.46417 0.58816,-0.58816 0.13183,-0.0659 2.2129,0 2.35267,0 2.15661,0 4.31322,0 6.46983,0 2.35267,0 4.70533,0 7.058,0 0.40909,0 2.72813,0.10635 2.94083,0 0.24799,-0.124 0.34018,-0.46417 0.58817,-0.58817 0.17536,-0.0877 0.39211,0 0.58816,0 0.59232,0 3.20374,0.10842 3.529,0 0.26304,-0.0877 0.34018,-0.46417 0.58817,-0.58817 0.34703,-0.17351 1.35994,0.13486 1.7645,0 0.4159,-0.13863 0.76044,-0.44953 1.17633,-0.58816 0.40456,-0.13486 1.41747,0.17351 1.7645,0 0.24799,-0.124 0.32513,-0.50049 0.58817,-0.58817 0.26902,-0.0897 2.09094,0.13086 2.35266,0 0.248,-0.124 0.34018,-0.46417 0.58817,-0.58817 0.37106,-0.18552 2.56978,0.18553 2.94083,0 0.248,-0.12399 0.34018,-0.46417 0.58817,-0.58816 0.47053,-0.23527 1.29397,0.23526 1.7645,0 0.24799,-0.124 0.34017,-0.46417 0.58817,-0.58817 0.17535,-0.0877 0.39211,0 0.58816,0 0.19606,0 0.39211,0 0.58817,0 0.98028,0 1.96055,0 2.94083,0 0.55396,0 2.60625,-0.11153 2.94083,0 0.26304,0.0877 0.34018,0.46417 0.58817,0.58817 0.35715,0.17857 3.17185,-0.17858 3.529,0 1.4536,0.7268 -0.20302,0.58816 1.17633,0.58816 0.39211,0 0.78422,0 1.17633,0 0.19606,0 0.41281,-0.0877 0.58817,0 0.24799,0.124 0.39211,0.39212 0.58817,0.58817 0.19605,0.19606 0.43436,0.35747 0.58816,0.58817 0.24318,0.36476 0.34499,0.81157 0.58817,1.17633 0.1538,0.2307 0.46417,0.34017 0.58817,0.58817 0.59309,1.18618 0.40544,1.91298 1.17633,2.94083 2.7282,3.6376 0.12215,0.35516 1.7645,1.17633 0.62439,0.3122 0.55194,0.86414 1.17633,1.17634 0.17536,0.0877 0.41281,-0.0877 0.58817,0 0.24799,0.12399 0.34017,0.46417 0.58816,0.58816 0.17536,0.0877 0.39212,0 0.58817,0 0.39211,0 0.80434,-0.12399 1.17633,0 0.26304,0.0877 0.34018,0.46417 0.58817,0.58817 0.35071,0.17536 0.82562,-0.17536 1.17633,0 0.248,0.12399 0.34018,0.46417 0.58817,0.58816 0.36968,0.18484 1.98299,-0.18483 2.35267,0 0.24799,0.124 0.34017,0.46417 0.58816,0.58817 0.47054,0.23527 1.29397,-0.23527 1.7645,0 0.24799,0.124 0.34018,0.46417 0.58817,0.58817 0.17536,0.0877 0.41281,-0.0877 0.58816,0 0.248,0.12399 0.34018,0.46417 0.58817,0.58816 0.17536,0.0877 0.40217,-0.062 0.58817,0 0.41589,0.13864 0.76043,0.44954 1.17633,0.58817 0.18599,0.062 0.40217,-0.062 0.58817,0 0.41589,0.13863 0.76043,0.44953 1.17633,0.58817 0.37199,0.12399 0.82562,-0.17536 1.17633,0 0.248,0.12399 0.34018,0.46417 0.58817,0.58816 0.17536,0.0877 0.39211,0 0.58817,0 0.39211,0 0.80434,-0.12399 1.17633,0 0.26303,0.0877 0.34017,0.46417 0.58816,0.58817 0.35072,0.17536 0.89907,-0.27726 1.17634,0 0.13863,0.13863 -0.13863,0.44953 0,0.58817 0.29408,0.29408 1.47041,-0.29409 1.7645,0 0.13863,0.13863 -0.13864,0.44953 0,0.58816 0.13863,0.13863 0.39211,0 0.58816,0 0.19606,0 0.39211,0 0.58817,0 0.19606,0 0.39211,0 0.58817,0 0.19605,0 0.41281,-0.0877 0.58816,0 0.248,0.124 0.34018,0.46417 0.58817,0.58817 0.31907,0.15954 2.19173,-0.16094 2.35267,0 0.13863,0.13863 0,0.39211 0,0.58817 0,0.19605 0.0877,0.4128 0,0.58816 -0.124,0.24799 -0.43437,0.35747 -0.58817,0.58817 -3.13689,4.70533 2.15661,-2.15661 -1.7645,1.7645 -0.30999,0.30999 -0.27818,0.86634 -0.58817,1.17633 -0.30999,0.30999 -0.81156,0.34499 -1.17633,0.58817 -0.2307,0.1538 -0.35747,0.43437 -0.58817,0.58816 -1.03451,0.68968 -1.74521,0.69809 -2.94083,1.17634 -4.19555,1.67822 2.60696,-0.5214 -2.94083,0.58816 -0.42988,0.086 -0.75103,0.48184 -1.17633,0.58817 -0.76081,0.1902 -1.59186,-0.1902 -2.35267,0 -0.4253,0.10633 -0.76044,0.44953 -1.17633,0.58817 -0.70244,0.23414 -0.4739,-0.23415 -1.17634,0 -0.41589,0.13863 -0.76043,0.44953 -1.17633,0.58816 -0.37199,0.124 -0.80434,-0.12399 -1.17633,0 -0.4159,0.13863 -0.76044,0.44954 -1.17633,0.58817 -0.33185,0.11061 -1.37802,0 -1.7645,0 -0.98028,0 -1.96056,0 -2.94084,0 -3.529,0 -7.05799,0 -10.58699,0 -0.98028,0 -1.96056,0 -2.94083,0 -0.19606,0 -0.44954,-0.13863 -0.58817,0 -0.20646,0.20646 0.20313,2.53457 0,2.94083 -0.124,0.24799 -0.46417,0.34018 -0.58817,0.58817 -0.19489,0.38979 0.16432,1.85971 0,2.35266 -0.13863,0.4159 -0.44953,0.76044 -0.58816,1.17634 -0.18863,0.56589 0.15386,1.73722 0,2.35266 -0.15037,0.60147 -0.4378,1.16303 -0.58817,1.7645 -0.0476,0.1902 0,0.39211 0,0.58817 0,0.58816 0,1.17633 0,1.7645 0,0.39211 0.0951,0.79593 0,1.17633 -0.10633,0.4253 -0.44954,0.76044 -0.58817,1.17633 -0.29408,0.88225 0.58817,0.58817 0,1.7645 -0.0877,0.17536 -0.44953,-0.13863 -0.58816,0 -0.13864,0.13864 0,0.39211 0,0.58817 0,0.19606 0,0.39211 0,0.58817 0,1.7645 0,3.52899 0,5.29349 0,0.19606 0,0.39212 0,0.58817 0,0.19606 -0.13864,0.44954 0,0.58817 0.13863,0.13863 0.44953,-0.13863 0.58816,0 0.13863,0.13863 -0.13863,0.44953 0,0.58816 0.13863,0.13864 0.44954,-0.13863 0.58817,0 0.13863,0.13864 -0.13863,0.44954 0,0.58817 0.0267,0.0267 2.66351,0 2.94083,0 1.17633,0 2.35267,0 3.529,0 0.39211,0 0.78422,0 1.17633,0 0.39211,0 0.80435,0.124 1.17634,0 0.26303,-0.0877 0.32513,-0.50049 0.58816,-0.58817 0.74398,-0.24799 1.60869,0.248 2.35267,0 0.26303,-0.0877 0.32513,-0.50048 0.58816,-0.58816 0.52935,-0.17645 1.23515,0.17645 1.7645,0 0.4159,-0.13863 0.76044,-0.44954 1.17634,-0.58817 0.18599,-0.062 0.40217,0.062 0.58816,0 0.4159,-0.13863 0.76044,-0.44953 1.17634,-0.58817 0.37199,-0.12399 0.80434,0.124 1.17633,0 0.4159,-0.13863 0.76044,-0.44953 1.17633,-0.58816 0.37199,-0.124 0.80435,0.12399 1.17634,0 0.41589,-0.13863 0.76043,-0.44954 1.17633,-0.58817 0.62499,-0.20833 1.72767,0.20833 2.35266,0 0.4159,-0.13863 0.75103,-0.48184 1.17634,-0.58817 0.3804,-0.0951 0.80434,0.124 1.17633,0 0.26304,-0.0877 0.32513,-0.50048 0.58817,-0.58816 0.37199,-0.124 0.80434,0.12399 1.17633,0 0.26304,-0.0877 0.32513,-0.50049 0.58817,-0.58817 0.37199,-0.12399 0.80434,0.124 1.17633,0 0.26303,-0.0877 0.32513,-0.50049 0.58817,-0.58816 0.37198,-0.124 0.80434,0.12399 1.17633,0 0.26303,-0.0877 0.34017,-0.46417 0.58816,-0.58817 0.17536,-0.0877 0.39212,0 0.58817,0 0.39211,-0.19606 0.81157,-0.34499 1.17633,-0.58817 0.2307,-0.1538 0.34018,-0.46417 0.58817,-0.58816 0.17536,-0.0877 0.40217,0.062 0.58817,0 0.41589,-0.13864 0.76043,-0.44954 1.17633,-0.58817 0.18599,-0.062 0.41281,0.0877 0.58817,0 0.62439,-0.3122 0.55194,-0.86414 1.17633,-1.17633 0.17536,-0.0877 0.41281,0.0877 0.58817,0 2.4478,-1.22391 -0.62878,0.0406 0.58816,-1.17634 0.13863,-0.13863 0.41281,0.0877 0.58817,0 2.44781,-1.2239 -0.62877,0.0406 0.58817,-1.17633 0.13863,-0.13863 0.44953,0.13863 0.58816,0 0.13863,-0.13863 -0.0877,-0.41281 0,-0.58817 0.24799,-0.49598 0.92834,-0.68034 1.17633,-1.17633 0.0877,-0.17536 -0.0877,-0.41281 0,-0.58817 0.124,-0.24799 0.46417,-0.34017 0.58817,-0.58816 0.17536,-0.35072 -0.17536,-0.82562 0,-1.17633 0.124,-0.248 0.46417,-0.34018 0.58817,-0.58817 0.0877,-0.17536 0,-0.39211 0,-0.58817 0,-0.19605 0,-0.39211 0,-0.58816 0,-1.17634 0,-2.35267 0,-3.529 0,-1.17634 0,-2.35267 0,-3.529 0,-0.19606 0,-0.39211 0,-0.58817 0,-0.19605 0.0877,-0.41281 0,-0.58816 -0.124,-0.248 -0.46417,-0.34018 -0.58817,-0.58817 -0.1166,-0.2332 0.12024,-1.64426 0,-1.7645 -0.13863,-0.13863 -0.44953,0.13863 -0.58817,0 -0.14153,-0.14153 0.14154,-2.21113 0,-2.35267 -0.78422,-0.78422 -0.58816,0.98028 -0.58816,-0.58816 0,-0.78422 0,-1.56845 0,-2.35267 0,-0.19605 0,-0.39211 0,-0.58816 0,-0.19606 -0.19606,-0.58817 0,-0.58817 0.19605,0 0,0.39211 0,0.58817 C 248.80417,161.98318 249.40208,160.99159 250,160"
       id="path4176"
       inkscape:connector-curvature="0" />
    <rect
       style="fill:#ffffff;fill-opacity:1;stroke:none;stroke-width:0.498;stroke-miterlimit:4;stroke-dasharray:none;stroke-opacity:1"
       id="rect6682"
       width="115"
       height="25"
       x="150"
       y="125" />
    <rect
       style="fill:#ffffff;fill-opacity:1;stroke:none;stroke-width:0.498;stroke-miterlimit:4;stroke-dasharray:none;stroke-opacity:1"
       id="rect6684"
       width="70"
       height="25"
       x="195"
       y="135" />
    <rect
       style="fill:#ffffff;fill-opacity:1;stroke:none;stroke-width:0.498;stroke-miterlimit:4;stroke-dasharray:none;stroke-opacity:1"
       id="rect6732"
       width="50"
       height="60"
       x="210"
       y="145" />
  </g>
</svg>
